<svg xmlns="http://www.w3.org/2000/svg" width="17" height="17" viewBox="0 0 17 17" fill="none">
  <path d="M9.83325 4.31771C9.83325 3.58437 9.23325 2.98437 8.49992 2.98437C7.76659 2.98437 7.16659 3.58437 7.16659 4.31771C7.16659 5.05104 7.76659 5.65104 8.49992 5.65104C9.23325 5.65104 9.83325 5.05104 9.83325 4.31771ZM9.83325 12.3177C9.83325 11.5844 9.23325 10.9844 8.49992 10.9844C7.76659 10.9844 7.16659 11.5844 7.16659 12.3177C7.16659 13.051 7.76659 13.651 8.49992 13.651C9.23325 13.651 9.83325 13.051 9.83325 12.3177ZM9.83325 8.31771C9.83325 7.58437 9.23325 6.98437 8.49992 6.98437C7.76659 6.98437 7.16659 7.58437 7.16659 8.31771C7.16659 9.05104 7.76659 9.65104 8.49992 9.65104C9.23325 9.65104 9.83325 9.05104 9.83325 8.31771Z" fill="black"/>
</svg>