<svg width="453" height="373" viewBox="0 0 453 373" fill="none" xmlns="http://www.w3.org/2000/svg">
<rect x="0.5" y="0.5" width="452" height="372" rx="14.5" stroke="#524FA0" stroke-linecap="round" stroke-dasharray="8 8"/>
<rect x="206.5" y="143" width="40" height="40" rx="20" fill="#7388D1" fill-opacity="0.07"/>
<path d="M226.5 160.749C226.09 160.749 225.75 160.409 225.75 159.999V154.809L225.03 155.529C224.74 155.819 224.26 155.819 223.97 155.529C223.68 155.239 223.68 154.759 223.97 154.469L225.97 152.469C226.18 152.259 226.51 152.189 226.79 152.309C227.07 152.419 227.25 152.699 227.25 152.999V159.999C227.25 160.409 226.91 160.749 226.5 160.749Z" fill="#4259C1"/>
<path d="M228.5 155.747C228.31 155.747 228.12 155.678 227.97 155.528L225.97 153.527C225.68 153.237 225.68 152.757 225.97 152.468C226.26 152.178 226.74 152.178 227.03 152.468L229.03 154.467C229.32 154.757 229.32 155.238 229.03 155.528C228.88 155.678 228.69 155.747 228.5 155.747Z" fill="#4259C1"/>
<path d="M228.26 168.75H224.73C223.68 168.75 222.74 168.17 222.27 167.23L221.1 164.89C221.06 164.8 220.97 164.75 220.88 164.75H216.48C216.07 164.75 215.73 164.41 215.73 164C215.73 163.59 216.07 163.25 216.48 163.25H220.89C221.56 163.25 222.16 163.62 222.46 164.22L223.63 166.56C223.84 166.99 224.27 167.25 224.75 167.25H228.28C228.76 167.25 229.19 166.99 229.4 166.56L230.57 164.22C230.87 163.62 231.47 163.25 232.14 163.25H236.5C236.91 163.25 237.25 163.59 237.25 164C237.25 164.41 236.91 164.75 236.5 164.75H232.14C232.04 164.75 231.96 164.8 231.92 164.89L230.75 167.23C230.25 168.17 229.31 168.75 228.26 168.75Z" fill="#4259C1"/>
<path d="M229.5 173.751H223.5C218.07 173.751 215.75 171.431 215.75 166.001V163.001C215.75 158.311 217.49 155.961 221.39 155.391C221.81 155.331 222.18 155.611 222.24 156.021C222.3 156.431 222.02 156.811 221.61 156.871C218.47 157.331 217.25 159.051 217.25 163.001V166.001C217.25 170.611 218.89 172.251 223.5 172.251H229.5C234.11 172.251 235.75 170.611 235.75 166.001V163.001C235.75 159.051 234.53 157.331 231.39 156.871C230.98 156.811 230.7 156.431 230.76 156.021C230.82 155.611 231.2 155.331 231.61 155.391C235.51 155.961 237.25 158.311 237.25 163.001V166.001C237.25 171.431 234.93 173.751 229.5 173.751Z" fill="#4259C1"/>
<path d="M191.844 203.14C191.107 203.14 190.444 202.972 189.856 202.636C189.268 202.3 188.801 201.843 188.456 201.264C188.12 200.676 187.952 200.013 187.952 199.276V193.2H189.562V199.262C189.562 199.738 189.66 200.153 189.856 200.508C190.061 200.853 190.337 201.124 190.682 201.32C191.027 201.507 191.415 201.6 191.844 201.6C192.283 201.6 192.67 201.507 193.006 201.32C193.342 201.124 193.608 200.853 193.804 200.508C194 200.153 194.098 199.743 194.098 199.276V193.2H195.708V199.29C195.708 200.027 195.54 200.685 195.204 201.264C194.868 201.843 194.411 202.3 193.832 202.636C193.253 202.972 192.591 203.14 191.844 203.14ZM202.126 203V199.122C202.126 198.674 201.981 198.305 201.692 198.016C201.412 197.727 201.048 197.582 200.6 197.582C200.301 197.582 200.035 197.647 199.802 197.778C199.569 197.909 199.387 198.091 199.256 198.324C199.125 198.557 199.06 198.823 199.06 199.122L198.458 198.786C198.458 198.273 198.57 197.82 198.794 197.428C199.018 197.027 199.326 196.714 199.718 196.49C200.119 196.257 200.567 196.14 201.062 196.14C201.566 196.14 202.014 196.271 202.406 196.532C202.798 196.784 203.106 197.115 203.33 197.526C203.554 197.927 203.666 198.347 203.666 198.786V203H202.126ZM197.52 203V196.28H199.06V203H197.52ZM208.031 205.94C207.322 205.94 206.701 205.809 206.169 205.548C205.637 205.296 205.208 204.937 204.881 204.47L205.889 203.462C206.16 203.798 206.468 204.05 206.813 204.218C207.158 204.386 207.574 204.47 208.059 204.47C208.666 204.47 209.146 204.311 209.501 203.994C209.856 203.686 210.033 203.261 210.033 202.72V201.068L210.299 199.584L210.033 198.086V196.28H211.573V202.72C211.573 203.364 211.424 203.924 211.125 204.4C210.826 204.885 210.411 205.263 209.879 205.534C209.347 205.805 208.731 205.94 208.031 205.94ZM207.961 202.86C207.364 202.86 206.822 202.715 206.337 202.426C205.861 202.127 205.483 201.721 205.203 201.208C204.932 200.695 204.797 200.121 204.797 199.486C204.797 198.851 204.932 198.282 205.203 197.778C205.483 197.274 205.861 196.877 206.337 196.588C206.822 196.289 207.364 196.14 207.961 196.14C208.493 196.14 208.96 196.247 209.361 196.462C209.762 196.677 210.075 196.975 210.299 197.358C210.523 197.731 210.635 198.17 210.635 198.674V200.326C210.635 200.821 210.518 201.259 210.285 201.642C210.061 202.025 209.748 202.323 209.347 202.538C208.946 202.753 208.484 202.86 207.961 202.86ZM208.269 201.404C208.642 201.404 208.969 201.325 209.249 201.166C209.529 201.007 209.744 200.788 209.893 200.508C210.052 200.219 210.131 199.883 210.131 199.5C210.131 199.117 210.052 198.786 209.893 198.506C209.744 198.217 209.529 197.993 209.249 197.834C208.969 197.675 208.642 197.596 208.269 197.596C207.896 197.596 207.564 197.675 207.275 197.834C206.995 197.993 206.776 198.217 206.617 198.506C206.458 198.786 206.379 199.117 206.379 199.5C206.379 199.873 206.458 200.205 206.617 200.494C206.776 200.783 206.995 201.007 207.275 201.166C207.564 201.325 207.896 201.404 208.269 201.404ZM216.084 205.94C215.374 205.94 214.754 205.809 214.222 205.548C213.69 205.296 213.26 204.937 212.934 204.47L213.942 203.462C214.212 203.798 214.52 204.05 214.866 204.218C215.211 204.386 215.626 204.47 216.112 204.47C216.718 204.47 217.199 204.311 217.554 203.994C217.908 203.686 218.086 203.261 218.086 202.72V201.068L218.352 199.584L218.086 198.086V196.28H219.626V202.72C219.626 203.364 219.476 203.924 219.178 204.4C218.879 204.885 218.464 205.263 217.932 205.534C217.4 205.805 216.784 205.94 216.084 205.94ZM216.014 202.86C215.416 202.86 214.875 202.715 214.39 202.426C213.914 202.127 213.536 201.721 213.256 201.208C212.985 200.695 212.85 200.121 212.85 199.486C212.85 198.851 212.985 198.282 213.256 197.778C213.536 197.274 213.914 196.877 214.39 196.588C214.875 196.289 215.416 196.14 216.014 196.14C216.546 196.14 217.012 196.247 217.414 196.462C217.815 196.677 218.128 196.975 218.352 197.358C218.576 197.731 218.688 198.17 218.688 198.674V200.326C218.688 200.821 218.571 201.259 218.338 201.642C218.114 202.025 217.801 202.323 217.4 202.538C216.998 202.753 216.536 202.86 216.014 202.86ZM216.322 201.404C216.695 201.404 217.022 201.325 217.302 201.166C217.582 201.007 217.796 200.788 217.946 200.508C218.104 200.219 218.184 199.883 218.184 199.5C218.184 199.117 218.104 198.786 217.946 198.506C217.796 198.217 217.582 197.993 217.302 197.834C217.022 197.675 216.695 197.596 216.322 197.596C215.948 197.596 215.617 197.675 215.328 197.834C215.048 197.993 214.828 198.217 214.67 198.506C214.511 198.786 214.432 199.117 214.432 199.5C214.432 199.873 214.511 200.205 214.67 200.494C214.828 200.783 215.048 201.007 215.328 201.166C215.617 201.325 215.948 201.404 216.322 201.404ZM224.15 203.14C223.544 203.14 222.993 202.986 222.498 202.678C222.013 202.37 221.626 201.955 221.336 201.432C221.056 200.9 220.916 200.307 220.916 199.654C220.916 198.991 221.056 198.399 221.336 197.876C221.626 197.344 222.013 196.924 222.498 196.616C222.993 196.299 223.544 196.14 224.15 196.14C224.664 196.14 225.116 196.252 225.508 196.476C225.91 196.691 226.227 196.989 226.46 197.372C226.694 197.755 226.81 198.189 226.81 198.674V200.606C226.81 201.091 226.694 201.525 226.46 201.908C226.236 202.291 225.924 202.594 225.522 202.818C225.121 203.033 224.664 203.14 224.15 203.14ZM224.402 201.684C224.972 201.684 225.429 201.493 225.774 201.11C226.129 200.727 226.306 200.237 226.306 199.64C226.306 199.239 226.227 198.884 226.068 198.576C225.91 198.268 225.686 198.03 225.396 197.862C225.116 197.685 224.785 197.596 224.402 197.596C224.029 197.596 223.698 197.685 223.408 197.862C223.128 198.03 222.904 198.268 222.736 198.576C222.578 198.884 222.498 199.239 222.498 199.64C222.498 200.041 222.578 200.396 222.736 200.704C222.904 201.012 223.128 201.255 223.408 201.432C223.698 201.6 224.029 201.684 224.402 201.684ZM226.208 203V201.194L226.474 199.556L226.208 197.932V196.28H227.748V203H226.208ZM234.064 203V199.122C234.064 198.674 233.919 198.305 233.63 198.016C233.35 197.727 232.986 197.582 232.538 197.582C232.239 197.582 231.973 197.647 231.74 197.778C231.506 197.909 231.324 198.091 231.194 198.324C231.063 198.557 230.998 198.823 230.998 199.122L230.396 198.786C230.396 198.273 230.508 197.82 230.732 197.428C230.956 197.027 231.264 196.714 231.656 196.49C232.057 196.257 232.505 196.14 233 196.14C233.504 196.14 233.952 196.252 234.344 196.476C234.736 196.7 235.044 197.013 235.268 197.414C235.492 197.806 235.604 198.263 235.604 198.786V203H234.064ZM229.458 203V192.92H230.998V203H229.458ZM240.895 203V195.398C240.895 194.885 241.007 194.432 241.231 194.04C241.465 193.648 241.782 193.34 242.183 193.116C242.594 192.892 243.065 192.78 243.597 192.78C244.008 192.78 244.358 192.85 244.647 192.99C244.937 193.13 245.207 193.331 245.459 193.592L244.465 194.586C244.353 194.474 244.232 194.385 244.101 194.32C243.971 194.255 243.803 194.222 243.597 194.222C243.224 194.222 242.935 194.325 242.729 194.53C242.533 194.726 242.435 195.011 242.435 195.384V203H240.895ZM239.285 197.68V196.28H244.465V197.68H239.285ZM248.356 203.14C247.703 203.14 247.11 202.986 246.578 202.678C246.046 202.361 245.621 201.936 245.304 201.404C244.996 200.872 244.842 200.279 244.842 199.626C244.842 198.973 244.996 198.385 245.304 197.862C245.621 197.339 246.046 196.924 246.578 196.616C247.11 196.299 247.703 196.14 248.356 196.14C249.019 196.14 249.616 196.294 250.148 196.602C250.68 196.91 251.1 197.33 251.408 197.862C251.725 198.385 251.884 198.973 251.884 199.626C251.884 200.279 251.725 200.872 251.408 201.404C251.1 201.936 250.68 202.361 250.148 202.678C249.616 202.986 249.019 203.14 248.356 203.14ZM248.356 201.656C248.739 201.656 249.075 201.572 249.364 201.404C249.663 201.227 249.891 200.984 250.05 200.676C250.218 200.368 250.302 200.018 250.302 199.626C250.302 199.234 250.218 198.889 250.05 198.59C249.882 198.291 249.653 198.058 249.364 197.89C249.075 197.713 248.739 197.624 248.356 197.624C247.983 197.624 247.647 197.713 247.348 197.89C247.059 198.058 246.83 198.291 246.662 198.59C246.503 198.889 246.424 199.234 246.424 199.626C246.424 200.018 246.503 200.368 246.662 200.676C246.83 200.984 247.059 201.227 247.348 201.404C247.647 201.572 247.983 201.656 248.356 201.656ZM253.995 203V193.48H255.535V203H253.995ZM252.385 197.68V196.28H257.145V197.68H252.385ZM261.153 203.14C260.499 203.14 259.907 202.986 259.375 202.678C258.843 202.361 258.418 201.936 258.101 201.404C257.793 200.872 257.639 200.279 257.639 199.626C257.639 198.973 257.793 198.385 258.101 197.862C258.418 197.339 258.843 196.924 259.375 196.616C259.907 196.299 260.499 196.14 261.153 196.14C261.815 196.14 262.413 196.294 262.945 196.602C263.477 196.91 263.897 197.33 264.205 197.862C264.522 198.385 264.681 198.973 264.681 199.626C264.681 200.279 264.522 200.872 264.205 201.404C263.897 201.936 263.477 202.361 262.945 202.678C262.413 202.986 261.815 203.14 261.153 203.14ZM261.153 201.656C261.535 201.656 261.871 201.572 262.161 201.404C262.459 201.227 262.688 200.984 262.847 200.676C263.015 200.368 263.099 200.018 263.099 199.626C263.099 199.234 263.015 198.889 262.847 198.59C262.679 198.291 262.45 198.058 262.161 197.89C261.871 197.713 261.535 197.624 261.153 197.624C260.779 197.624 260.443 197.713 260.145 197.89C259.855 198.058 259.627 198.291 259.459 198.59C259.3 198.889 259.221 199.234 259.221 199.626C259.221 200.018 259.3 200.368 259.459 200.676C259.627 200.984 259.855 201.227 260.145 201.404C260.443 201.572 260.779 201.656 261.153 201.656Z" fill="#666666"/>
<path d="M136.484 224V215.672H137.612V224H136.484ZM137.252 220.34V219.308H141.596V220.34H137.252ZM137.252 216.704V215.672H141.8V216.704H137.252ZM145.459 224.12C144.899 224.12 144.395 223.988 143.947 223.724C143.499 223.46 143.143 223.104 142.879 222.656C142.615 222.2 142.483 221.692 142.483 221.132C142.483 220.58 142.615 220.084 142.879 219.644C143.143 219.196 143.499 218.84 143.947 218.576C144.395 218.312 144.899 218.18 145.459 218.18C146.011 218.18 146.511 218.312 146.959 218.576C147.415 218.832 147.775 219.184 148.039 219.632C148.303 220.08 148.435 220.58 148.435 221.132C148.435 221.692 148.303 222.2 148.039 222.656C147.775 223.104 147.415 223.46 146.959 223.724C146.511 223.988 146.011 224.12 145.459 224.12ZM145.459 223.076C145.819 223.076 146.139 222.992 146.419 222.824C146.699 222.656 146.919 222.428 147.079 222.14C147.239 221.844 147.319 221.508 147.319 221.132C147.319 220.764 147.235 220.436 147.067 220.148C146.907 219.86 146.687 219.636 146.407 219.476C146.135 219.308 145.819 219.224 145.459 219.224C145.099 219.224 144.779 219.308 144.499 219.476C144.219 219.636 143.999 219.86 143.839 220.148C143.679 220.436 143.599 220.764 143.599 221.132C143.599 221.508 143.679 221.844 143.839 222.14C143.999 222.428 144.219 222.656 144.499 222.824C144.779 222.992 145.099 223.076 145.459 223.076ZM149.651 224V218.3H150.731V224H149.651ZM150.731 220.748L150.323 220.568C150.323 219.84 150.491 219.26 150.827 218.828C151.163 218.396 151.647 218.18 152.279 218.18C152.567 218.18 152.827 218.232 153.059 218.336C153.291 218.432 153.507 218.596 153.707 218.828L152.999 219.56C152.879 219.432 152.747 219.34 152.603 219.284C152.459 219.228 152.291 219.2 152.099 219.2C151.699 219.2 151.371 219.328 151.115 219.584C150.859 219.84 150.731 220.228 150.731 220.748ZM154.491 224V218.3H155.571V224H154.491ZM158.343 224V220.556C158.343 220.132 158.211 219.8 157.947 219.56C157.691 219.312 157.367 219.188 156.975 219.188C156.711 219.188 156.475 219.244 156.267 219.356C156.059 219.468 155.891 219.624 155.763 219.824C155.635 220.024 155.571 220.264 155.571 220.544L155.127 220.328C155.127 219.896 155.219 219.52 155.403 219.2C155.595 218.88 155.855 218.632 156.183 218.456C156.511 218.272 156.879 218.18 157.287 218.18C157.687 218.18 158.047 218.268 158.367 218.444C158.695 218.62 158.951 218.868 159.135 219.188C159.327 219.508 159.423 219.888 159.423 220.328V224H158.343ZM162.195 224V220.556C162.195 220.132 162.063 219.8 161.799 219.56C161.543 219.312 161.223 219.188 160.839 219.188C160.575 219.188 160.335 219.244 160.119 219.356C159.911 219.468 159.743 219.624 159.615 219.824C159.487 220.024 159.423 220.264 159.423 220.544L158.811 220.328C158.835 219.888 158.951 219.512 159.159 219.2C159.375 218.88 159.651 218.632 159.987 218.456C160.323 218.272 160.691 218.18 161.091 218.18C161.507 218.18 161.879 218.268 162.207 218.444C162.535 218.62 162.795 218.868 162.987 219.188C163.187 219.508 163.287 219.892 163.287 220.34V224H162.195ZM167.181 224.12C166.661 224.12 166.189 223.992 165.765 223.736C165.341 223.472 165.005 223.116 164.757 222.668C164.517 222.22 164.397 221.716 164.397 221.156C164.397 220.596 164.517 220.092 164.757 219.644C165.005 219.196 165.337 218.84 165.753 218.576C166.177 218.312 166.653 218.18 167.181 218.18C167.613 218.18 167.997 218.272 168.333 218.456C168.677 218.632 168.953 218.88 169.161 219.2C169.369 219.512 169.485 219.876 169.509 220.292V222.008C169.485 222.416 169.369 222.78 169.161 223.1C168.961 223.42 168.689 223.672 168.345 223.856C168.009 224.032 167.621 224.12 167.181 224.12ZM167.361 223.1C167.897 223.1 168.329 222.92 168.657 222.56C168.985 222.192 169.149 221.724 169.149 221.156C169.149 220.764 169.073 220.424 168.921 220.136C168.777 219.84 168.569 219.612 168.297 219.452C168.025 219.284 167.709 219.2 167.349 219.2C166.989 219.2 166.669 219.284 166.389 219.452C166.117 219.62 165.901 219.852 165.741 220.148C165.589 220.436 165.513 220.768 165.513 221.144C165.513 221.528 165.589 221.868 165.741 222.164C165.901 222.452 166.121 222.68 166.401 222.848C166.681 223.016 167.001 223.1 167.361 223.1ZM169.077 224V222.464L169.281 221.072L169.077 219.692V218.3H170.169V224H169.077ZM172.594 224V215.912H173.674V224H172.594ZM171.19 219.284V218.3H175.078V219.284H171.19ZM180.504 224.048L178.032 218.3H179.232L181.068 222.8H180.684L182.616 218.3H183.816L181.152 224.048H180.504ZM178.872 226.388L180.552 222.944L181.152 224.048L180.072 226.388H178.872ZM186.904 224.12C186.384 224.12 185.912 223.992 185.488 223.736C185.064 223.472 184.728 223.116 184.479 222.668C184.24 222.22 184.12 221.716 184.12 221.156C184.12 220.596 184.24 220.092 184.479 219.644C184.728 219.196 185.06 218.84 185.476 218.576C185.9 218.312 186.376 218.18 186.904 218.18C187.336 218.18 187.72 218.272 188.056 218.456C188.4 218.632 188.676 218.88 188.884 219.2C189.092 219.512 189.208 219.876 189.232 220.292V222.008C189.208 222.416 189.092 222.78 188.884 223.1C188.684 223.42 188.412 223.672 188.068 223.856C187.732 224.032 187.344 224.12 186.904 224.12ZM187.084 223.1C187.62 223.1 188.052 222.92 188.38 222.56C188.708 222.192 188.872 221.724 188.872 221.156C188.872 220.764 188.796 220.424 188.644 220.136C188.5 219.84 188.292 219.612 188.02 219.452C187.748 219.284 187.432 219.2 187.072 219.2C186.712 219.2 186.392 219.284 186.112 219.452C185.84 219.62 185.624 219.852 185.464 220.148C185.312 220.436 185.236 220.768 185.236 221.144C185.236 221.528 185.312 221.868 185.464 222.164C185.624 222.452 185.844 222.68 186.124 222.848C186.404 223.016 186.724 223.1 187.084 223.1ZM188.8 224V222.464L189.004 221.072L188.8 219.692V218.3H189.892V224H188.8ZM195.496 224V220.676C195.496 220.244 195.36 219.888 195.088 219.608C194.816 219.328 194.464 219.188 194.032 219.188C193.744 219.188 193.488 219.252 193.264 219.38C193.04 219.508 192.864 219.684 192.736 219.908C192.608 220.132 192.544 220.388 192.544 220.676L192.1 220.424C192.1 219.992 192.196 219.608 192.388 219.272C192.58 218.936 192.848 218.672 193.192 218.48C193.536 218.28 193.924 218.18 194.356 218.18C194.788 218.18 195.168 218.288 195.496 218.504C195.832 218.72 196.096 219.004 196.288 219.356C196.48 219.7 196.576 220.068 196.576 220.46V224H195.496ZM191.464 224V218.3H192.544V224H191.464ZM200.402 226.508C199.818 226.508 199.298 226.4 198.842 226.184C198.394 225.968 198.034 225.664 197.762 225.272L198.458 224.564C198.69 224.86 198.966 225.084 199.286 225.236C199.606 225.396 199.986 225.476 200.426 225.476C201.01 225.476 201.47 225.32 201.806 225.008C202.15 224.704 202.322 224.292 202.322 223.772V222.356L202.514 221.072L202.322 219.8V218.3H203.402V223.772C203.402 224.316 203.274 224.792 203.018 225.2C202.77 225.608 202.418 225.928 201.962 226.16C201.514 226.392 200.994 226.508 200.402 226.508ZM200.402 223.904C199.882 223.904 199.414 223.78 198.998 223.532C198.59 223.284 198.266 222.944 198.026 222.512C197.786 222.072 197.666 221.58 197.666 221.036C197.666 220.492 197.786 220.008 198.026 219.584C198.266 219.152 198.59 218.812 198.998 218.564C199.414 218.308 199.882 218.18 200.402 218.18C200.85 218.18 201.246 218.268 201.59 218.444C201.934 218.62 202.206 218.868 202.406 219.188C202.614 219.5 202.726 219.868 202.742 220.292V221.804C202.718 222.22 202.602 222.588 202.394 222.908C202.194 223.22 201.922 223.464 201.578 223.64C201.234 223.816 200.842 223.904 200.402 223.904ZM200.618 222.884C200.97 222.884 201.278 222.808 201.542 222.656C201.814 222.504 202.022 222.292 202.166 222.02C202.31 221.74 202.382 221.416 202.382 221.048C202.382 220.68 202.306 220.36 202.154 220.088C202.01 219.808 201.806 219.592 201.542 219.44C201.278 219.28 200.966 219.2 200.606 219.2C200.246 219.2 199.93 219.28 199.658 219.44C199.386 219.592 199.17 219.808 199.01 220.088C198.858 220.36 198.782 220.676 198.782 221.036C198.782 221.396 198.858 221.716 199.01 221.996C199.17 222.276 199.386 222.496 199.658 222.656C199.938 222.808 200.258 222.884 200.618 222.884ZM209.895 224.12C209.367 224.12 208.895 223.992 208.479 223.736C208.063 223.472 207.731 223.116 207.483 222.668C207.243 222.22 207.123 221.716 207.123 221.156C207.123 220.596 207.243 220.092 207.483 219.644C207.731 219.196 208.063 218.84 208.479 218.576C208.895 218.312 209.367 218.18 209.895 218.18C210.319 218.18 210.703 218.272 211.047 218.456C211.391 218.632 211.667 218.88 211.875 219.2C212.091 219.512 212.211 219.876 212.235 220.292V222.008C212.211 222.416 212.095 222.78 211.887 223.1C211.679 223.42 211.403 223.672 211.059 223.856C210.715 224.032 210.327 224.12 209.895 224.12ZM210.075 223.1C210.435 223.1 210.747 223.016 211.011 222.848C211.283 222.68 211.495 222.452 211.647 222.164C211.799 221.868 211.875 221.532 211.875 221.156C211.875 220.764 211.795 220.424 211.635 220.136C211.483 219.848 211.271 219.62 210.999 219.452C210.735 219.284 210.423 219.2 210.063 219.2C209.703 219.2 209.387 219.284 209.115 219.452C208.843 219.62 208.627 219.852 208.467 220.148C208.315 220.436 208.239 220.768 208.239 221.144C208.239 221.528 208.315 221.868 208.467 222.164C208.627 222.452 208.843 222.68 209.115 222.848C209.395 223.016 209.715 223.1 210.075 223.1ZM212.895 224H211.803V222.464L212.007 221.072L211.803 219.692V215.432H212.895V224ZM214.48 224V218.3H215.56V224H214.48ZM215.02 217.16C214.82 217.16 214.656 217.096 214.528 216.968C214.4 216.832 214.336 216.664 214.336 216.464C214.336 216.272 214.4 216.112 214.528 215.984C214.656 215.848 214.82 215.78 215.02 215.78C215.22 215.78 215.384 215.848 215.512 215.984C215.64 216.112 215.704 216.272 215.704 216.464C215.704 216.664 215.64 216.832 215.512 216.968C215.384 217.096 215.22 217.16 215.02 217.16ZM219.563 224.12C219.035 224.12 218.563 223.992 218.147 223.736C217.731 223.472 217.399 223.116 217.151 222.668C216.911 222.22 216.791 221.716 216.791 221.156C216.791 220.596 216.911 220.092 217.151 219.644C217.399 219.196 217.731 218.84 218.147 218.576C218.563 218.312 219.035 218.18 219.563 218.18C219.987 218.18 220.371 218.272 220.715 218.456C221.059 218.632 221.335 218.88 221.543 219.2C221.759 219.512 221.879 219.876 221.903 220.292V222.008C221.879 222.416 221.763 222.78 221.555 223.1C221.347 223.42 221.071 223.672 220.727 223.856C220.383 224.032 219.995 224.12 219.563 224.12ZM219.743 223.1C220.103 223.1 220.415 223.016 220.679 222.848C220.951 222.68 221.163 222.452 221.315 222.164C221.467 221.868 221.543 221.532 221.543 221.156C221.543 220.764 221.463 220.424 221.303 220.136C221.151 219.848 220.939 219.62 220.667 219.452C220.403 219.284 220.091 219.2 219.731 219.2C219.371 219.2 219.055 219.284 218.783 219.452C218.511 219.62 218.295 219.852 218.135 220.148C217.983 220.436 217.907 220.768 217.907 221.144C217.907 221.528 217.983 221.868 218.135 222.164C218.295 222.452 218.511 222.68 218.783 222.848C219.063 223.016 219.383 223.1 219.743 223.1ZM222.563 224H221.471V222.464L221.675 221.072L221.471 219.692V215.432H222.563V224ZM226.428 224.12C225.964 224.12 225.544 224.016 225.168 223.808C224.8 223.592 224.512 223.296 224.304 222.92C224.096 222.544 223.992 222.108 223.992 221.612V218.3H225.072V221.564C225.072 221.876 225.124 222.148 225.228 222.38C225.34 222.604 225.5 222.776 225.708 222.896C225.916 223.016 226.16 223.076 226.44 223.076C226.864 223.076 227.196 222.944 227.436 222.68C227.676 222.408 227.796 222.036 227.796 221.564V218.3H228.876V221.612C228.876 222.108 228.772 222.544 228.564 222.92C228.356 223.296 228.068 223.592 227.7 223.808C227.34 224.016 226.916 224.12 226.428 224.12ZM233.971 224L231.307 221.084L233.947 218.3H235.255L232.315 221.372L232.363 220.748L235.363 224H233.971ZM230.323 224V215.432H231.403V224H230.323ZM238.381 224.12C237.917 224.12 237.497 224.016 237.121 223.808C236.753 223.592 236.465 223.296 236.257 222.92C236.049 222.544 235.945 222.108 235.945 221.612V218.3H237.025V221.564C237.025 221.876 237.077 222.148 237.181 222.38C237.293 222.604 237.453 222.776 237.661 222.896C237.869 223.016 238.113 223.076 238.393 223.076C238.817 223.076 239.149 222.944 239.389 222.68C239.629 222.408 239.749 222.036 239.749 221.564V218.3H240.829V221.612C240.829 222.108 240.725 222.544 240.517 222.92C240.309 223.296 240.021 223.592 239.653 223.808C239.293 224.016 238.869 224.12 238.381 224.12ZM246.308 224V220.676C246.308 220.244 246.172 219.888 245.9 219.608C245.628 219.328 245.276 219.188 244.844 219.188C244.556 219.188 244.3 219.252 244.076 219.38C243.852 219.508 243.676 219.684 243.548 219.908C243.42 220.132 243.356 220.388 243.356 220.676L242.912 220.424C242.912 219.992 243.008 219.608 243.2 219.272C243.392 218.936 243.66 218.672 244.004 218.48C244.348 218.28 244.736 218.18 245.168 218.18C245.6 218.18 245.98 218.288 246.308 218.504C246.644 218.72 246.908 219.004 247.1 219.356C247.292 219.7 247.388 220.068 247.388 220.46V224H246.308ZM242.276 224V218.3H243.356V224H242.276ZM251.215 226.508C250.631 226.508 250.111 226.4 249.655 226.184C249.207 225.968 248.847 225.664 248.575 225.272L249.271 224.564C249.503 224.86 249.779 225.084 250.099 225.236C250.419 225.396 250.799 225.476 251.239 225.476C251.823 225.476 252.283 225.32 252.619 225.008C252.963 224.704 253.135 224.292 253.135 223.772V222.356L253.327 221.072L253.135 219.8V218.3H254.215V223.772C254.215 224.316 254.087 224.792 253.831 225.2C253.583 225.608 253.231 225.928 252.775 226.16C252.327 226.392 251.807 226.508 251.215 226.508ZM251.215 223.904C250.695 223.904 250.227 223.78 249.811 223.532C249.403 223.284 249.079 222.944 248.839 222.512C248.599 222.072 248.479 221.58 248.479 221.036C248.479 220.492 248.599 220.008 248.839 219.584C249.079 219.152 249.403 218.812 249.811 218.564C250.227 218.308 250.695 218.18 251.215 218.18C251.663 218.18 252.059 218.268 252.403 218.444C252.747 218.62 253.019 218.868 253.219 219.188C253.427 219.5 253.539 219.868 253.555 220.292V221.804C253.531 222.22 253.415 222.588 253.207 222.908C253.007 223.22 252.735 223.464 252.391 223.64C252.047 223.816 251.655 223.904 251.215 223.904ZM251.431 222.884C251.783 222.884 252.091 222.808 252.355 222.656C252.627 222.504 252.835 222.292 252.979 222.02C253.123 221.74 253.195 221.416 253.195 221.048C253.195 220.68 253.119 220.36 252.967 220.088C252.823 219.808 252.619 219.592 252.355 219.44C252.091 219.28 251.779 219.2 251.419 219.2C251.059 219.2 250.743 219.28 250.471 219.44C250.199 219.592 249.983 219.808 249.823 220.088C249.671 220.36 249.595 220.676 249.595 221.036C249.595 221.396 249.671 221.716 249.823 221.996C249.983 222.276 250.199 222.496 250.471 222.656C250.751 222.808 251.071 222.884 251.431 222.884ZM259.244 220.76V219.776H261.512C261.824 219.776 262.1 219.712 262.34 219.584C262.588 219.456 262.78 219.276 262.916 219.044C263.06 218.812 263.132 218.536 263.132 218.216C263.132 217.896 263.06 217.62 262.916 217.388C262.78 217.156 262.588 216.976 262.34 216.848C262.1 216.72 261.824 216.656 261.512 216.656H259.244V215.672H261.584C262.096 215.672 262.552 215.776 262.952 215.984C263.36 216.192 263.68 216.488 263.912 216.872C264.152 217.248 264.272 217.696 264.272 218.216C264.272 218.728 264.152 219.176 263.912 219.56C263.68 219.936 263.36 220.232 262.952 220.448C262.552 220.656 262.096 220.76 261.584 220.76H259.244ZM258.488 224V215.672H259.616V224H258.488ZM265.672 224V215.672H266.464L266.8 216.98V224H265.672ZM271.432 224L266.32 217.172L266.464 215.672L271.588 222.488L271.432 224ZM271.432 224L271.096 222.764V215.672H272.224V224H271.432ZM277.959 224.12C277.375 224.12 276.827 224.012 276.315 223.796C275.811 223.572 275.367 223.264 274.983 222.872C274.607 222.48 274.311 222.024 274.095 221.504C273.879 220.984 273.771 220.424 273.771 219.824C273.771 219.224 273.879 218.668 274.095 218.156C274.311 217.636 274.611 217.18 274.995 216.788C275.379 216.396 275.827 216.092 276.339 215.876C276.859 215.66 277.423 215.552 278.031 215.552C278.695 215.552 279.307 215.68 279.867 215.936C280.427 216.192 280.895 216.56 281.271 217.04L280.491 217.82C280.227 217.436 279.879 217.144 279.447 216.944C279.015 216.736 278.543 216.632 278.031 216.632C277.423 216.632 276.883 216.768 276.411 217.04C275.947 217.312 275.583 217.688 275.319 218.168C275.063 218.648 274.935 219.2 274.935 219.824C274.935 220.456 275.067 221.012 275.331 221.492C275.595 221.972 275.951 222.348 276.399 222.62C276.847 222.892 277.359 223.028 277.935 223.028C278.519 223.028 279.023 222.916 279.447 222.692C279.879 222.468 280.211 222.14 280.443 221.708C280.675 221.268 280.791 220.732 280.791 220.1L281.475 220.592H277.875V219.56H281.955V219.728C281.955 220.696 281.783 221.508 281.439 222.164C281.103 222.812 280.631 223.3 280.023 223.628C279.423 223.956 278.735 224.12 277.959 224.12ZM282.836 225.32L283.58 223.892L283.964 223.796C283.924 223.884 283.872 223.956 283.808 224.012C283.752 224.068 283.68 224.096 283.592 224.096C283.424 224.096 283.268 224.028 283.124 223.892C282.988 223.748 282.92 223.572 282.92 223.364C282.92 223.132 282.996 222.94 283.148 222.788C283.3 222.628 283.492 222.548 283.724 222.548C283.932 222.548 284.116 222.628 284.276 222.788C284.436 222.94 284.516 223.132 284.516 223.364C284.516 223.452 284.496 223.56 284.456 223.688C284.424 223.808 284.356 223.964 284.252 224.156L283.46 225.656L282.836 225.32ZM289.965 224.12C289.485 224.12 289.061 224.028 288.693 223.844C288.333 223.652 288.037 223.396 287.805 223.076L288.597 222.344C288.749 222.568 288.937 222.74 289.161 222.86C289.393 222.98 289.649 223.04 289.929 223.04C290.209 223.04 290.457 222.98 290.673 222.86C290.889 222.74 291.057 222.564 291.177 222.332C291.305 222.092 291.369 221.8 291.369 221.456V215.672H292.497V221.396C292.497 221.948 292.385 222.428 292.161 222.836C291.945 223.244 291.645 223.56 291.261 223.784C290.885 224.008 290.453 224.12 289.965 224.12ZM295.127 220.76V219.776H297.395C297.707 219.776 297.983 219.712 298.223 219.584C298.471 219.456 298.663 219.276 298.799 219.044C298.943 218.812 299.015 218.536 299.015 218.216C299.015 217.896 298.943 217.62 298.799 217.388C298.663 217.156 298.471 216.976 298.223 216.848C297.983 216.72 297.707 216.656 297.395 216.656H295.127V215.672H297.467C297.979 215.672 298.435 215.776 298.835 215.984C299.243 216.192 299.563 216.488 299.795 216.872C300.035 217.248 300.155 217.696 300.155 218.216C300.155 218.728 300.035 219.176 299.795 219.56C299.563 219.936 299.243 220.232 298.835 220.448C298.435 220.656 297.979 220.76 297.467 220.76H295.127ZM294.371 224V215.672H295.499V224H294.371ZM301.554 224V215.672H302.682V224H301.554ZM302.322 224V222.968H307.098V224H302.322ZM302.322 220.232V219.248H306.702V220.232H302.322ZM302.322 216.704V215.672H307.038V216.704H302.322ZM312.225 224.12C311.641 224.12 311.093 224.012 310.581 223.796C310.077 223.572 309.633 223.264 309.249 222.872C308.873 222.48 308.577 222.024 308.361 221.504C308.145 220.984 308.037 220.424 308.037 219.824C308.037 219.224 308.145 218.668 308.361 218.156C308.577 217.636 308.877 217.18 309.261 216.788C309.645 216.396 310.093 216.092 310.605 215.876C311.125 215.66 311.689 215.552 312.297 215.552C312.961 215.552 313.573 215.68 314.133 215.936C314.693 216.192 315.161 216.56 315.537 217.04L314.757 217.82C314.493 217.436 314.145 217.144 313.713 216.944C313.281 216.736 312.809 216.632 312.297 216.632C311.689 216.632 311.149 216.768 310.677 217.04C310.213 217.312 309.849 217.688 309.585 218.168C309.329 218.648 309.201 219.2 309.201 219.824C309.201 220.456 309.333 221.012 309.597 221.492C309.861 221.972 310.217 222.348 310.665 222.62C311.113 222.892 311.625 223.028 312.201 223.028C312.785 223.028 313.289 222.916 313.713 222.692C314.145 222.468 314.477 222.14 314.709 221.708C314.941 221.268 315.057 220.732 315.057 220.1L315.741 220.592H312.141V219.56H316.221V219.728C316.221 220.696 316.049 221.508 315.705 222.164C315.369 222.812 314.897 223.3 314.289 223.628C313.689 223.956 313.001 224.12 312.225 224.12Z" fill="#AEAEAE"/>
</svg>
