<svg width="775" height="189" viewBox="0 0 775 189" fill="none" xmlns="http://www.w3.org/2000/svg">
<rect x="0.5" y="0.5" width="774" height="188" rx="14.5" stroke="#524FA0" stroke-linecap="round" stroke-dasharray="8 8"/>
<rect x="367.5" y="51" width="40" height="40" rx="20" fill="#7388D1" fill-opacity="0.07"/>
<path d="M387.5 68.7485C387.09 68.7485 386.75 68.4085 386.75 67.9985V62.8085L386.03 63.5285C385.74 63.8185 385.26 63.8185 384.97 63.5285C384.68 63.2385 384.68 62.7585 384.97 62.4685L386.97 60.4685C387.18 60.2585 387.51 60.1885 387.79 60.3085C388.07 60.4185 388.25 60.6985 388.25 60.9985V67.9985C388.25 68.4085 387.91 68.7485 387.5 68.7485Z" fill="#4259C1"/>
<path d="M389.5 63.7475C389.31 63.7475 389.12 63.6775 388.97 63.5275L386.97 61.5275C386.68 61.2375 386.68 60.7575 386.97 60.4675C387.26 60.1775 387.74 60.1775 388.03 60.4675L390.03 62.4675C390.32 62.7575 390.32 63.2375 390.03 63.5275C389.88 63.6775 389.69 63.7475 389.5 63.7475Z" fill="#4259C1"/>
<path d="M389.26 76.75H385.73C384.68 76.75 383.74 76.17 383.27 75.23L382.1 72.89C382.06 72.8 381.97 72.75 381.88 72.75H377.48C377.07 72.75 376.73 72.41 376.73 72C376.73 71.59 377.07 71.25 377.48 71.25H381.89C382.56 71.25 383.16 71.62 383.46 72.22L384.63 74.56C384.84 74.99 385.27 75.25 385.75 75.25H389.28C389.76 75.25 390.19 74.99 390.4 74.56L391.57 72.22C391.87 71.62 392.47 71.25 393.14 71.25H397.5C397.91 71.25 398.25 71.59 398.25 72C398.25 72.41 397.91 72.75 397.5 72.75H393.14C393.04 72.75 392.96 72.8 392.92 72.89L391.75 75.23C391.25 76.17 390.31 76.75 389.26 76.75Z" fill="#4259C1"/>
<path d="M390.5 81.7509H384.5C379.07 81.7509 376.75 79.4309 376.75 74.0009V71.0009C376.75 66.3109 378.49 63.9609 382.39 63.3909C382.81 63.3309 383.18 63.6109 383.24 64.0209C383.3 64.4309 383.02 64.8109 382.61 64.8709C379.47 65.3309 378.25 67.0509 378.25 71.0009V74.0009C378.25 78.6109 379.89 80.2509 384.5 80.2509H390.5C395.11 80.2509 396.75 78.6109 396.75 74.0009V71.0009C396.75 67.0509 395.53 65.3309 392.39 64.8709C391.98 64.8109 391.7 64.4309 391.76 64.0209C391.82 63.6109 392.2 63.3309 392.61 63.3909C396.51 63.9609 398.25 66.3109 398.25 71.0009V74.0009C398.25 79.4309 395.93 81.7509 390.5 81.7509Z" fill="#4259C1"/>
<path d="M352.844 111.14C352.107 111.14 351.444 110.972 350.856 110.636C350.268 110.3 349.801 109.843 349.456 109.264C349.12 108.676 348.952 108.013 348.952 107.276V101.2H350.562V107.262C350.562 107.738 350.66 108.153 350.856 108.508C351.061 108.853 351.337 109.124 351.682 109.32C352.027 109.507 352.415 109.6 352.844 109.6C353.283 109.6 353.67 109.507 354.006 109.32C354.342 109.124 354.608 108.853 354.804 108.508C355 108.153 355.098 107.743 355.098 107.276V101.2H356.708V107.29C356.708 108.027 356.54 108.685 356.204 109.264C355.868 109.843 355.411 110.3 354.832 110.636C354.253 110.972 353.591 111.14 352.844 111.14ZM363.126 111V107.122C363.126 106.674 362.981 106.305 362.692 106.016C362.412 105.727 362.048 105.582 361.6 105.582C361.301 105.582 361.035 105.647 360.802 105.778C360.569 105.909 360.387 106.091 360.256 106.324C360.125 106.557 360.06 106.823 360.06 107.122L359.458 106.786C359.458 106.273 359.57 105.82 359.794 105.428C360.018 105.027 360.326 104.714 360.718 104.49C361.119 104.257 361.567 104.14 362.062 104.14C362.566 104.14 363.014 104.271 363.406 104.532C363.798 104.784 364.106 105.115 364.33 105.526C364.554 105.927 364.666 106.347 364.666 106.786V111H363.126ZM358.52 111V104.28H360.06V111H358.52ZM369.031 113.94C368.322 113.94 367.701 113.809 367.169 113.548C366.637 113.296 366.208 112.937 365.881 112.47L366.889 111.462C367.16 111.798 367.468 112.05 367.813 112.218C368.158 112.386 368.574 112.47 369.059 112.47C369.666 112.47 370.146 112.311 370.501 111.994C370.856 111.686 371.033 111.261 371.033 110.72V109.068L371.299 107.584L371.033 106.086V104.28H372.573V110.72C372.573 111.364 372.424 111.924 372.125 112.4C371.826 112.885 371.411 113.263 370.879 113.534C370.347 113.805 369.731 113.94 369.031 113.94ZM368.961 110.86C368.364 110.86 367.822 110.715 367.337 110.426C366.861 110.127 366.483 109.721 366.203 109.208C365.932 108.695 365.797 108.121 365.797 107.486C365.797 106.851 365.932 106.282 366.203 105.778C366.483 105.274 366.861 104.877 367.337 104.588C367.822 104.289 368.364 104.14 368.961 104.14C369.493 104.14 369.96 104.247 370.361 104.462C370.762 104.677 371.075 104.975 371.299 105.358C371.523 105.731 371.635 106.17 371.635 106.674V108.326C371.635 108.821 371.518 109.259 371.285 109.642C371.061 110.025 370.748 110.323 370.347 110.538C369.946 110.753 369.484 110.86 368.961 110.86ZM369.269 109.404C369.642 109.404 369.969 109.325 370.249 109.166C370.529 109.007 370.744 108.788 370.893 108.508C371.052 108.219 371.131 107.883 371.131 107.5C371.131 107.117 371.052 106.786 370.893 106.506C370.744 106.217 370.529 105.993 370.249 105.834C369.969 105.675 369.642 105.596 369.269 105.596C368.896 105.596 368.564 105.675 368.275 105.834C367.995 105.993 367.776 106.217 367.617 106.506C367.458 106.786 367.379 107.117 367.379 107.5C367.379 107.873 367.458 108.205 367.617 108.494C367.776 108.783 367.995 109.007 368.275 109.166C368.564 109.325 368.896 109.404 369.269 109.404ZM377.084 113.94C376.374 113.94 375.754 113.809 375.222 113.548C374.69 113.296 374.26 112.937 373.934 112.47L374.942 111.462C375.212 111.798 375.52 112.05 375.866 112.218C376.211 112.386 376.626 112.47 377.112 112.47C377.718 112.47 378.199 112.311 378.554 111.994C378.908 111.686 379.086 111.261 379.086 110.72V109.068L379.352 107.584L379.086 106.086V104.28H380.626V110.72C380.626 111.364 380.476 111.924 380.178 112.4C379.879 112.885 379.464 113.263 378.932 113.534C378.4 113.805 377.784 113.94 377.084 113.94ZM377.014 110.86C376.416 110.86 375.875 110.715 375.39 110.426C374.914 110.127 374.536 109.721 374.256 109.208C373.985 108.695 373.85 108.121 373.85 107.486C373.85 106.851 373.985 106.282 374.256 105.778C374.536 105.274 374.914 104.877 375.39 104.588C375.875 104.289 376.416 104.14 377.014 104.14C377.546 104.14 378.012 104.247 378.414 104.462C378.815 104.677 379.128 104.975 379.352 105.358C379.576 105.731 379.688 106.17 379.688 106.674V108.326C379.688 108.821 379.571 109.259 379.338 109.642C379.114 110.025 378.801 110.323 378.4 110.538C377.998 110.753 377.536 110.86 377.014 110.86ZM377.322 109.404C377.695 109.404 378.022 109.325 378.302 109.166C378.582 109.007 378.796 108.788 378.946 108.508C379.104 108.219 379.184 107.883 379.184 107.5C379.184 107.117 379.104 106.786 378.946 106.506C378.796 106.217 378.582 105.993 378.302 105.834C378.022 105.675 377.695 105.596 377.322 105.596C376.948 105.596 376.617 105.675 376.328 105.834C376.048 105.993 375.828 106.217 375.67 106.506C375.511 106.786 375.432 107.117 375.432 107.5C375.432 107.873 375.511 108.205 375.67 108.494C375.828 108.783 376.048 109.007 376.328 109.166C376.617 109.325 376.948 109.404 377.322 109.404ZM385.15 111.14C384.544 111.14 383.993 110.986 383.498 110.678C383.013 110.37 382.626 109.955 382.336 109.432C382.056 108.9 381.916 108.307 381.916 107.654C381.916 106.991 382.056 106.399 382.336 105.876C382.626 105.344 383.013 104.924 383.498 104.616C383.993 104.299 384.544 104.14 385.15 104.14C385.664 104.14 386.116 104.252 386.508 104.476C386.91 104.691 387.227 104.989 387.46 105.372C387.694 105.755 387.81 106.189 387.81 106.674V108.606C387.81 109.091 387.694 109.525 387.46 109.908C387.236 110.291 386.924 110.594 386.522 110.818C386.121 111.033 385.664 111.14 385.15 111.14ZM385.402 109.684C385.972 109.684 386.429 109.493 386.774 109.11C387.129 108.727 387.306 108.237 387.306 107.64C387.306 107.239 387.227 106.884 387.068 106.576C386.91 106.268 386.686 106.03 386.396 105.862C386.116 105.685 385.785 105.596 385.402 105.596C385.029 105.596 384.698 105.685 384.408 105.862C384.128 106.03 383.904 106.268 383.736 106.576C383.578 106.884 383.498 107.239 383.498 107.64C383.498 108.041 383.578 108.396 383.736 108.704C383.904 109.012 384.128 109.255 384.408 109.432C384.698 109.6 385.029 109.684 385.402 109.684ZM387.208 111V109.194L387.474 107.556L387.208 105.932V104.28H388.748V111H387.208ZM395.064 111V107.122C395.064 106.674 394.919 106.305 394.63 106.016C394.35 105.727 393.986 105.582 393.538 105.582C393.239 105.582 392.973 105.647 392.74 105.778C392.506 105.909 392.324 106.091 392.194 106.324C392.063 106.557 391.998 106.823 391.998 107.122L391.396 106.786C391.396 106.273 391.508 105.82 391.732 105.428C391.956 105.027 392.264 104.714 392.656 104.49C393.057 104.257 393.505 104.14 394 104.14C394.504 104.14 394.952 104.252 395.344 104.476C395.736 104.7 396.044 105.013 396.268 105.414C396.492 105.806 396.604 106.263 396.604 106.786V111H395.064ZM390.458 111V100.92H391.998V111H390.458ZM401.895 111V103.398C401.895 102.885 402.007 102.432 402.231 102.04C402.465 101.648 402.782 101.34 403.183 101.116C403.594 100.892 404.065 100.78 404.597 100.78C405.008 100.78 405.358 100.85 405.647 100.99C405.937 101.13 406.207 101.331 406.459 101.592L405.465 102.586C405.353 102.474 405.232 102.385 405.101 102.32C404.971 102.255 404.803 102.222 404.597 102.222C404.224 102.222 403.935 102.325 403.729 102.53C403.533 102.726 403.435 103.011 403.435 103.384V111H401.895ZM400.285 105.68V104.28H405.465V105.68H400.285ZM409.356 111.14C408.703 111.14 408.11 110.986 407.578 110.678C407.046 110.361 406.621 109.936 406.304 109.404C405.996 108.872 405.842 108.279 405.842 107.626C405.842 106.973 405.996 106.385 406.304 105.862C406.621 105.339 407.046 104.924 407.578 104.616C408.11 104.299 408.703 104.14 409.356 104.14C410.019 104.14 410.616 104.294 411.148 104.602C411.68 104.91 412.1 105.33 412.408 105.862C412.725 106.385 412.884 106.973 412.884 107.626C412.884 108.279 412.725 108.872 412.408 109.404C412.1 109.936 411.68 110.361 411.148 110.678C410.616 110.986 410.019 111.14 409.356 111.14ZM409.356 109.656C409.739 109.656 410.075 109.572 410.364 109.404C410.663 109.227 410.891 108.984 411.05 108.676C411.218 108.368 411.302 108.018 411.302 107.626C411.302 107.234 411.218 106.889 411.05 106.59C410.882 106.291 410.653 106.058 410.364 105.89C410.075 105.713 409.739 105.624 409.356 105.624C408.983 105.624 408.647 105.713 408.348 105.89C408.059 106.058 407.83 106.291 407.662 106.59C407.503 106.889 407.424 107.234 407.424 107.626C407.424 108.018 407.503 108.368 407.662 108.676C407.83 108.984 408.059 109.227 408.348 109.404C408.647 109.572 408.983 109.656 409.356 109.656ZM414.995 111V101.48H416.535V111H414.995ZM413.385 105.68V104.28H418.145V105.68H413.385ZM422.153 111.14C421.499 111.14 420.907 110.986 420.375 110.678C419.843 110.361 419.418 109.936 419.101 109.404C418.793 108.872 418.639 108.279 418.639 107.626C418.639 106.973 418.793 106.385 419.101 105.862C419.418 105.339 419.843 104.924 420.375 104.616C420.907 104.299 421.499 104.14 422.153 104.14C422.815 104.14 423.413 104.294 423.945 104.602C424.477 104.91 424.897 105.33 425.205 105.862C425.522 106.385 425.681 106.973 425.681 107.626C425.681 108.279 425.522 108.872 425.205 109.404C424.897 109.936 424.477 110.361 423.945 110.678C423.413 110.986 422.815 111.14 422.153 111.14ZM422.153 109.656C422.535 109.656 422.871 109.572 423.161 109.404C423.459 109.227 423.688 108.984 423.847 108.676C424.015 108.368 424.099 108.018 424.099 107.626C424.099 107.234 424.015 106.889 423.847 106.59C423.679 106.291 423.45 106.058 423.161 105.89C422.871 105.713 422.535 105.624 422.153 105.624C421.779 105.624 421.443 105.713 421.145 105.89C420.855 106.058 420.627 106.291 420.459 106.59C420.3 106.889 420.221 107.234 420.221 107.626C420.221 108.018 420.3 108.368 420.459 108.676C420.627 108.984 420.855 109.227 421.145 109.404C421.443 109.572 421.779 109.656 422.153 109.656Z" fill="#666666"/>
<path d="M297.484 132V123.672H298.612V132H297.484ZM298.252 128.34V127.308H302.596V128.34H298.252ZM298.252 124.704V123.672H302.8V124.704H298.252ZM306.459 132.12C305.899 132.12 305.395 131.988 304.947 131.724C304.499 131.46 304.143 131.104 303.879 130.656C303.615 130.2 303.483 129.692 303.483 129.132C303.483 128.58 303.615 128.084 303.879 127.644C304.143 127.196 304.499 126.84 304.947 126.576C305.395 126.312 305.899 126.18 306.459 126.18C307.011 126.18 307.511 126.312 307.959 126.576C308.415 126.832 308.775 127.184 309.039 127.632C309.303 128.08 309.435 128.58 309.435 129.132C309.435 129.692 309.303 130.2 309.039 130.656C308.775 131.104 308.415 131.46 307.959 131.724C307.511 131.988 307.011 132.12 306.459 132.12ZM306.459 131.076C306.819 131.076 307.139 130.992 307.419 130.824C307.699 130.656 307.919 130.428 308.079 130.14C308.239 129.844 308.319 129.508 308.319 129.132C308.319 128.764 308.235 128.436 308.067 128.148C307.907 127.86 307.687 127.636 307.407 127.476C307.135 127.308 306.819 127.224 306.459 127.224C306.099 127.224 305.779 127.308 305.499 127.476C305.219 127.636 304.999 127.86 304.839 128.148C304.679 128.436 304.599 128.764 304.599 129.132C304.599 129.508 304.679 129.844 304.839 130.14C304.999 130.428 305.219 130.656 305.499 130.824C305.779 130.992 306.099 131.076 306.459 131.076ZM310.651 132V126.3H311.731V132H310.651ZM311.731 128.748L311.323 128.568C311.323 127.84 311.491 127.26 311.827 126.828C312.163 126.396 312.647 126.18 313.279 126.18C313.567 126.18 313.827 126.232 314.059 126.336C314.291 126.432 314.507 126.596 314.707 126.828L313.999 127.56C313.879 127.432 313.747 127.34 313.603 127.284C313.459 127.228 313.291 127.2 313.099 127.2C312.699 127.2 312.371 127.328 312.115 127.584C311.859 127.84 311.731 128.228 311.731 128.748ZM315.491 132V126.3H316.571V132H315.491ZM319.343 132V128.556C319.343 128.132 319.211 127.8 318.947 127.56C318.691 127.312 318.367 127.188 317.975 127.188C317.711 127.188 317.475 127.244 317.267 127.356C317.059 127.468 316.891 127.624 316.763 127.824C316.635 128.024 316.571 128.264 316.571 128.544L316.127 128.328C316.127 127.896 316.219 127.52 316.403 127.2C316.595 126.88 316.855 126.632 317.183 126.456C317.511 126.272 317.879 126.18 318.287 126.18C318.687 126.18 319.047 126.268 319.367 126.444C319.695 126.62 319.951 126.868 320.135 127.188C320.327 127.508 320.423 127.888 320.423 128.328V132H319.343ZM323.195 132V128.556C323.195 128.132 323.063 127.8 322.799 127.56C322.543 127.312 322.223 127.188 321.839 127.188C321.575 127.188 321.335 127.244 321.119 127.356C320.911 127.468 320.743 127.624 320.615 127.824C320.487 128.024 320.423 128.264 320.423 128.544L319.811 128.328C319.835 127.888 319.951 127.512 320.159 127.2C320.375 126.88 320.651 126.632 320.987 126.456C321.323 126.272 321.691 126.18 322.091 126.18C322.507 126.18 322.879 126.268 323.207 126.444C323.535 126.62 323.795 126.868 323.987 127.188C324.187 127.508 324.287 127.892 324.287 128.34V132H323.195ZM328.181 132.12C327.661 132.12 327.189 131.992 326.765 131.736C326.341 131.472 326.005 131.116 325.757 130.668C325.517 130.22 325.397 129.716 325.397 129.156C325.397 128.596 325.517 128.092 325.757 127.644C326.005 127.196 326.337 126.84 326.753 126.576C327.177 126.312 327.653 126.18 328.181 126.18C328.613 126.18 328.997 126.272 329.333 126.456C329.677 126.632 329.953 126.88 330.161 127.2C330.369 127.512 330.485 127.876 330.509 128.292V130.008C330.485 130.416 330.369 130.78 330.161 131.1C329.961 131.42 329.689 131.672 329.345 131.856C329.009 132.032 328.621 132.12 328.181 132.12ZM328.361 131.1C328.897 131.1 329.329 130.92 329.657 130.56C329.985 130.192 330.149 129.724 330.149 129.156C330.149 128.764 330.073 128.424 329.921 128.136C329.777 127.84 329.569 127.612 329.297 127.452C329.025 127.284 328.709 127.2 328.349 127.2C327.989 127.2 327.669 127.284 327.389 127.452C327.117 127.62 326.901 127.852 326.741 128.148C326.589 128.436 326.513 128.768 326.513 129.144C326.513 129.528 326.589 129.868 326.741 130.164C326.901 130.452 327.121 130.68 327.401 130.848C327.681 131.016 328.001 131.1 328.361 131.1ZM330.077 132V130.464L330.281 129.072L330.077 127.692V126.3H331.169V132H330.077ZM333.594 132V123.912H334.674V132H333.594ZM332.19 127.284V126.3H336.078V127.284H332.19ZM341.504 132.048L339.032 126.3H340.232L342.068 130.8H341.684L343.616 126.3H344.816L342.152 132.048H341.504ZM339.872 134.388L341.552 130.944L342.152 132.048L341.072 134.388H339.872ZM347.904 132.12C347.384 132.12 346.912 131.992 346.488 131.736C346.064 131.472 345.728 131.116 345.479 130.668C345.24 130.22 345.12 129.716 345.12 129.156C345.12 128.596 345.24 128.092 345.479 127.644C345.728 127.196 346.06 126.84 346.476 126.576C346.9 126.312 347.376 126.18 347.904 126.18C348.336 126.18 348.72 126.272 349.056 126.456C349.4 126.632 349.676 126.88 349.884 127.2C350.092 127.512 350.208 127.876 350.232 128.292V130.008C350.208 130.416 350.092 130.78 349.884 131.1C349.684 131.42 349.412 131.672 349.068 131.856C348.732 132.032 348.344 132.12 347.904 132.12ZM348.084 131.1C348.62 131.1 349.052 130.92 349.38 130.56C349.708 130.192 349.872 129.724 349.872 129.156C349.872 128.764 349.796 128.424 349.644 128.136C349.5 127.84 349.292 127.612 349.02 127.452C348.748 127.284 348.432 127.2 348.072 127.2C347.712 127.2 347.392 127.284 347.112 127.452C346.84 127.62 346.624 127.852 346.464 128.148C346.312 128.436 346.236 128.768 346.236 129.144C346.236 129.528 346.312 129.868 346.464 130.164C346.624 130.452 346.844 130.68 347.124 130.848C347.404 131.016 347.724 131.1 348.084 131.1ZM349.8 132V130.464L350.004 129.072L349.8 127.692V126.3H350.892V132H349.8ZM356.496 132V128.676C356.496 128.244 356.36 127.888 356.088 127.608C355.816 127.328 355.464 127.188 355.032 127.188C354.744 127.188 354.488 127.252 354.264 127.38C354.04 127.508 353.864 127.684 353.736 127.908C353.608 128.132 353.544 128.388 353.544 128.676L353.1 128.424C353.1 127.992 353.196 127.608 353.388 127.272C353.58 126.936 353.848 126.672 354.192 126.48C354.536 126.28 354.924 126.18 355.356 126.18C355.788 126.18 356.168 126.288 356.496 126.504C356.832 126.72 357.096 127.004 357.288 127.356C357.48 127.7 357.576 128.068 357.576 128.46V132H356.496ZM352.464 132V126.3H353.544V132H352.464ZM361.402 134.508C360.818 134.508 360.298 134.4 359.842 134.184C359.394 133.968 359.034 133.664 358.762 133.272L359.458 132.564C359.69 132.86 359.966 133.084 360.286 133.236C360.606 133.396 360.986 133.476 361.426 133.476C362.01 133.476 362.47 133.32 362.806 133.008C363.15 132.704 363.322 132.292 363.322 131.772V130.356L363.514 129.072L363.322 127.8V126.3H364.402V131.772C364.402 132.316 364.274 132.792 364.018 133.2C363.77 133.608 363.418 133.928 362.962 134.16C362.514 134.392 361.994 134.508 361.402 134.508ZM361.402 131.904C360.882 131.904 360.414 131.78 359.998 131.532C359.59 131.284 359.266 130.944 359.026 130.512C358.786 130.072 358.666 129.58 358.666 129.036C358.666 128.492 358.786 128.008 359.026 127.584C359.266 127.152 359.59 126.812 359.998 126.564C360.414 126.308 360.882 126.18 361.402 126.18C361.85 126.18 362.246 126.268 362.59 126.444C362.934 126.62 363.206 126.868 363.406 127.188C363.614 127.5 363.726 127.868 363.742 128.292V129.804C363.718 130.22 363.602 130.588 363.394 130.908C363.194 131.22 362.922 131.464 362.578 131.64C362.234 131.816 361.842 131.904 361.402 131.904ZM361.618 130.884C361.97 130.884 362.278 130.808 362.542 130.656C362.814 130.504 363.022 130.292 363.166 130.02C363.31 129.74 363.382 129.416 363.382 129.048C363.382 128.68 363.306 128.36 363.154 128.088C363.01 127.808 362.806 127.592 362.542 127.44C362.278 127.28 361.966 127.2 361.606 127.2C361.246 127.2 360.93 127.28 360.658 127.44C360.386 127.592 360.17 127.808 360.01 128.088C359.858 128.36 359.782 128.676 359.782 129.036C359.782 129.396 359.858 129.716 360.01 129.996C360.17 130.276 360.386 130.496 360.658 130.656C360.938 130.808 361.258 130.884 361.618 130.884ZM370.895 132.12C370.367 132.12 369.895 131.992 369.479 131.736C369.063 131.472 368.731 131.116 368.483 130.668C368.243 130.22 368.123 129.716 368.123 129.156C368.123 128.596 368.243 128.092 368.483 127.644C368.731 127.196 369.063 126.84 369.479 126.576C369.895 126.312 370.367 126.18 370.895 126.18C371.319 126.18 371.703 126.272 372.047 126.456C372.391 126.632 372.667 126.88 372.875 127.2C373.091 127.512 373.211 127.876 373.235 128.292V130.008C373.211 130.416 373.095 130.78 372.887 131.1C372.679 131.42 372.403 131.672 372.059 131.856C371.715 132.032 371.327 132.12 370.895 132.12ZM371.075 131.1C371.435 131.1 371.747 131.016 372.011 130.848C372.283 130.68 372.495 130.452 372.647 130.164C372.799 129.868 372.875 129.532 372.875 129.156C372.875 128.764 372.795 128.424 372.635 128.136C372.483 127.848 372.271 127.62 371.999 127.452C371.735 127.284 371.423 127.2 371.063 127.2C370.703 127.2 370.387 127.284 370.115 127.452C369.843 127.62 369.627 127.852 369.467 128.148C369.315 128.436 369.239 128.768 369.239 129.144C369.239 129.528 369.315 129.868 369.467 130.164C369.627 130.452 369.843 130.68 370.115 130.848C370.395 131.016 370.715 131.1 371.075 131.1ZM373.895 132H372.803V130.464L373.007 129.072L372.803 127.692V123.432H373.895V132ZM375.48 132V126.3H376.56V132H375.48ZM376.02 125.16C375.82 125.16 375.656 125.096 375.528 124.968C375.4 124.832 375.336 124.664 375.336 124.464C375.336 124.272 375.4 124.112 375.528 123.984C375.656 123.848 375.82 123.78 376.02 123.78C376.22 123.78 376.384 123.848 376.512 123.984C376.64 124.112 376.704 124.272 376.704 124.464C376.704 124.664 376.64 124.832 376.512 124.968C376.384 125.096 376.22 125.16 376.02 125.16ZM380.563 132.12C380.035 132.12 379.563 131.992 379.147 131.736C378.731 131.472 378.399 131.116 378.151 130.668C377.911 130.22 377.791 129.716 377.791 129.156C377.791 128.596 377.911 128.092 378.151 127.644C378.399 127.196 378.731 126.84 379.147 126.576C379.563 126.312 380.035 126.18 380.563 126.18C380.987 126.18 381.371 126.272 381.715 126.456C382.059 126.632 382.335 126.88 382.543 127.2C382.759 127.512 382.879 127.876 382.903 128.292V130.008C382.879 130.416 382.763 130.78 382.555 131.1C382.347 131.42 382.071 131.672 381.727 131.856C381.383 132.032 380.995 132.12 380.563 132.12ZM380.743 131.1C381.103 131.1 381.415 131.016 381.679 130.848C381.951 130.68 382.163 130.452 382.315 130.164C382.467 129.868 382.543 129.532 382.543 129.156C382.543 128.764 382.463 128.424 382.303 128.136C382.151 127.848 381.939 127.62 381.667 127.452C381.403 127.284 381.091 127.2 380.731 127.2C380.371 127.2 380.055 127.284 379.783 127.452C379.511 127.62 379.295 127.852 379.135 128.148C378.983 128.436 378.907 128.768 378.907 129.144C378.907 129.528 378.983 129.868 379.135 130.164C379.295 130.452 379.511 130.68 379.783 130.848C380.063 131.016 380.383 131.1 380.743 131.1ZM383.563 132H382.471V130.464L382.675 129.072L382.471 127.692V123.432H383.563V132ZM387.428 132.12C386.964 132.12 386.544 132.016 386.168 131.808C385.8 131.592 385.512 131.296 385.304 130.92C385.096 130.544 384.992 130.108 384.992 129.612V126.3H386.072V129.564C386.072 129.876 386.124 130.148 386.228 130.38C386.34 130.604 386.5 130.776 386.708 130.896C386.916 131.016 387.16 131.076 387.44 131.076C387.864 131.076 388.196 130.944 388.436 130.68C388.676 130.408 388.796 130.036 388.796 129.564V126.3H389.876V129.612C389.876 130.108 389.772 130.544 389.564 130.92C389.356 131.296 389.068 131.592 388.7 131.808C388.34 132.016 387.916 132.12 387.428 132.12ZM394.971 132L392.307 129.084L394.947 126.3H396.255L393.315 129.372L393.363 128.748L396.363 132H394.971ZM391.323 132V123.432H392.403V132H391.323ZM399.381 132.12C398.917 132.12 398.497 132.016 398.121 131.808C397.753 131.592 397.465 131.296 397.257 130.92C397.049 130.544 396.945 130.108 396.945 129.612V126.3H398.025V129.564C398.025 129.876 398.077 130.148 398.181 130.38C398.293 130.604 398.453 130.776 398.661 130.896C398.869 131.016 399.113 131.076 399.393 131.076C399.817 131.076 400.149 130.944 400.389 130.68C400.629 130.408 400.749 130.036 400.749 129.564V126.3H401.829V129.612C401.829 130.108 401.725 130.544 401.517 130.92C401.309 131.296 401.021 131.592 400.653 131.808C400.293 132.016 399.869 132.12 399.381 132.12ZM407.308 132V128.676C407.308 128.244 407.172 127.888 406.9 127.608C406.628 127.328 406.276 127.188 405.844 127.188C405.556 127.188 405.3 127.252 405.076 127.38C404.852 127.508 404.676 127.684 404.548 127.908C404.42 128.132 404.356 128.388 404.356 128.676L403.912 128.424C403.912 127.992 404.008 127.608 404.2 127.272C404.392 126.936 404.66 126.672 405.004 126.48C405.348 126.28 405.736 126.18 406.168 126.18C406.6 126.18 406.98 126.288 407.308 126.504C407.644 126.72 407.908 127.004 408.1 127.356C408.292 127.7 408.388 128.068 408.388 128.46V132H407.308ZM403.276 132V126.3H404.356V132H403.276ZM412.215 134.508C411.631 134.508 411.111 134.4 410.655 134.184C410.207 133.968 409.847 133.664 409.575 133.272L410.271 132.564C410.503 132.86 410.779 133.084 411.099 133.236C411.419 133.396 411.799 133.476 412.239 133.476C412.823 133.476 413.283 133.32 413.619 133.008C413.963 132.704 414.135 132.292 414.135 131.772V130.356L414.327 129.072L414.135 127.8V126.3H415.215V131.772C415.215 132.316 415.087 132.792 414.831 133.2C414.583 133.608 414.231 133.928 413.775 134.16C413.327 134.392 412.807 134.508 412.215 134.508ZM412.215 131.904C411.695 131.904 411.227 131.78 410.811 131.532C410.403 131.284 410.079 130.944 409.839 130.512C409.599 130.072 409.479 129.58 409.479 129.036C409.479 128.492 409.599 128.008 409.839 127.584C410.079 127.152 410.403 126.812 410.811 126.564C411.227 126.308 411.695 126.18 412.215 126.18C412.663 126.18 413.059 126.268 413.403 126.444C413.747 126.62 414.019 126.868 414.219 127.188C414.427 127.5 414.539 127.868 414.555 128.292V129.804C414.531 130.22 414.415 130.588 414.207 130.908C414.007 131.22 413.735 131.464 413.391 131.64C413.047 131.816 412.655 131.904 412.215 131.904ZM412.431 130.884C412.783 130.884 413.091 130.808 413.355 130.656C413.627 130.504 413.835 130.292 413.979 130.02C414.123 129.74 414.195 129.416 414.195 129.048C414.195 128.68 414.119 128.36 413.967 128.088C413.823 127.808 413.619 127.592 413.355 127.44C413.091 127.28 412.779 127.2 412.419 127.2C412.059 127.2 411.743 127.28 411.471 127.44C411.199 127.592 410.983 127.808 410.823 128.088C410.671 128.36 410.595 128.676 410.595 129.036C410.595 129.396 410.671 129.716 410.823 129.996C410.983 130.276 411.199 130.496 411.471 130.656C411.751 130.808 412.071 130.884 412.431 130.884ZM420.244 128.76V127.776H422.512C422.824 127.776 423.1 127.712 423.34 127.584C423.588 127.456 423.78 127.276 423.916 127.044C424.06 126.812 424.132 126.536 424.132 126.216C424.132 125.896 424.06 125.62 423.916 125.388C423.78 125.156 423.588 124.976 423.34 124.848C423.1 124.72 422.824 124.656 422.512 124.656H420.244V123.672H422.584C423.096 123.672 423.552 123.776 423.952 123.984C424.36 124.192 424.68 124.488 424.912 124.872C425.152 125.248 425.272 125.696 425.272 126.216C425.272 126.728 425.152 127.176 424.912 127.56C424.68 127.936 424.36 128.232 423.952 128.448C423.552 128.656 423.096 128.76 422.584 128.76H420.244ZM419.488 132V123.672H420.616V132H419.488ZM426.672 132V123.672H427.464L427.8 124.98V132H426.672ZM432.432 132L427.32 125.172L427.464 123.672L432.588 130.488L432.432 132ZM432.432 132L432.096 130.764V123.672H433.224V132H432.432ZM438.959 132.12C438.375 132.12 437.827 132.012 437.315 131.796C436.811 131.572 436.367 131.264 435.983 130.872C435.607 130.48 435.311 130.024 435.095 129.504C434.879 128.984 434.771 128.424 434.771 127.824C434.771 127.224 434.879 126.668 435.095 126.156C435.311 125.636 435.611 125.18 435.995 124.788C436.379 124.396 436.827 124.092 437.339 123.876C437.859 123.66 438.423 123.552 439.031 123.552C439.695 123.552 440.307 123.68 440.867 123.936C441.427 124.192 441.895 124.56 442.271 125.04L441.491 125.82C441.227 125.436 440.879 125.144 440.447 124.944C440.015 124.736 439.543 124.632 439.031 124.632C438.423 124.632 437.883 124.768 437.411 125.04C436.947 125.312 436.583 125.688 436.319 126.168C436.063 126.648 435.935 127.2 435.935 127.824C435.935 128.456 436.067 129.012 436.331 129.492C436.595 129.972 436.951 130.348 437.399 130.62C437.847 130.892 438.359 131.028 438.935 131.028C439.519 131.028 440.023 130.916 440.447 130.692C440.879 130.468 441.211 130.14 441.443 129.708C441.675 129.268 441.791 128.732 441.791 128.1L442.475 128.592H438.875V127.56H442.955V127.728C442.955 128.696 442.783 129.508 442.439 130.164C442.103 130.812 441.631 131.3 441.023 131.628C440.423 131.956 439.735 132.12 438.959 132.12ZM443.836 133.32L444.58 131.892L444.964 131.796C444.924 131.884 444.872 131.956 444.808 132.012C444.752 132.068 444.68 132.096 444.592 132.096C444.424 132.096 444.268 132.028 444.124 131.892C443.988 131.748 443.92 131.572 443.92 131.364C443.92 131.132 443.996 130.94 444.148 130.788C444.3 130.628 444.492 130.548 444.724 130.548C444.932 130.548 445.116 130.628 445.276 130.788C445.436 130.94 445.516 131.132 445.516 131.364C445.516 131.452 445.496 131.56 445.456 131.688C445.424 131.808 445.356 131.964 445.252 132.156L444.46 133.656L443.836 133.32ZM450.965 132.12C450.485 132.12 450.061 132.028 449.693 131.844C449.333 131.652 449.037 131.396 448.805 131.076L449.597 130.344C449.749 130.568 449.937 130.74 450.161 130.86C450.393 130.98 450.649 131.04 450.929 131.04C451.209 131.04 451.457 130.98 451.673 130.86C451.889 130.74 452.057 130.564 452.177 130.332C452.305 130.092 452.369 129.8 452.369 129.456V123.672H453.497V129.396C453.497 129.948 453.385 130.428 453.161 130.836C452.945 131.244 452.645 131.56 452.261 131.784C451.885 132.008 451.453 132.12 450.965 132.12ZM456.127 128.76V127.776H458.395C458.707 127.776 458.983 127.712 459.223 127.584C459.471 127.456 459.663 127.276 459.799 127.044C459.943 126.812 460.015 126.536 460.015 126.216C460.015 125.896 459.943 125.62 459.799 125.388C459.663 125.156 459.471 124.976 459.223 124.848C458.983 124.72 458.707 124.656 458.395 124.656H456.127V123.672H458.467C458.979 123.672 459.435 123.776 459.835 123.984C460.243 124.192 460.563 124.488 460.795 124.872C461.035 125.248 461.155 125.696 461.155 126.216C461.155 126.728 461.035 127.176 460.795 127.56C460.563 127.936 460.243 128.232 459.835 128.448C459.435 128.656 458.979 128.76 458.467 128.76H456.127ZM455.371 132V123.672H456.499V132H455.371ZM462.554 132V123.672H463.682V132H462.554ZM463.322 132V130.968H468.098V132H463.322ZM463.322 128.232V127.248H467.702V128.232H463.322ZM463.322 124.704V123.672H468.038V124.704H463.322ZM473.225 132.12C472.641 132.12 472.093 132.012 471.581 131.796C471.077 131.572 470.633 131.264 470.249 130.872C469.873 130.48 469.577 130.024 469.361 129.504C469.145 128.984 469.037 128.424 469.037 127.824C469.037 127.224 469.145 126.668 469.361 126.156C469.577 125.636 469.877 125.18 470.261 124.788C470.645 124.396 471.093 124.092 471.605 123.876C472.125 123.66 472.689 123.552 473.297 123.552C473.961 123.552 474.573 123.68 475.133 123.936C475.693 124.192 476.161 124.56 476.537 125.04L475.757 125.82C475.493 125.436 475.145 125.144 474.713 124.944C474.281 124.736 473.809 124.632 473.297 124.632C472.689 124.632 472.149 124.768 471.677 125.04C471.213 125.312 470.849 125.688 470.585 126.168C470.329 126.648 470.201 127.2 470.201 127.824C470.201 128.456 470.333 129.012 470.597 129.492C470.861 129.972 471.217 130.348 471.665 130.62C472.113 130.892 472.625 131.028 473.201 131.028C473.785 131.028 474.289 130.916 474.713 130.692C475.145 130.468 475.477 130.14 475.709 129.708C475.941 129.268 476.057 128.732 476.057 128.1L476.741 128.592H473.141V127.56H477.221V127.728C477.221 128.696 477.049 129.508 476.705 130.164C476.369 130.812 475.897 131.3 475.289 131.628C474.689 131.956 474.001 132.12 473.225 132.12Z" fill="#AEAEAE"/>
</svg>
