<svg width="20" height="21" viewBox="0 0 20 21" fill="none" xmlns="http://www.w3.org/2000/svg">
<g clip-path="url(#clip0_428_73566)">
<path d="M13.3375 2.0156H11.8741C11.6915 2.00995 11.5346 1.8844 11.489 1.70755C11.3504 0.987123 10.7076 0.475043 9.97438 0.50094C9.23675 0.488016 8.59711 1.0084 8.45971 1.73325C8.41224 1.90524 8.25289 2.02209 8.07461 2.01565H6.6626V4.58293H13.3375V2.0156Z" fill="white"/>
<path d="M17.4447 19.3187V4.60816C17.4462 4.02685 16.9762 3.55432 16.3949 3.55275C16.3683 3.5527 16.3416 3.55364 16.315 3.55555H14.1072V4.86487C14.1072 5.07027 13.9788 5.35267 13.7734 5.35267H6.19999C5.99459 5.35267 5.89193 5.07027 5.89193 4.86487V3.5556H3.68406C3.10432 3.51305 2.5998 3.94857 2.5573 4.52836C2.55533 4.55495 2.5544 4.58158 2.5545 4.60821V19.3187C2.54015 19.9566 3.04564 20.4853 3.68352 20.4996C3.68332 20.4996 3.68372 20.4996 3.68352 20.4996H16.3151C16.953 20.4856 17.4587 19.9566 17.4447 19.3187C17.4447 19.3189 17.4447 19.3185 17.4447 19.3187ZM7.92006 15.9299L5.91758 17.804C5.85356 17.8806 5.76054 17.9271 5.66088 17.9323C5.55361 17.9281 5.45224 17.882 5.37848 17.804L4.32592 16.7257C4.18602 16.5691 4.19747 16.3292 4.35157 16.1866C4.50129 16.0398 4.74095 16.0398 4.89067 16.1866L5.66083 17.0081L7.4066 15.3651C7.58163 15.2443 7.82148 15.2882 7.94227 15.4632C8.04084 15.606 8.0317 15.7971 7.92006 15.9299ZM7.92006 11.8222L5.91758 13.6963C5.85356 13.773 5.76054 13.8194 5.66088 13.8247C5.55361 13.8205 5.45224 13.7744 5.37848 13.6963L4.32592 12.6181C4.18602 12.4614 4.19747 12.2216 4.35157 12.079C4.50129 11.9322 4.74095 11.9322 4.89067 12.079L5.66083 12.9005L7.4066 11.2574C7.58163 11.1366 7.82148 11.1806 7.94227 11.3556C8.04084 11.4984 8.0317 11.6894 7.92006 11.8222ZM7.92006 7.71455L5.91758 9.58867C5.85356 9.66528 5.76054 9.71176 5.66088 9.71702C5.55361 9.71279 5.45224 9.6667 5.37848 9.58867L4.32592 8.51042C4.18602 8.35375 4.19747 8.1139 4.35157 7.9713C4.50129 7.82452 4.74095 7.82452 4.89067 7.9713L5.66083 8.79281L7.4066 7.14974C7.58163 7.02896 7.82148 7.0729 7.94227 7.24793C8.04084 7.39073 8.0317 7.58177 7.92006 7.71455ZM15.3908 17.4189H9.48607C9.2734 17.4189 9.10097 17.2465 9.10097 17.0338C9.10097 16.8211 9.2734 16.6487 9.48607 16.6487H15.3908C15.6035 16.6487 15.7759 16.8211 15.7759 17.0338C15.7759 17.2465 15.6035 17.4189 15.3908 17.4189ZM15.3908 13.3112H9.48607C9.2734 13.3112 9.10097 13.1388 9.10097 12.9261C9.10097 12.7135 9.2734 12.541 9.48607 12.541H15.3908C15.6035 12.541 15.7759 12.7135 15.7759 12.9261C15.7759 13.1388 15.6035 13.3112 15.3908 13.3112ZM15.3908 9.20356H9.48607C9.2734 9.20356 9.10097 9.03114 9.10097 8.81846C9.10097 8.60579 9.2734 8.43336 9.48607 8.43336H15.3908C15.6035 8.43336 15.7759 8.60579 15.7759 8.81846C15.7759 9.03118 15.6035 9.20356 15.3908 9.20356Z" fill="white"/>
</g>
<defs>
<clipPath id="clip0_428_73566">
<rect width="20" height="20" fill="white" transform="translate(0 0.5)"/>
</clipPath>
</defs>
</svg>
