<svg width="20" height="22" viewBox="0 0 20 22" fill="none" xmlns="http://www.w3.org/2000/svg">
<path fill-rule="evenodd" clip-rule="evenodd" d="M10.0001 0.5C9.60225 0.5 9.22072 0.658035 8.93941 0.93934C8.65811 1.22064 8.50007 1.60218 8.50007 2V2.15C6.80602 2.4958 5.28348 3.41627 4.19011 4.75565C3.09675 6.09502 2.49972 7.77102 2.50007 9.5V15.5L0.692571 17.492C-0.181929 18.4565 0.502071 20 1.80257 20H7.40207C7.66539 20.456 8.04409 20.8347 8.50014 21.098C8.95618 21.3613 9.47349 21.4999 10.0001 21.4999C10.5267 21.4999 11.044 21.3613 11.5 21.098C11.956 20.8347 12.3348 20.456 12.5981 20H18.1976C19.4981 20 20.1821 18.455 19.3076 17.492L17.5001 15.5V9.5C17.5004 7.77102 16.9034 6.09502 15.81 4.75565C14.7167 3.41627 13.1941 2.4958 11.5001 2.15V2C11.5001 1.60218 11.342 1.22064 11.0607 0.93934C10.7794 0.658035 10.3979 0.5 10.0001 0.5ZM4.75007 16.37L4.16507 17.012L3.49607 17.75H16.5041L15.8336 17.012L15.2501 16.3685V9.5C15.2501 8.81056 15.1143 8.12787 14.8504 7.49091C14.5866 6.85395 14.1999 6.2752 13.7124 5.78769C13.2249 5.30018 12.6461 4.91347 12.0092 4.64963C11.3722 4.3858 10.6895 4.25 10.0001 4.25C9.31063 4.25 8.62794 4.3858 7.99098 4.64963C7.35402 4.91347 6.77527 5.30018 6.28776 5.78769C5.80025 6.2752 5.41354 6.85395 5.1497 7.49091C4.88587 8.12787 4.75007 8.81056 4.75007 9.5V16.37Z" fill="black"/>
</svg>
