<svg width="20" height="21" viewBox="0 0 20 21" fill="none" xmlns="http://www.w3.org/2000/svg">
<path d="M6.03268 2.16602H4.44935C2.62435 2.16602 1.66602 3.12435 1.66602 4.94102V6.52435C1.66602 8.34102 2.62435 9.29935 4.44102 9.29935H6.02435C7.84102 9.29935 8.79935 8.34102 8.79935 6.52435V4.94102C8.80768 3.12435 7.84935 2.16602 6.03268 2.16602Z" fill="white"/>
<path d="M15.5576 2.16602H13.9742C12.1576 2.16602 11.1992 3.12435 11.1992 4.94102V6.52435C11.1992 8.34102 12.1576 9.29935 13.9742 9.29935H15.5576C17.3742 9.29935 18.3326 8.34102 18.3326 6.52435V4.94102C18.3326 3.12435 17.3742 2.16602 15.5576 2.16602Z" fill="white"/>
<path d="M15.5576 11.6914H13.9742C12.1576 11.6914 11.1992 12.6497 11.1992 14.4664V16.0497C11.1992 17.8664 12.1576 18.8247 13.9742 18.8247H15.5576C17.3742 18.8247 18.3326 17.8664 18.3326 16.0497V14.4664C18.3326 12.6497 17.3742 11.6914 15.5576 11.6914Z" fill="white"/>
<path d="M6.03268 11.6914H4.44935C2.62435 11.6914 1.66602 12.6497 1.66602 14.4664V16.0497C1.66602 17.8747 2.62435 18.8331 4.44102 18.8331H6.02435C7.84102 18.8331 8.79935 17.8747 8.79935 16.0581V14.4747C8.80768 12.6497 7.84935 11.6914 6.03268 11.6914Z" fill="white"/>
</svg>
