<svg width="14" height="14" viewBox="0 0 14 14" fill="none" xmlns="http://www.w3.org/2000/svg">
<path d="M13.5139 1.60796C13.758 1.36388 13.758 0.968152 13.5139 0.724074C13.2698 0.479996 12.8741 0.479996 12.63 0.724074L7.23862 6.11548L1.84722 0.724076C1.60314 0.479999 1.20741 0.479999 0.963332 0.724076C0.719254 0.968154 0.719254 1.36388 0.963332 1.60796L6.35473 6.99936L0.963354 12.3907C0.719276 12.6348 0.719276 13.0305 0.963354 13.2746C1.20743 13.5187 1.60316 13.5187 1.84724 13.2746L7.23862 7.88324L12.63 13.2746C12.8741 13.5187 13.2698 13.5187 13.5139 13.2746C13.758 13.0305 13.758 12.6348 13.5139 12.3907L8.1225 6.99936L13.5139 1.60796Z" fill="#354EBC"/>
</svg>
