<svg width="20" height="21" viewBox="0 0 20 21" fill="none" xmlns="http://www.w3.org/2000/svg">
<path d="M13.3337 11.2501V14.7501C13.3337 17.6667 12.167 18.8334 9.25033 18.8334H5.75033C2.83366 18.8334 1.66699 17.6667 1.66699 14.7501V11.2501C1.66699 8.33341 2.83366 7.16675 5.75033 7.16675H9.25033C12.167 7.16675 13.3337 8.33341 13.3337 11.2501Z" fill="#D0D6FA"/>
<path opacity="0.4" d="M14.2503 2.1665H10.7503C7.87529 2.1665 6.70863 3.30817 6.67529 6.12484H9.25029C12.7503 6.12484 14.3753 7.74984 14.3753 11.2498V13.8248C17.192 13.7915 18.3336 12.6248 18.3336 9.74984V6.24984C18.3336 3.33317 17.167 2.1665 14.2503 2.1665Z" fill="#D0D6FA"/>
</svg>
