<svg width="12" height="12" viewBox="0 0 12 12" fill="none" xmlns="http://www.w3.org/2000/svg">
<path d="M0.666667 6.66703H4.66667C4.84348 6.66703 5.01305 6.59679 5.13807 6.47177C5.26309 6.34675 5.33333 6.17718 5.33333 6.00037V0.667033C5.33333 0.490222 5.26309 0.320653 5.13807 0.195628C5.01305 0.0706041 4.84348 0.000366211 4.66667 0.000366211H0.666667C0.489856 0.000366211 0.320286 0.0706041 0.195262 0.195628C0.0702379 0.320653 0 0.490222 0 0.667033V6.00037C0 6.17718 0.0702379 6.34675 0.195262 6.47177C0.320286 6.59679 0.489856 6.66703 0.666667 6.66703ZM0 11.3337C0 11.5105 0.0702379 11.6801 0.195262 11.8051C0.320286 11.9301 0.489856 12.0004 0.666667 12.0004H4.66667C4.84348 12.0004 5.01305 11.9301 5.13807 11.8051C5.26309 11.6801 5.33333 11.5105 5.33333 11.3337V8.66703C5.33333 8.49022 5.26309 8.32065 5.13807 8.19563C5.01305 8.0706 4.84348 8.00037 4.66667 8.00037H0.666667C0.489856 8.00037 0.320286 8.0706 0.195262 8.19563C0.0702379 8.32065 0 8.49022 0 8.66703V11.3337ZM6.66667 11.3337C6.66667 11.5105 6.7369 11.6801 6.86193 11.8051C6.98695 11.9301 7.15652 12.0004 7.33333 12.0004H11.3333C11.5101 12.0004 11.6797 11.9301 11.8047 11.8051C11.9298 11.6801 12 11.5105 12 11.3337V6.66703C12 6.49022 11.9298 6.32065 11.8047 6.19563C11.6797 6.0706 11.5101 6.00037 11.3333 6.00037H7.33333C7.15652 6.00037 6.98695 6.0706 6.86193 6.19563C6.7369 6.32065 6.66667 6.49022 6.66667 6.66703V11.3337ZM7.33333 4.66703H11.3333C11.5101 4.66703 11.6797 4.59679 11.8047 4.47177C11.9298 4.34675 12 4.17718 12 4.00037V0.667033C12 0.490222 11.9298 0.320653 11.8047 0.195628C11.6797 0.0706041 11.5101 0.000366211 11.3333 0.000366211H7.33333C7.15652 0.000366211 6.98695 0.0706041 6.86193 0.195628C6.7369 0.320653 6.66667 0.490222 6.66667 0.667033V4.00037C6.66667 4.17718 6.7369 4.34675 6.86193 4.47177C6.98695 4.59679 7.15652 4.66703 7.33333 4.66703Z" fill="white"/>
</svg>
