<svg width="18" height="19" viewBox="0 0 18 19" fill="none" xmlns="http://www.w3.org/2000/svg">
<path d="M4.625 0C4.79076 0 4.94973 0.065848 5.06694 0.183058C5.18415 0.300268 5.25 0.45924 5.25 0.625V2.5H12.75V0.625C12.75 0.45924 12.8158 0.300268 12.9331 0.183058C13.0503 0.065848 13.2092 0 13.375 0C13.5408 0 13.6997 0.065848 13.8169 0.183058C13.9342 0.300268 14 0.45924 14 0.625V2.5H16.2917C17.0967 2.5 17.75 3.15333 17.75 3.95833V17.2917C17.75 17.6784 17.5964 18.0494 17.3229 18.3229C17.0494 18.5964 16.6784 18.75 16.2917 18.75H1.70833C1.32156 18.75 0.950627 18.5964 0.677136 18.3229C0.403645 18.0494 0.25 17.6784 0.25 17.2917V3.95833C0.25 3.15333 0.903333 2.5 1.70833 2.5H4V0.625C4 0.45924 4.06585 0.300268 4.18306 0.183058C4.30027 0.065848 4.45924 0 4.625 0ZM16.5 7.91667H1.5V17.2917C1.5 17.4067 1.59333 17.5 1.70833 17.5H16.2917C16.3469 17.5 16.3999 17.4781 16.439 17.439C16.4781 17.3999 16.5 17.3469 16.5 17.2917V7.91667ZM1.70833 3.75C1.65308 3.75 1.60009 3.77195 1.56102 3.81102C1.52195 3.85009 1.5 3.90308 1.5 3.95833V6.66667H16.5V3.95833C16.5 3.90308 16.4781 3.85009 16.439 3.81102C16.3999 3.77195 16.3469 3.75 16.2917 3.75H1.70833Z" fill="#AEAEAE"/>
</svg>
