<svg width="25" height="24" viewBox="0 0 25 24" fill="none" xmlns="http://www.w3.org/2000/svg">
<path d="M15.9672 2.21048C15.5572 1.80048 14.8472 2.08048 14.8472 2.65048V6.14048C14.8472 7.60048 16.0872 8.81048 17.5972 8.81048C18.5472 8.82048 19.8672 8.82048 20.9972 8.82048C21.5672 8.82048 21.8672 8.15048 21.4672 7.75048C20.0272 6.30048 17.4472 3.69048 15.9672 2.21048Z" fill="white"/>
<path d="M20.667 10.19H17.777C15.407 10.19 13.477 8.26 13.477 5.89V3C13.477 2.45 13.027 2 12.477 2H8.23699C5.15699 2 2.66699 4 2.66699 7.57V16.43C2.66699 20 5.15699 22 8.23699 22H16.097C19.177 22 21.667 20 21.667 16.43V11.19C21.667 10.64 21.217 10.19 20.667 10.19ZM11.667 17.75H7.66699C7.25699 17.75 6.91699 17.41 6.91699 17C6.91699 16.59 7.25699 16.25 7.66699 16.25H11.667C12.077 16.25 12.417 16.59 12.417 17C12.417 17.41 12.077 17.75 11.667 17.75ZM13.667 13.75H7.66699C7.25699 13.75 6.91699 13.41 6.91699 13C6.91699 12.59 7.25699 12.25 7.66699 12.25H13.667C14.077 12.25 14.417 12.59 14.417 13C14.417 13.41 14.077 13.75 13.667 13.75Z" fill="white"/>
</svg>
