<svg xmlns="http://www.w3.org/2000/svg" width="17" height="18" viewBox="0 0 17 18" fill="none">
  <path fill-rule="evenodd" clip-rule="evenodd" d="M16.4999 8.96087C16.4999 8.96087 13.472 2.97492 8.47201 2.99822C3.47206 3.02151 0.500056 9.03543 0.500056 9.03543C0.500056 9.03543 3.52798 15.0214 8.52793 14.9981C13.5279 14.9748 16.4999 8.96087 16.4999 8.96087ZM14.6905 9.09931L14.7699 8.96893L14.6873 8.83932C14.3589 8.33084 13.8758 7.65609 13.2587 6.98995C11.9903 5.61685 10.359 4.48944 8.479 4.4982C6.60102 4.50695 4.97833 5.64952 3.72077 7.0344C3.16442 7.65212 2.66545 8.31919 2.23004 9.02737C2.674 9.7306 3.17975 10.3929 3.74127 11.0063C5.00969 12.3795 6.64096 13.5069 8.52094 13.4981C10.3989 13.4894 12.0216 12.3468 13.2792 10.9619C13.8018 10.3824 14.274 9.75923 14.6905 9.09931ZM5.5 9.01213C5.50313 9.64365 5.70547 10.2581 6.0782 10.7679C6.45094 11.2777 6.97504 11.6569 7.57586 11.8514C8.17668 12.0459 8.82356 12.0459 9.42436 11.8513C10.0252 11.6567 10.5492 11.2775 10.9219 10.7676C11.2946 10.2578 11.4969 9.64334 11.4999 9.01182C11.503 8.3803 11.3067 7.76392 10.939 7.25049C10.5713 6.73705 10.0509 6.35276 9.45203 6.15234C8.85315 5.95192 8.20629 5.94561 7.60361 6.1343C7.82509 6.23328 8.01925 6.38449 8.16945 6.57498C8.31966 6.76547 8.42142 6.98955 8.46602 7.228C8.51061 7.46645 8.49671 7.71216 8.4255 7.94406C8.35429 8.17596 8.2279 8.38713 8.05717 8.55946C7.88644 8.73179 7.67646 8.86014 7.44523 8.93351C7.21401 9.00687 6.96844 9.02307 6.72958 8.98069C6.49073 8.93832 6.26571 8.83865 6.07383 8.69023C5.88195 8.54181 5.72892 8.34906 5.62789 8.12852C5.54142 8.41503 5.49832 8.71286 5.5 9.01213Z" fill="#28A745"/>
</svg>