<svg width="22" height="22" viewBox="0 0 22 22" fill="none" xmlns="http://www.w3.org/2000/svg">
<g id="fa-regular:eye">
<path id="Vector" d="M11 6.1875C10.5952 6.19462 10.1934 6.26697 9.80679 6.40234C9.9856 6.75611 10.0808 7.15555 10.0833 7.5625C10.0833 7.87849 10.028 8.19139 9.9205 8.48333C9.81301 8.77527 9.65546 9.04053 9.45685 9.26398C9.25823 9.48742 9.02244 9.66466 8.76294 9.78559C8.50344 9.90651 8.22531 9.96875 7.94442 9.96875C7.58269 9.96593 7.22764 9.85882 6.91317 9.65766C6.66507 10.6257 6.69399 11.6569 6.99583 12.6054C7.29766 13.5539 7.85711 14.3715 8.59494 14.9424C9.33276 15.5133 10.2116 15.8086 11.1068 15.7864C12.0021 15.7642 12.8685 15.4257 13.5833 14.8188C14.298 14.2119 14.8249 13.3673 15.0893 12.4048C15.3537 11.4423 15.3423 10.4106 15.0565 9.45582C14.7707 8.50105 14.2252 7.67164 13.4972 7.08505C12.7691 6.49847 11.8955 6.18446 11 6.1875ZM21.8671 10.3727C19.7958 5.82613 15.6952 2.75 11 2.75C6.30474 2.75 2.20303 5.82828 0.132896 10.3731C0.0455229 10.5675 0 10.7823 0 11.0002C0 11.2181 0.0455229 11.4329 0.132896 11.6273C2.20418 16.1739 6.30474 19.25 11 19.25C15.6952 19.25 19.7969 16.1717 21.8671 11.6269C21.9544 11.4325 22 11.2177 22 10.9998C22 10.7819 21.9544 10.5671 21.8671 10.3727ZM11 17.1875C7.2321 17.1875 3.77779 14.8242 1.91238 11C3.77779 7.17578 7.23172 4.8125 11 4.8125C14.7682 4.8125 18.2222 7.17578 20.0876 11C18.2225 14.8242 14.7682 17.1875 11 17.1875Z" fill="black"/>
</g>
</svg>
