<svg xmlns="http://www.w3.org/2000/svg" width="16" height="17" viewBox="0 0 16 17" fill="none">
  <path d="M10.7601 2.47532L4.74008 4.47532C0.693412 5.82865 0.693412 8.03532 4.74008 9.38198L6.52674 9.97532L7.12008 11.762C8.46674 15.8086 10.6801 15.8086 12.0267 11.762L14.0334 5.74865C14.9267 3.04865 13.4601 1.57532 10.7601 2.47532ZM10.9734 6.06198L8.44008 8.60865C8.34008 8.70865 8.21341 8.75532 8.08674 8.75532C7.96008 8.75532 7.83341 8.70865 7.73341 8.60865C7.54008 8.41532 7.54008 8.09532 7.73341 7.90198L10.2667 5.35532C10.4601 5.16198 10.7801 5.16198 10.9734 5.35532C11.1667 5.54865 11.1667 5.86865 10.9734 6.06198Z" fill="black"/>
</svg>