<svg width="16" height="16" viewBox="0 0 16 16" fill="none" xmlns="http://www.w3.org/2000/svg">
<path d="M3.5 0.5C1.84315 0.5 0.5 1.84315 0.5 3.5V7.25H8.43934L6.71967 5.53033C6.42678 5.23744 6.42678 4.76256 6.71967 4.46967C7.01256 4.17678 7.48744 4.17678 7.78033 4.46967L10.7803 7.46967C11.0732 7.76256 11.0732 8.23744 10.7803 8.53033L7.78033 11.5303C7.48744 11.8232 7.01256 11.8232 6.71967 11.5303C6.42678 11.2374 6.42678 10.7626 6.71967 10.4697L8.43934 8.75H0.5V12.5C0.5 14.1569 1.84315 15.5 3.5 15.5H12.5C14.1569 15.5 15.5 14.1569 15.5 12.5V3.5C15.5 1.84315 14.1569 0.5 12.5 0.5H3.5Z" fill="white"/>
</svg>
