<svg width="20" height="21" viewBox="0 0 20 21" fill="none" xmlns="http://www.w3.org/2000/svg">
<path d="M6.63133 15.1954C7.52574 15.9237 8.73729 16.3328 10.0004 16.3328C11.2635 16.3328 12.475 15.9237 13.3694 15.1954C14.2613 14.4649 14.7621 13.4755 14.7621 12.444C14.7621 11.4125 14.2613 10.4231 13.3694 9.69262L6.63133 15.1954ZM17.1432 0.787066L2.85751 0.777344C1.53609 0.777344 0.476562 1.64262 0.476562 2.72178V18.2774C0.476562 19.3565 1.53609 20.2218 2.85751 20.2218H17.1432C18.4646 20.2218 19.5242 19.3565 19.5242 18.2774V2.72178C19.5242 1.64262 18.4646 0.787066 17.1432 0.787066ZM7.61941 2.72178C8.27419 2.72178 8.8099 3.15928 8.8099 3.69401C8.8099 4.22873 8.27419 4.66623 7.61941 4.66623C6.96466 4.66623 6.42894 4.22873 6.42894 3.69401C6.42894 3.15928 6.96466 2.72178 7.61941 2.72178ZM4.04799 2.72178C4.70276 2.72178 5.23847 3.15928 5.23847 3.69401C5.23847 4.22873 4.70276 4.66623 4.04799 4.66623C3.39323 4.66623 2.85751 4.22873 2.85751 3.69401C2.85751 3.15928 3.39323 2.72178 4.04799 2.72178ZM10.0004 18.2774C6.0599 18.2774 2.85751 15.662 2.85751 12.444C2.85751 9.22595 6.0599 6.61068 10.0004 6.61068C13.9408 6.61068 17.1432 9.22595 17.1432 12.444C17.1432 15.662 13.9408 18.2774 10.0004 18.2774Z" fill="white"/>
</svg>
