<svg width="14" height="14" viewBox="0 0 14 14" fill="none" xmlns="http://www.w3.org/2000/svg">
<path d="M12.5058 1.49387C10.8471 -0.164804 8.14841 -0.164778 6.48974 1.4939C5.35677 2.62686 4.96324 4.29649 5.45381 5.81128L0.663053 10.6021C0.59053 10.6746 0.549744 10.7728 0.549744 10.8755V13.0633C0.549744 13.277 0.722711 13.45 0.936465 13.45H3.12423C3.22694 13.45 3.32514 13.4092 3.39764 13.3367L3.94449 12.7894C4.02794 12.706 4.06873 12.5889 4.05514 12.4715L3.98716 11.8838L4.80139 11.8071C4.98645 11.7898 5.1326 11.6436 5.14998 11.4586L5.22665 10.6443L5.81429 10.7127C5.92342 10.7274 6.03333 10.6908 6.11603 10.6175C6.19835 10.5439 6.24556 10.4389 6.24556 10.3286V9.60856H6.95254C7.05525 9.60856 7.15345 9.56777 7.22595 9.49525L8.21769 8.51663C9.73209 9.00759 11.3728 8.64371 12.5058 7.50997C14.1645 5.85132 14.1645 3.15255 12.5058 1.49387ZM11.4118 4.22851C10.9593 4.68095 10.2237 4.68095 9.77122 4.22851C9.31879 3.77607 9.31879 3.0404 9.77122 2.58796C10.2237 2.13552 10.9593 2.13552 11.4118 2.58796C11.8642 3.0404 11.8642 3.77607 11.4118 4.22851Z" fill="white"/>
</svg>
