<svg width="118" height="86" viewBox="0 0 118 86" fill="none" xmlns="http://www.w3.org/2000/svg">
<path d="M33.9258 31.875L47.8176 13.125H70.6589L84.5508 31.875H74.2383L66.7383 39.375H51.7383L44.2383 31.875H33.9258ZM45.7027 9.375L29.2383 31.875V50.625H89.2383V31.875L72.7739 9.375H45.7027Z" fill="#D9D9D9"/>
<path d="M37.2305 83H35.7745L29.9185 74.12V83H28.4625V71.832H29.9185L35.7745 80.696V71.832H37.2305V83ZM43.5365 83.144C42.7151 83.144 41.9685 82.9573 41.2965 82.584C40.6351 82.2107 40.1125 81.6827 39.7285 81C39.3551 80.3067 39.1685 79.5067 39.1685 78.6C39.1685 77.704 39.3605 76.9147 39.7445 76.232C40.1391 75.5387 40.6725 75.0107 41.3445 74.648C42.0165 74.2747 42.7685 74.088 43.6005 74.088C44.4325 74.088 45.1845 74.2747 45.8565 74.648C46.5285 75.0107 47.0565 75.5333 47.4405 76.216C47.8351 76.8987 48.0325 77.6933 48.0325 78.6C48.0325 79.5067 47.8298 80.3067 47.4245 81C47.0298 81.6827 46.4911 82.2107 45.8085 82.584C45.1258 82.9573 44.3685 83.144 43.5365 83.144ZM43.5365 81.864C44.0591 81.864 44.5498 81.7413 45.0085 81.496C45.4671 81.2507 45.8351 80.8827 46.1125 80.392C46.4005 79.9013 46.5445 79.304 46.5445 78.6C46.5445 77.896 46.4058 77.2987 46.1285 76.808C45.8511 76.3173 45.4885 75.9547 45.0405 75.72C44.5925 75.4747 44.1071 75.352 43.5845 75.352C43.0511 75.352 42.5605 75.4747 42.1125 75.72C41.6751 75.9547 41.3231 76.3173 41.0565 76.808C40.7898 77.2987 40.6565 77.896 40.6565 78.6C40.6565 79.3147 40.7845 79.9173 41.0405 80.408C41.3071 80.8987 41.6591 81.2667 42.0965 81.512C42.5338 81.7467 43.0138 81.864 43.5365 81.864ZM53.6685 78.584C53.6685 77.688 53.8498 76.904 54.2125 76.232C54.5751 75.5493 55.0711 75.0213 55.7005 74.648C56.3405 74.2747 57.0551 74.088 57.8445 74.088C58.5271 74.088 59.1618 74.248 59.7485 74.568C60.3351 74.8773 60.7831 75.288 61.0925 75.8V71.16H62.5645V83H61.0925V81.352C60.8045 81.8747 60.3778 82.3067 59.8125 82.648C59.2471 82.9787 58.5858 83.144 57.8285 83.144C57.0498 83.144 56.3405 82.952 55.7005 82.568C55.0711 82.184 54.5751 81.6453 54.2125 80.952C53.8498 80.2587 53.6685 79.4693 53.6685 78.584ZM61.0925 78.6C61.0925 77.9387 60.9591 77.3627 60.6925 76.872C60.4258 76.3813 60.0631 76.008 59.6045 75.752C59.1565 75.4853 58.6605 75.352 58.1165 75.352C57.5725 75.352 57.0765 75.48 56.6285 75.736C56.1805 75.992 55.8231 76.3653 55.5565 76.856C55.2898 77.3467 55.1565 77.9227 55.1565 78.584C55.1565 79.256 55.2898 79.8427 55.5565 80.344C55.8231 80.8347 56.1805 81.2133 56.6285 81.48C57.0765 81.736 57.5725 81.864 58.1165 81.864C58.6605 81.864 59.1565 81.736 59.6045 81.48C60.0631 81.2133 60.4258 80.8347 60.6925 80.344C60.9591 79.8427 61.0925 79.2613 61.0925 78.6ZM64.481 78.584C64.481 77.688 64.6623 76.904 65.025 76.232C65.3876 75.5493 65.8836 75.0213 66.513 74.648C67.153 74.2747 67.8623 74.088 68.641 74.088C69.409 74.088 70.0756 74.2533 70.641 74.584C71.2063 74.9147 71.6276 75.3307 71.905 75.832V74.232H73.377V83H71.905V81.368C71.617 81.88 71.185 82.3067 70.609 82.648C70.0436 82.9787 69.3823 83.144 68.625 83.144C67.8463 83.144 67.1423 82.952 66.513 82.568C65.8836 82.184 65.3876 81.6453 65.025 80.952C64.6623 80.2587 64.481 79.4693 64.481 78.584ZM71.905 78.6C71.905 77.9387 71.7716 77.3627 71.505 76.872C71.2383 76.3813 70.8756 76.008 70.417 75.752C69.969 75.4853 69.473 75.352 68.929 75.352C68.385 75.352 67.889 75.48 67.441 75.736C66.993 75.992 66.6356 76.3653 66.369 76.856C66.1023 77.3467 65.969 77.9227 65.969 78.584C65.969 79.256 66.1023 79.8427 66.369 80.344C66.6356 80.8347 66.993 81.2133 67.441 81.48C67.889 81.736 68.385 81.864 68.929 81.864C69.473 81.864 69.969 81.736 70.417 81.48C70.8756 81.2133 71.2383 80.8347 71.505 80.344C71.7716 79.8427 71.905 79.2613 71.905 78.6ZM77.6135 75.432V80.6C77.6135 81.0267 77.7041 81.3307 77.8855 81.512C78.0668 81.6827 78.3815 81.768 78.8295 81.768H79.9015V83H78.5895C77.7788 83 77.1708 82.8133 76.7655 82.44C76.3601 82.0667 76.1575 81.4533 76.1575 80.6V75.432H75.0215V74.232H76.1575V72.024H77.6135V74.232H79.9015V75.432H77.6135ZM81.1216 78.584C81.1216 77.688 81.3029 76.904 81.6656 76.232C82.0283 75.5493 82.5243 75.0213 83.1536 74.648C83.7936 74.2747 84.5029 74.088 85.2816 74.088C86.0496 74.088 86.7163 74.2533 87.2816 74.584C87.8469 74.9147 88.2683 75.3307 88.5456 75.832V74.232H90.0176V83H88.5456V81.368C88.2576 81.88 87.8256 82.3067 87.2496 82.648C86.6843 82.9787 86.0229 83.144 85.2656 83.144C84.4869 83.144 83.7829 82.952 83.1536 82.568C82.5243 82.184 82.0283 81.6453 81.6656 80.952C81.3029 80.2587 81.1216 79.4693 81.1216 78.584ZM88.5456 78.6C88.5456 77.9387 88.4123 77.3627 88.1456 76.872C87.8789 76.3813 87.5163 76.008 87.0576 75.752C86.6096 75.4853 86.1136 75.352 85.5696 75.352C85.0256 75.352 84.5296 75.48 84.0816 75.736C83.6336 75.992 83.2763 76.3653 83.0096 76.856C82.7429 77.3467 82.6096 77.9227 82.6096 78.584C82.6096 79.256 82.7429 79.8427 83.0096 80.344C83.2763 80.8347 83.6336 81.2133 84.0816 81.48C84.5296 81.736 85.0256 81.864 85.5696 81.864C86.1136 81.864 86.6096 81.736 87.0576 81.48C87.5163 81.2133 87.8789 80.8347 88.1456 80.344C88.4123 79.8427 88.5456 79.2613 88.5456 78.6Z" fill="#D9D9D9"/>
</svg>
