<svg width="18" height="17" viewBox="0 0 18 17" fill="none" xmlns="http://www.w3.org/2000/svg">
<path d="M17.25 15.128L17.0611 14.9613C16.5254 14.4837 16.0564 13.9362 15.6667 13.3336C15.2408 12.5018 14.9858 11.5932 14.9167 10.6613V7.91688C14.9204 6.45334 14.3895 5.03881 13.4238 3.93909C12.458 2.83937 11.124 2.13014 9.67224 1.94466V1.22799C9.67224 1.03129 9.5941 0.842647 9.45501 0.703557C9.31592 0.564468 9.12727 0.486328 8.93057 0.486328C8.73387 0.486328 8.54522 0.564468 8.40613 0.703557C8.26704 0.842647 8.1889 1.03129 8.1889 1.22799V1.95577C6.75016 2.15462 5.43222 2.86814 4.4792 3.96417C3.52617 5.06019 3.00264 6.46446 3.00557 7.91688V10.6613C2.93643 11.5932 2.68142 12.5018 2.25557 13.3336C1.87273 13.9349 1.41123 14.4823 0.883347 14.9613L0.694458 15.128V16.6947H17.25V15.128Z" fill="white"/>
</svg>
