<svg xmlns="http://www.w3.org/2000/svg" width="16" height="17" viewBox="0 0 16 17" fill="none">
  <path d="M12.8218 7.72031L13.175 7.36719L12.1156 6.30781L10.175 4.36719L9.11559 3.30781L8.76247 3.66094L8.05622 4.36719L1.83122 10.5922C1.50622 10.9172 1.26872 11.3203 1.13747 11.7609L0.0312183 15.5234C-0.0469067 15.7859 0.0249683 16.0703 0.221843 16.2641C0.418718 16.4578 0.699968 16.5297 0.962468 16.4547L4.72184 15.3484C5.16247 15.2172 5.56559 14.9797 5.89059 14.6547L12.1156 8.42969L12.8218 7.72031ZM4.99997 12.9828L4.71559 13.6922C4.59059 13.7891 4.44997 13.8609 4.29997 13.9078L1.85622 14.6266L2.57497 12.1859C2.61872 12.0328 2.69372 11.8922 2.79059 11.7703L3.49997 11.4859V12.4859C3.49997 12.7609 3.72497 12.9859 3.99997 12.9859H4.99997V12.9828ZM11.3343 1.08594L10.8843 1.53906L10.1781 2.24531L9.82184 2.59844L10.8812 3.65781L12.8218 5.59844L13.8812 6.65781L14.2343 6.30469L14.9406 5.59844L15.3937 5.14531C16.175 4.36406 16.175 3.09844 15.3937 2.31719L14.1656 1.08594C13.3843 0.304688 12.1187 0.304688 11.3375 1.08594H11.3343ZM9.85309 6.33594L5.35309 10.8359C5.15934 11.0297 4.84059 11.0297 4.64684 10.8359C4.45309 10.6422 4.45309 10.3234 4.64684 10.1297L9.14684 5.62969C9.34059 5.43594 9.65934 5.43594 9.85309 5.62969C10.0468 5.82344 10.0468 6.14219 9.85309 6.33594Z" fill="black"/>
</svg>