<svg width="21" height="21" viewBox="0 0 21 21" fill="none" xmlns="http://www.w3.org/2000/svg">
<path d="M6.125 1.75H5.25C2.625 1.75 1.75 3.31625 1.75 5.25V6.125V18.375C1.75 19.1013 2.5725 19.5125 3.15 19.075L4.64625 17.955C4.99625 17.6925 5.48625 17.7275 5.80125 18.0425L7.25375 19.5038C7.595 19.845 8.155 19.845 8.49625 19.5038L9.96625 18.0338C10.2725 17.7275 10.7625 17.6925 11.1037 17.955L12.6 19.075C13.1775 19.5037 14 19.0925 14 18.375V3.5C14 2.5375 14.7875 1.75 15.75 1.75H6.125ZM9.84375 12.0313H5.90625C5.5475 12.0313 5.25 11.7338 5.25 11.375C5.25 11.0163 5.5475 10.7188 5.90625 10.7188H9.84375C10.2025 10.7188 10.5 11.0163 10.5 11.375C10.5 11.7338 10.2025 12.0313 9.84375 12.0313ZM10.5 8.53125H5.25C4.89125 8.53125 4.59375 8.23375 4.59375 7.875C4.59375 7.51625 4.89125 7.21875 5.25 7.21875H10.5C10.8588 7.21875 11.1562 7.51625 11.1562 7.875C11.1562 8.23375 10.8588 8.53125 10.5 8.53125Z" fill="white"/>
<path d="M15.7588 1.75V3.0625C16.3363 3.0625 16.8875 3.29875 17.29 3.6925C17.71 4.12125 17.9375 4.6725 17.9375 5.25V7.3675C17.9375 8.015 17.6488 8.3125 16.9925 8.3125H15.3125V3.50875C15.3125 3.26375 15.5138 3.0625 15.7588 3.0625V1.75ZM15.7588 1.75C14.7875 1.75 14 2.5375 14 3.50875V9.625H16.9925C18.375 9.625 19.25 8.75 19.25 7.3675V5.25C19.25 4.2875 18.8562 3.4125 18.2262 2.77375C17.5875 2.14375 16.7213 1.75875 15.7588 1.75C15.7675 1.75 15.7588 1.75 15.7588 1.75Z" fill="white"/>
</svg>
