<svg width="16" height="21" viewBox="0 0 16 21" fill="none" xmlns="http://www.w3.org/2000/svg">
<path d="M1.99805 0.478516C1.99805 0.991516 2.48805 1.47852 2.99805 1.47852H12.998C13.511 1.47852 13.998 0.988516 13.998 0.478516H15.998C15.998 1.27417 15.682 2.03723 15.1194 2.59984C14.5568 3.16245 13.7937 3.47852 12.998 3.47852H8.99805L8.99905 5.54052C10.9323 5.78432 12.71 6.72531 13.9987 8.18685C15.2873 9.64839 15.9983 11.53 15.998 13.4785V19.4785C15.998 19.7437 15.8927 19.9981 15.7052 20.1856C15.5176 20.3732 15.2633 20.4785 14.998 20.4785H0.998047C0.732831 20.4785 0.478476 20.3732 0.29094 20.1856C0.103404 19.9981 -0.00195309 19.7437 -0.00195309 19.4785V13.4785C-0.00213482 11.5298 0.708944 9.64811 1.9978 8.18655C3.28666 6.72498 5.06466 5.7841 6.99805 5.54052V3.47852H2.99805C1.33805 3.47852 -0.00195309 2.13852 -0.00195309 0.478516H1.99805ZM7.99805 9.47852C7.11595 9.47864 6.25863 9.77034 5.5595 10.3082C4.86038 10.8461 4.35866 11.6 4.13242 12.4526C3.90618 13.3052 3.96811 14.2087 4.30858 15.0224C4.64904 15.8362 5.24895 16.5145 6.01493 16.952C6.78092 17.3894 7.67002 17.5614 8.54389 17.4412C9.41775 17.3209 10.2274 16.9152 10.8467 16.2871C11.4661 15.659 11.8605 14.8438 11.9685 13.9684C12.0765 13.0929 11.8922 12.2063 11.444 11.4465L8.70505 14.1865L8.61105 14.2685C8.41006 14.4239 8.15744 14.497 7.90452 14.4729C7.6516 14.4488 7.41733 14.3294 7.2493 14.1388C7.08126 13.9482 6.99206 13.7008 6.99982 13.4469C7.00757 13.193 7.1117 12.9515 7.29105 12.7715L10.03 10.0315C9.41427 9.66899 8.71262 9.47804 7.99805 9.47852Z" fill="white"/>
</svg>
