<svg width="17" height="16" viewBox="0 0 17 16" fill="none" xmlns="http://www.w3.org/2000/svg">
<path d="M1.15625 5.5H2.25C2.33594 5.5 2.40625 5.42969 2.40625 5.34375V1.90625H5.84375C5.92969 1.90625 6 1.83594 6 1.75V0.65625C6 0.570312 5.92969 0.5 5.84375 0.5H2.32812C1.59375 0.5 1 1.09375 1 1.82812V5.34375C1 5.42969 1.07031 5.5 1.15625 5.5ZM11.1562 1.90625H14.5938V5.34375C14.5938 5.42969 14.6641 5.5 14.75 5.5H15.8438C15.9297 5.5 16 5.42969 16 5.34375V1.82812C16 1.09375 15.4062 0.5 14.6719 0.5H11.1562C11.0703 0.5 11 0.570312 11 0.65625V1.75C11 1.83594 11.0703 1.90625 11.1562 1.90625ZM5.84375 14.0938H2.40625V10.6562C2.40625 10.5703 2.33594 10.5 2.25 10.5H1.15625C1.07031 10.5 1 10.5703 1 10.6562V14.1719C1 14.9062 1.59375 15.5 2.32812 15.5H5.84375C5.92969 15.5 6 15.4297 6 15.3438V14.25C6 14.1641 5.92969 14.0938 5.84375 14.0938ZM15.8438 10.5H14.75C14.6641 10.5 14.5938 10.5703 14.5938 10.6562V14.0938H11.1562C11.0703 14.0938 11 14.1641 11 14.25V15.3438C11 15.4297 11.0703 15.5 11.1562 15.5H14.6719C15.4062 15.5 16 14.9062 16 14.1719V10.6562C16 10.5703 15.9297 10.5 15.8438 10.5ZM16.1562 7.29688H0.84375C0.757812 7.29688 0.6875 7.36719 0.6875 7.45312V8.54688C0.6875 8.63281 0.757812 8.70312 0.84375 8.70312H16.1562C16.2422 8.70312 16.3125 8.63281 16.3125 8.54688V7.45312C16.3125 7.36719 16.2422 7.29688 16.1562 7.29688Z" fill="#524FA0"/>
</svg>
