<svg width="18" height="17" viewBox="0 0 18 17" fill="none" xmlns="http://www.w3.org/2000/svg">
<path fill-rule="evenodd" clip-rule="evenodd" d="M10.8401 2.52533C11.2179 2.64199 11.579 2.79199 11.9234 2.97533L13.4509 2.05866C13.6102 1.96313 13.7968 1.92354 13.9812 1.94619C14.1655 1.96883 14.337 2.05242 14.4684 2.18366L15.3167 3.03199C15.448 3.16341 15.5316 3.3349 15.5542 3.51925C15.5769 3.70359 15.5373 3.89022 15.4417 4.04949L14.5251 5.57699C14.7084 5.92144 14.8584 6.28255 14.9751 6.66033L16.7026 7.09283C16.8828 7.13797 17.0427 7.24203 17.157 7.38849C17.2713 7.53494 17.3334 7.71538 17.3334 7.90116V9.09949C17.3334 9.28527 17.2713 9.46571 17.157 9.61216C17.0427 9.75862 16.8828 9.86268 16.7026 9.90783L14.9751 10.3403C14.8584 10.7181 14.7084 11.0792 14.5251 11.4237L15.4417 12.9512C15.5373 13.1104 15.5769 13.2971 15.5542 13.4814C15.5316 13.6657 15.448 13.8372 15.3167 13.9687L14.4684 14.817C14.337 14.9482 14.1655 15.0318 13.9812 15.0545C13.7968 15.0771 13.6102 15.0375 13.4509 14.942L11.9234 14.0253C11.579 14.2087 11.2179 14.3587 10.8401 14.4753L10.4076 16.2028C10.3624 16.383 10.2584 16.543 10.1119 16.6573C9.96547 16.7716 9.78502 16.8337 9.59925 16.8337H8.40091C8.21514 16.8337 8.0347 16.7716 7.88824 16.6573C7.74179 16.543 7.63772 16.383 7.59258 16.2028L7.16008 14.4753C6.78566 14.3596 6.42295 14.209 6.07675 14.0253L4.54925 14.942C4.38997 15.0375 4.20335 15.0771 4.019 15.0545C3.83466 15.0318 3.66317 14.9482 3.53175 14.817L2.68341 13.9687C2.55217 13.8372 2.46859 13.6657 2.44594 13.4814C2.4233 13.2971 2.46288 13.1104 2.55841 12.9512L3.47508 11.4237C3.29145 11.0775 3.14079 10.7147 3.02508 10.3403L1.29758 9.90783C1.11751 9.86272 0.957663 9.75878 0.843384 9.61249C0.729104 9.46621 0.666939 9.28596 0.666748 9.10033V7.90199C0.666753 7.71622 0.728833 7.53577 0.843128 7.38932C0.957422 7.24286 1.11738 7.1388 1.29758 7.09366L3.02508 6.66116C3.14175 6.28338 3.29175 5.92227 3.47508 5.57783L2.55841 4.05033C2.46288 3.89105 2.4233 3.70442 2.44594 3.52008C2.46859 3.33574 2.55217 3.16424 2.68341 3.03283L3.53175 2.18366C3.66317 2.05242 3.83466 1.96883 4.019 1.94619C4.20335 1.92354 4.38997 1.96313 4.54925 2.05866L6.07675 2.97533C6.42119 2.79199 6.7823 2.64199 7.16008 2.52533L7.59258 0.797825C7.63769 0.617758 7.74163 0.457908 7.88791 0.343628C8.0342 0.229348 8.21445 0.167183 8.40008 0.166992H9.59841C9.78419 0.166997 9.96463 0.229077 10.1111 0.343372C10.2575 0.457666 10.3616 0.61762 10.4067 0.797825L10.8401 2.52533ZM9.00008 11.8337C9.88414 11.8337 10.732 11.4825 11.3571 10.8573C11.9822 10.2322 12.3334 9.38438 12.3334 8.50033C12.3334 7.61627 11.9822 6.76842 11.3571 6.1433C10.732 5.51818 9.88414 5.16699 9.00008 5.16699C8.11603 5.16699 7.26818 5.51818 6.64306 6.1433C6.01794 6.76842 5.66675 7.61627 5.66675 8.50033C5.66675 9.38438 6.01794 10.2322 6.64306 10.8573C7.26818 11.4825 8.11603 11.8337 9.00008 11.8337Z" fill="white"/>
</svg>
