<svg width="20" height="17" viewBox="0 0 20 17" fill="none" xmlns="http://www.w3.org/2000/svg">
<path d="M17.9329 2.41658H1.25945C1.09576 2.42097 0.9328 2.39305 0.77991 2.33441C0.62772 2.27583 0.48875 2.18745 0.37118 2.07445C0.25382 1.96234 0.16034 1.82765 0.0963502 1.67849C0.0327602 1.52996 0 1.37008 0 1.20851C0 1.04695 0.0327602 0.887058 0.0963502 0.738528C0.16034 0.589368 0.25382 0.454688 0.37118 0.342568C0.48874 0.229558 0.62771 0.141178 0.77991 0.0826079C0.9328 0.0239779 1.09576 -0.00394214 1.25945 0.000447859H17.9329C18.2513 0.00853786 18.5543 0.139218 18.7787 0.365238C19.001 0.589318 19.1257 0.892168 19.1257 1.20781C19.1257 1.52344 19.001 1.82629 18.7787 2.05037C18.5545 2.27691 18.2515 2.40811 17.9329 2.41658Z" fill="#005FAF"/>
<path d="M11.0669 17.0008H1.2593C0.935034 17.0011 0.623633 16.8739 0.392283 16.6467C0.278593 16.5353 0.188293 16.4024 0.126633 16.2557C0.0649732 16.109 0.0332031 15.9515 0.0332031 15.7924C0.0332031 15.6333 0.0649732 15.4758 0.126633 15.3291C0.188293 15.1824 0.278593 15.0495 0.392283 14.9382C0.623633 14.7109 0.935034 14.5837 1.2593 14.584H11.0669C11.3914 14.5836 11.703 14.7108 11.9346 14.9382C12.0483 15.0495 12.1386 15.1824 12.2003 15.3291C12.2619 15.4758 12.2937 15.6333 12.2937 15.7924C12.2937 15.9515 12.2619 16.109 12.2003 16.2557C12.1386 16.4024 12.0483 16.5353 11.9346 16.6467C11.7031 16.874 11.3914 17.0013 11.0669 17.0008Z" fill="#005FAF"/>
<path d="M17.9328 9.62188H1.2593C0.935034 9.62218 0.623633 9.49498 0.392283 9.26768C0.278593 9.15638 0.188293 9.02348 0.126633 8.87678C0.0649732 8.73008 0.0332031 8.57258 0.0332031 8.41348C0.0332031 8.25438 0.0649732 8.09688 0.126633 7.95018C0.188293 7.80348 0.278593 7.67058 0.392283 7.55918C0.623633 7.33198 0.935034 7.20478 1.2593 7.20508H17.9328C18.257 7.20478 18.5684 7.33198 18.7998 7.55918C18.9135 7.67058 19.0038 7.80348 19.0654 7.95018C19.1271 8.09688 19.1589 8.25438 19.1589 8.41348C19.1589 8.57258 19.1271 8.73008 19.0654 8.87678C19.0038 9.02348 18.9135 9.15638 18.7998 9.26768C18.5684 9.49498 18.257 9.62218 17.9328 9.62188Z" fill="#005FAF"/>
</svg>
