<svg width="20" height="21" viewBox="0 0 20 21" fill="none" xmlns="http://www.w3.org/2000/svg">
<path d="M12.5673 9.95026H7.43398C6.90065 9.95026 6.37565 9.73359 6.00065 9.35026C5.88398 9.23359 5.78398 9.10859 5.70065 8.96693C5.55065 8.71693 5.28398 8.55859 4.99232 8.55859H2.91732C2.45898 8.55859 2.08398 8.93359 2.08398 9.39193V15.0836C2.08398 17.1586 3.75898 18.8336 5.83398 18.8336H14.1673C16.2423 18.8336 17.9173 17.1586 17.9173 15.0836V9.39193C17.9173 8.93359 17.5423 8.55859 17.084 8.55859H15.0007C14.7007 8.55859 14.434 8.72526 14.284 8.98359C13.934 9.55859 13.2923 9.95026 12.5673 9.95026Z" fill="white"/>
<path d="M14.1673 2.16602H5.83398C3.75898 2.16602 2.08398 3.84102 2.08398 5.91602V6.47435C2.08398 6.93268 2.45898 7.30768 2.91732 7.30768H5.00065C5.30065 7.30768 5.56732 7.14102 5.71732 6.88268C6.06732 6.30768 6.70898 5.91602 7.43398 5.91602H12.4257C12.934 5.91602 13.6673 6.18268 14.0173 6.54102C14.1257 6.64935 14.209 6.76602 14.2923 6.89102C14.4423 7.14102 14.709 7.30768 15.009 7.30768H17.0923C17.5507 7.30768 17.9257 6.93268 17.9257 6.47435V5.91602C17.9173 3.84102 16.2423 2.16602 14.1673 2.16602Z" fill="white"/>
</svg>
