<svg width="20" height="21" viewBox="0 0 20 21" fill="none" xmlns="http://www.w3.org/2000/svg">
<path d="M16.0993 2.16602H3.89935C2.67435 2.16602 1.66602 3.17435 1.66602 4.39935V6.59102C1.66602 7.82435 2.67435 8.83268 3.89935 8.83268H16.091C17.3243 8.83268 18.3327 7.82435 18.3327 6.59935V4.39935C18.3327 3.17435 17.3243 2.16602 16.0993 2.16602ZM5.62435 6.33268C5.62435 6.67435 5.34102 6.95768 4.99935 6.95768C4.65768 6.95768 4.37435 6.67435 4.37435 6.33268V4.66602C4.37435 4.32435 4.65768 4.04102 4.99935 4.04102C5.34102 4.04102 5.62435 4.32435 5.62435 4.66602V6.33268ZM8.95768 6.33268C8.95768 6.67435 8.67435 6.95768 8.33268 6.95768C7.99102 6.95768 7.70768 6.67435 7.70768 6.33268V4.66602C7.70768 4.32435 7.99102 4.04102 8.33268 4.04102C8.67435 4.04102 8.95768 4.32435 8.95768 4.66602V6.33268ZM14.9993 6.12435H11.666C11.3243 6.12435 11.041 5.84102 11.041 5.49935C11.041 5.15768 11.3243 4.87435 11.666 4.87435H14.9993C15.341 4.87435 15.6243 5.15768 15.6243 5.49935C15.6243 5.84102 15.341 6.12435 14.9993 6.12435Z" fill="white"/>
<path d="M16.0993 12.166H3.89935C2.67435 12.166 1.66602 13.1743 1.66602 14.3993V16.591C1.66602 17.8243 2.67435 18.8327 3.89935 18.8327H16.091C17.3243 18.8327 18.3244 17.8243 18.3244 16.5993V14.4077C18.3327 13.1743 17.3243 12.166 16.0993 12.166ZM5.62435 16.3327C5.62435 16.6743 5.34102 16.9577 4.99935 16.9577C4.65768 16.9577 4.37435 16.6743 4.37435 16.3327V14.666C4.37435 14.3243 4.65768 14.041 4.99935 14.041C5.34102 14.041 5.62435 14.3243 5.62435 14.666V16.3327ZM8.95768 16.3327C8.95768 16.6743 8.67435 16.9577 8.33268 16.9577C7.99102 16.9577 7.70768 16.6743 7.70768 16.3327V14.666C7.70768 14.3243 7.99102 14.041 8.33268 14.041C8.67435 14.041 8.95768 14.3243 8.95768 14.666V16.3327ZM14.9993 16.1243H11.666C11.3243 16.1243 11.041 15.841 11.041 15.4993C11.041 15.1577 11.3243 14.8743 11.666 14.8743H14.9993C15.341 14.8743 15.6243 15.1577 15.6243 15.4993C15.6243 15.841 15.341 16.1243 14.9993 16.1243Z" fill="white"/>
</svg>
