<svg width="182" height="88" viewBox="0 0 182 88" fill="none" xmlns="http://www.w3.org/2000/svg">
<rect x="71" y="0.5" width="40" height="40" rx="20" fill="#7388D1" fill-opacity="0.07"/>
<path d="M90.9999 18.2505C90.5899 18.2505 90.2499 17.9105 90.2499 17.5005V12.3105L89.5299 13.0305C89.2399 13.3205 88.7599 13.3205 88.4699 13.0305C88.1799 12.7405 88.1799 12.2605 88.4699 11.9705L90.4699 9.97048C90.6799 9.76048 91.0099 9.69048 91.2899 9.81048C91.5699 9.92048 91.7499 10.2005 91.7499 10.5005V17.5005C91.7499 17.9105 91.4099 18.2505 90.9999 18.2505Z" fill="#4259C1"/>
<path d="M92.9999 13.2495C92.8099 13.2495 92.6199 13.1795 92.4699 13.0295L90.4699 11.0295C90.1799 10.7395 90.1799 10.2595 90.4699 9.96945C90.7599 9.67945 91.2399 9.67945 91.5299 9.96945L93.5299 11.9695C93.8199 12.2595 93.8199 12.7395 93.5299 13.0295C93.3799 13.1795 93.1899 13.2495 92.9999 13.2495Z" fill="#4259C1"/>
<path d="M92.76 26.25H89.23C88.18 26.25 87.24 25.67 86.77 24.73L85.6 22.39C85.56 22.3 85.47 22.25 85.38 22.25H80.98C80.57 22.25 80.23 21.91 80.23 21.5C80.23 21.09 80.57 20.75 80.98 20.75H85.39C86.06 20.75 86.66 21.12 86.96 21.72L88.13 24.06C88.34 24.49 88.77 24.75 89.25 24.75H92.78C93.26 24.75 93.69 24.49 93.9 24.06L95.07 21.72C95.37 21.12 95.97 20.75 96.64 20.75H101C101.41 20.75 101.75 21.09 101.75 21.5C101.75 21.91 101.41 22.25 101 22.25H96.64C96.54 22.25 96.46 22.3 96.42 22.39L95.25 24.73C94.75 25.67 93.81 26.25 92.76 26.25Z" fill="#4259C1"/>
<path d="M94 31.2509H88C82.57 31.2509 80.25 28.9309 80.25 23.5009V20.5009C80.25 15.8109 81.99 13.4609 85.89 12.8909C86.31 12.8309 86.68 13.1109 86.74 13.5209C86.8 13.9309 86.52 14.3109 86.11 14.3709C82.97 14.8309 81.75 16.5509 81.75 20.5009V23.5009C81.75 28.1109 83.39 29.7509 88 29.7509H94C98.61 29.7509 100.25 28.1109 100.25 23.5009V20.5009C100.25 16.5509 99.03 14.8309 95.89 14.3709C95.48 14.3109 95.2 13.9309 95.26 13.5209C95.32 13.1109 95.7 12.8309 96.11 12.8909C100.01 13.4609 101.75 15.8109 101.75 20.5009V23.5009C101.75 28.9309 99.43 31.2509 94 31.2509Z" fill="#4259C1"/>
<path d="M56.344 60.64C55.6067 60.64 54.944 60.472 54.356 60.136C53.768 59.8 53.3013 59.3427 52.956 58.764C52.62 58.176 52.452 57.5133 52.452 56.776V50.7H54.062V56.762C54.062 57.238 54.16 57.6533 54.356 58.008C54.5613 58.3533 54.8367 58.624 55.182 58.82C55.5273 59.0067 55.9147 59.1 56.344 59.1C56.7827 59.1 57.17 59.0067 57.506 58.82C57.842 58.624 58.108 58.3533 58.304 58.008C58.5 57.6533 58.598 57.2427 58.598 56.776V50.7H60.208V56.79C60.208 57.5273 60.04 58.1853 59.704 58.764C59.368 59.3427 58.9107 59.8 58.332 60.136C57.7533 60.472 57.0907 60.64 56.344 60.64ZM66.626 60.5V56.622C66.626 56.174 66.4813 55.8053 66.192 55.516C65.912 55.2267 65.548 55.082 65.1 55.082C64.8013 55.082 64.5353 55.1473 64.302 55.278C64.0687 55.4087 63.8867 55.5907 63.756 55.824C63.6253 56.0573 63.56 56.3233 63.56 56.622L62.958 56.286C62.958 55.7727 63.07 55.32 63.294 54.928C63.518 54.5267 63.826 54.214 64.218 53.99C64.6193 53.7567 65.0673 53.64 65.562 53.64C66.066 53.64 66.514 53.7707 66.906 54.032C67.298 54.284 67.606 54.6153 67.83 55.026C68.054 55.4273 68.166 55.8473 68.166 56.286V60.5H66.626ZM62.02 60.5V53.78H63.56V60.5H62.02ZM72.531 63.44C71.8216 63.44 71.201 63.3093 70.669 63.048C70.137 62.796 69.7076 62.4367 69.381 61.97L70.389 60.962C70.6596 61.298 70.9676 61.55 71.313 61.718C71.6583 61.886 72.0736 61.97 72.559 61.97C73.1656 61.97 73.6463 61.8113 74.001 61.494C74.3556 61.186 74.533 60.7613 74.533 60.22V58.568L74.799 57.084L74.533 55.586V53.78H76.073V60.22C76.073 60.864 75.9236 61.424 75.625 61.9C75.3263 62.3853 74.911 62.7633 74.379 63.034C73.847 63.3047 73.231 63.44 72.531 63.44ZM72.461 60.36C71.8636 60.36 71.3223 60.2153 70.837 59.926C70.361 59.6273 69.983 59.2213 69.703 58.708C69.4323 58.1947 69.297 57.6207 69.297 56.986C69.297 56.3513 69.4323 55.782 69.703 55.278C69.983 54.774 70.361 54.3773 70.837 54.088C71.3223 53.7893 71.8636 53.64 72.461 53.64C72.993 53.64 73.4596 53.7473 73.861 53.962C74.2623 54.1767 74.575 54.4753 74.799 54.858C75.023 55.2313 75.135 55.67 75.135 56.174V57.826C75.135 58.3207 75.0183 58.7593 74.785 59.142C74.561 59.5247 74.2483 59.8233 73.847 60.038C73.4456 60.2527 72.9836 60.36 72.461 60.36ZM72.769 58.904C73.1423 58.904 73.469 58.8247 73.749 58.666C74.029 58.5073 74.2436 58.288 74.393 58.008C74.5516 57.7187 74.631 57.3827 74.631 57C74.631 56.6173 74.5516 56.286 74.393 56.006C74.2436 55.7167 74.029 55.4927 73.749 55.334C73.469 55.1753 73.1423 55.096 72.769 55.096C72.3956 55.096 72.0643 55.1753 71.775 55.334C71.495 55.4927 71.2756 55.7167 71.117 56.006C70.9583 56.286 70.879 56.6173 70.879 57C70.879 57.3733 70.9583 57.7047 71.117 57.994C71.2756 58.2833 71.495 58.5073 71.775 58.666C72.0643 58.8247 72.3956 58.904 72.769 58.904ZM80.5837 63.44C79.8744 63.44 79.2537 63.3093 78.7217 63.048C78.1897 62.796 77.7604 62.4367 77.4337 61.97L78.4417 60.962C78.7124 61.298 79.0204 61.55 79.3657 61.718C79.711 61.886 80.1264 61.97 80.6117 61.97C81.2184 61.97 81.699 61.8113 82.0537 61.494C82.4084 61.186 82.5857 60.7613 82.5857 60.22V58.568L82.8517 57.084L82.5857 55.586V53.78H84.1257V60.22C84.1257 60.864 83.9764 61.424 83.6777 61.9C83.379 62.3853 82.9637 62.7633 82.4317 63.034C81.8997 63.3047 81.2837 63.44 80.5837 63.44ZM80.5137 60.36C79.9164 60.36 79.375 60.2153 78.8897 59.926C78.4137 59.6273 78.0357 59.2213 77.7557 58.708C77.485 58.1947 77.3497 57.6207 77.3497 56.986C77.3497 56.3513 77.485 55.782 77.7557 55.278C78.0357 54.774 78.4137 54.3773 78.8897 54.088C79.375 53.7893 79.9164 53.64 80.5137 53.64C81.0457 53.64 81.5124 53.7473 81.9137 53.962C82.315 54.1767 82.6277 54.4753 82.8517 54.858C83.0757 55.2313 83.1877 55.67 83.1877 56.174V57.826C83.1877 58.3207 83.071 58.7593 82.8377 59.142C82.6137 59.5247 82.301 59.8233 81.8997 60.038C81.4984 60.2527 81.0364 60.36 80.5137 60.36ZM80.8217 58.904C81.195 58.904 81.5217 58.8247 81.8017 58.666C82.0817 58.5073 82.2964 58.288 82.4457 58.008C82.6044 57.7187 82.6837 57.3827 82.6837 57C82.6837 56.6173 82.6044 56.286 82.4457 56.006C82.2964 55.7167 82.0817 55.4927 81.8017 55.334C81.5217 55.1753 81.195 55.096 80.8217 55.096C80.4484 55.096 80.117 55.1753 79.8277 55.334C79.5477 55.4927 79.3284 55.7167 79.1697 56.006C79.011 56.286 78.9317 56.6173 78.9317 57C78.9317 57.3733 79.011 57.7047 79.1697 57.994C79.3284 58.2833 79.5477 58.5073 79.8277 58.666C80.117 58.8247 80.4484 58.904 80.8217 58.904ZM88.6504 60.64C88.0438 60.64 87.4931 60.486 86.9984 60.178C86.5131 59.87 86.1258 59.4547 85.8364 58.932C85.5564 58.4 85.4164 57.8073 85.4164 57.154C85.4164 56.4913 85.5564 55.8987 85.8364 55.376C86.1258 54.844 86.5131 54.424 86.9984 54.116C87.4931 53.7987 88.0438 53.64 88.6504 53.64C89.1638 53.64 89.6164 53.752 90.0084 53.976C90.4098 54.1907 90.7271 54.4893 90.9604 54.872C91.1938 55.2547 91.3104 55.6887 91.3104 56.174V58.106C91.3104 58.5913 91.1938 59.0253 90.9604 59.408C90.7364 59.7907 90.4238 60.094 90.0224 60.318C89.6211 60.5327 89.1638 60.64 88.6504 60.64ZM88.9024 59.184C89.4718 59.184 89.9291 58.9927 90.2744 58.61C90.6291 58.2273 90.8064 57.7373 90.8064 57.14C90.8064 56.7387 90.7271 56.384 90.5684 56.076C90.4098 55.768 90.1858 55.53 89.8964 55.362C89.6164 55.1847 89.2851 55.096 88.9024 55.096C88.5291 55.096 88.1978 55.1847 87.9084 55.362C87.6284 55.53 87.4044 55.768 87.2364 56.076C87.0778 56.384 86.9984 56.7387 86.9984 57.14C86.9984 57.5413 87.0778 57.896 87.2364 58.204C87.4044 58.512 87.6284 58.7547 87.9084 58.932C88.1978 59.1 88.5291 59.184 88.9024 59.184ZM90.7084 60.5V58.694L90.9744 57.056L90.7084 55.432V53.78H92.2484V60.5H90.7084ZM98.5635 60.5V56.622C98.5635 56.174 98.4188 55.8053 98.1295 55.516C97.8495 55.2267 97.4855 55.082 97.0375 55.082C96.7388 55.082 96.4728 55.1473 96.2395 55.278C96.0062 55.4087 95.8242 55.5907 95.6935 55.824C95.5628 56.0573 95.4975 56.3233 95.4975 56.622L94.8955 56.286C94.8955 55.7727 95.0075 55.32 95.2315 54.928C95.4555 54.5267 95.7635 54.214 96.1555 53.99C96.5568 53.7567 97.0048 53.64 97.4995 53.64C98.0035 53.64 98.4515 53.752 98.8435 53.976C99.2355 54.2 99.5435 54.5127 99.7675 54.914C99.9915 55.306 100.104 55.7633 100.104 56.286V60.5H98.5635ZM93.9575 60.5V50.42H95.4975V60.5H93.9575ZM105.395 60.5V52.898C105.395 52.3847 105.507 51.932 105.731 51.54C105.965 51.148 106.282 50.84 106.683 50.616C107.094 50.392 107.565 50.28 108.097 50.28C108.508 50.28 108.858 50.35 109.147 50.49C109.437 50.63 109.707 50.8307 109.959 51.092L108.965 52.086C108.853 51.974 108.732 51.8853 108.601 51.82C108.471 51.7547 108.303 51.722 108.097 51.722C107.724 51.722 107.435 51.8247 107.229 52.03C107.033 52.226 106.935 52.5107 106.935 52.884V60.5H105.395ZM103.785 55.18V53.78H108.965V55.18H103.785ZM112.856 60.64C112.203 60.64 111.61 60.486 111.078 60.178C110.546 59.8607 110.121 59.436 109.804 58.904C109.496 58.372 109.342 57.7793 109.342 57.126C109.342 56.4727 109.496 55.8847 109.804 55.362C110.121 54.8393 110.546 54.424 111.078 54.116C111.61 53.7987 112.203 53.64 112.856 53.64C113.519 53.64 114.116 53.794 114.648 54.102C115.18 54.41 115.6 54.83 115.908 55.362C116.225 55.8847 116.384 56.4727 116.384 57.126C116.384 57.7793 116.225 58.372 115.908 58.904C115.6 59.436 115.18 59.8607 114.648 60.178C114.116 60.486 113.519 60.64 112.856 60.64ZM112.856 59.156C113.239 59.156 113.575 59.072 113.864 58.904C114.163 58.7267 114.391 58.484 114.55 58.176C114.718 57.868 114.802 57.518 114.802 57.126C114.802 56.734 114.718 56.3887 114.55 56.09C114.382 55.7913 114.153 55.558 113.864 55.39C113.575 55.2127 113.239 55.124 112.856 55.124C112.483 55.124 112.147 55.2127 111.848 55.39C111.559 55.558 111.33 55.7913 111.162 56.09C111.003 56.3887 110.924 56.734 110.924 57.126C110.924 57.518 111.003 57.868 111.162 58.176C111.33 58.484 111.559 58.7267 111.848 58.904C112.147 59.072 112.483 59.156 112.856 59.156ZM118.495 60.5V50.98H120.035V60.5H118.495ZM116.885 55.18V53.78H121.645V55.18H116.885ZM125.653 60.64C124.999 60.64 124.407 60.486 123.875 60.178C123.343 59.8607 122.918 59.436 122.601 58.904C122.293 58.372 122.139 57.7793 122.139 57.126C122.139 56.4727 122.293 55.8847 122.601 55.362C122.918 54.8393 123.343 54.424 123.875 54.116C124.407 53.7987 124.999 53.64 125.653 53.64C126.315 53.64 126.913 53.794 127.445 54.102C127.977 54.41 128.397 54.83 128.705 55.362C129.022 55.8847 129.181 56.4727 129.181 57.126C129.181 57.7793 129.022 58.372 128.705 58.904C128.397 59.436 127.977 59.8607 127.445 60.178C126.913 60.486 126.315 60.64 125.653 60.64ZM125.653 59.156C126.035 59.156 126.371 59.072 126.661 58.904C126.959 58.7267 127.188 58.484 127.347 58.176C127.515 57.868 127.599 57.518 127.599 57.126C127.599 56.734 127.515 56.3887 127.347 56.09C127.179 55.7913 126.95 55.558 126.661 55.39C126.371 55.2127 126.035 55.124 125.653 55.124C125.279 55.124 124.943 55.2127 124.645 55.39C124.355 55.558 124.127 55.7913 123.959 56.09C123.8 56.3887 123.721 56.734 123.721 57.126C123.721 57.518 123.8 57.868 123.959 58.176C124.127 58.484 124.355 58.7267 124.645 58.904C124.943 59.072 125.279 59.156 125.653 59.156Z" fill="#666666"/>
<path d="M0.984 81.5V73.172H2.112V81.5H0.984ZM1.752 77.84V76.808H6.096V77.84H1.752ZM1.752 74.204V73.172H6.3V74.204H1.752ZM9.9585 81.62C9.3985 81.62 8.8945 81.488 8.4465 81.224C7.9985 80.96 7.6425 80.604 7.3785 80.156C7.1145 79.7 6.9825 79.192 6.9825 78.632C6.9825 78.08 7.1145 77.584 7.3785 77.144C7.6425 76.696 7.9985 76.34 8.4465 76.076C8.8945 75.812 9.3985 75.68 9.9585 75.68C10.5105 75.68 11.0105 75.812 11.4585 76.076C11.9145 76.332 12.2745 76.684 12.5385 77.132C12.8025 77.58 12.9345 78.08 12.9345 78.632C12.9345 79.192 12.8025 79.7 12.5385 80.156C12.2745 80.604 11.9145 80.96 11.4585 81.224C11.0105 81.488 10.5105 81.62 9.9585 81.62ZM9.9585 80.576C10.3185 80.576 10.6385 80.492 10.9185 80.324C11.1985 80.156 11.4185 79.928 11.5785 79.64C11.7385 79.344 11.8185 79.008 11.8185 78.632C11.8185 78.264 11.7345 77.936 11.5665 77.648C11.4065 77.36 11.1865 77.136 10.9065 76.976C10.6345 76.808 10.3185 76.724 9.9585 76.724C9.5985 76.724 9.2785 76.808 8.9985 76.976C8.7185 77.136 8.4985 77.36 8.3385 77.648C8.1785 77.936 8.0985 78.264 8.0985 78.632C8.0985 79.008 8.1785 79.344 8.3385 79.64C8.4985 79.928 8.7185 80.156 8.9985 80.324C9.2785 80.492 9.5985 80.576 9.9585 80.576ZM14.1514 81.5V75.8H15.2314V81.5H14.1514ZM15.2314 78.248L14.8234 78.068C14.8234 77.34 14.9914 76.76 15.3274 76.328C15.6634 75.896 16.1474 75.68 16.7794 75.68C17.0674 75.68 17.3274 75.732 17.5594 75.836C17.7914 75.932 18.0074 76.096 18.2074 76.328L17.4994 77.06C17.3794 76.932 17.2474 76.84 17.1034 76.784C16.9594 76.728 16.7914 76.7 16.5994 76.7C16.1994 76.7 15.8714 76.828 15.6154 77.084C15.3594 77.34 15.2314 77.728 15.2314 78.248ZM18.9912 81.5V75.8H20.0712V81.5H18.9912ZM22.8432 81.5V78.056C22.8432 77.632 22.7112 77.3 22.4472 77.06C22.1912 76.812 21.8672 76.688 21.4752 76.688C21.2112 76.688 20.9752 76.744 20.7672 76.856C20.5592 76.968 20.3912 77.124 20.2632 77.324C20.1352 77.524 20.0712 77.764 20.0712 78.044L19.6272 77.828C19.6272 77.396 19.7192 77.02 19.9032 76.7C20.0952 76.38 20.3552 76.132 20.6832 75.956C21.0112 75.772 21.3792 75.68 21.7872 75.68C22.1872 75.68 22.5472 75.768 22.8672 75.944C23.1952 76.12 23.4512 76.368 23.6352 76.688C23.8272 77.008 23.9232 77.388 23.9232 77.828V81.5H22.8432ZM26.6952 81.5V78.056C26.6952 77.632 26.5632 77.3 26.2992 77.06C26.0432 76.812 25.7232 76.688 25.3392 76.688C25.0752 76.688 24.8352 76.744 24.6192 76.856C24.4112 76.968 24.2432 77.124 24.1152 77.324C23.9872 77.524 23.9232 77.764 23.9232 78.044L23.3112 77.828C23.3352 77.388 23.4512 77.012 23.6592 76.7C23.8752 76.38 24.1512 76.132 24.4872 75.956C24.8232 75.772 25.1912 75.68 25.5912 75.68C26.0072 75.68 26.3792 75.768 26.7072 75.944C27.0352 76.12 27.2952 76.368 27.4872 76.688C27.6872 77.008 27.7872 77.392 27.7872 77.84V81.5H26.6952ZM31.6808 81.62C31.1608 81.62 30.6888 81.492 30.2648 81.236C29.8408 80.972 29.5048 80.616 29.2568 80.168C29.0168 79.72 28.8968 79.216 28.8968 78.656C28.8968 78.096 29.0168 77.592 29.2568 77.144C29.5048 76.696 29.8368 76.34 30.2528 76.076C30.6768 75.812 31.1528 75.68 31.6808 75.68C32.1128 75.68 32.4968 75.772 32.8328 75.956C33.1768 76.132 33.4528 76.38 33.6608 76.7C33.8688 77.012 33.9848 77.376 34.0088 77.792V79.508C33.9848 79.916 33.8688 80.28 33.6608 80.6C33.4608 80.92 33.1888 81.172 32.8448 81.356C32.5088 81.532 32.1208 81.62 31.6808 81.62ZM31.8608 80.6C32.3968 80.6 32.8288 80.42 33.1568 80.06C33.4848 79.692 33.6488 79.224 33.6488 78.656C33.6488 78.264 33.5728 77.924 33.4208 77.636C33.2768 77.34 33.0688 77.112 32.7968 76.952C32.5248 76.784 32.2088 76.7 31.8488 76.7C31.4888 76.7 31.1688 76.784 30.8888 76.952C30.6168 77.12 30.4008 77.352 30.2408 77.648C30.0888 77.936 30.0128 78.268 30.0128 78.644C30.0128 79.028 30.0888 79.368 30.2408 79.664C30.4008 79.952 30.6208 80.18 30.9008 80.348C31.1808 80.516 31.5008 80.6 31.8608 80.6ZM33.5768 81.5V79.964L33.7808 78.572L33.5768 77.192V75.8H34.6688V81.5H33.5768ZM37.0938 81.5V73.412H38.1738V81.5H37.0938ZM35.6898 76.784V75.8H39.5778V76.784H35.6898ZM45.0038 81.548L42.5318 75.8H43.7318L45.5678 80.3H45.1838L47.1158 75.8H48.3158L45.6518 81.548H45.0038ZM43.3718 83.888L45.0518 80.444L45.6518 81.548L44.5718 83.888H43.3718ZM51.4035 81.62C50.8835 81.62 50.4115 81.492 49.9875 81.236C49.5635 80.972 49.2275 80.616 48.9795 80.168C48.7395 79.72 48.6195 79.216 48.6195 78.656C48.6195 78.096 48.7395 77.592 48.9795 77.144C49.2275 76.696 49.5595 76.34 49.9755 76.076C50.3995 75.812 50.8755 75.68 51.4035 75.68C51.8355 75.68 52.2195 75.772 52.5555 75.956C52.8995 76.132 53.1755 76.38 53.3835 76.7C53.5915 77.012 53.7075 77.376 53.7315 77.792V79.508C53.7075 79.916 53.5915 80.28 53.3835 80.6C53.1835 80.92 52.9115 81.172 52.5675 81.356C52.2315 81.532 51.8435 81.62 51.4035 81.62ZM51.5835 80.6C52.1195 80.6 52.5515 80.42 52.8795 80.06C53.2075 79.692 53.3715 79.224 53.3715 78.656C53.3715 78.264 53.2955 77.924 53.1435 77.636C52.9995 77.34 52.7915 77.112 52.5195 76.952C52.2475 76.784 51.9315 76.7 51.5715 76.7C51.2115 76.7 50.8915 76.784 50.6115 76.952C50.3395 77.12 50.1235 77.352 49.9635 77.648C49.8115 77.936 49.7355 78.268 49.7355 78.644C49.7355 79.028 49.8115 79.368 49.9635 79.664C50.1235 79.952 50.3435 80.18 50.6235 80.348C50.9035 80.516 51.2235 80.6 51.5835 80.6ZM53.2995 81.5V79.964L53.5035 78.572L53.2995 77.192V75.8H54.3915V81.5H53.2995ZM59.9959 81.5V78.176C59.9959 77.744 59.8599 77.388 59.5879 77.108C59.3159 76.828 58.9639 76.688 58.5319 76.688C58.2439 76.688 57.9879 76.752 57.7639 76.88C57.5399 77.008 57.3639 77.184 57.2359 77.408C57.1079 77.632 57.0439 77.888 57.0439 78.176L56.5999 77.924C56.5999 77.492 56.6959 77.108 56.8879 76.772C57.0799 76.436 57.3479 76.172 57.6919 75.98C58.0359 75.78 58.4239 75.68 58.8559 75.68C59.2879 75.68 59.6679 75.788 59.9959 76.004C60.3319 76.22 60.5959 76.504 60.7879 76.856C60.9799 77.2 61.0759 77.568 61.0759 77.96V81.5H59.9959ZM55.9639 81.5V75.8H57.0439V81.5H55.9639ZM64.9021 84.008C64.3181 84.008 63.7981 83.9 63.3421 83.684C62.8941 83.468 62.5341 83.164 62.2621 82.772L62.9581 82.064C63.1901 82.36 63.4661 82.584 63.7861 82.736C64.1061 82.896 64.4861 82.976 64.9261 82.976C65.5101 82.976 65.9701 82.82 66.3061 82.508C66.6501 82.204 66.8221 81.792 66.8221 81.272V79.856L67.0141 78.572L66.8221 77.3V75.8H67.9021V81.272C67.9021 81.816 67.7741 82.292 67.5181 82.7C67.2701 83.108 66.9181 83.428 66.4621 83.66C66.0141 83.892 65.4941 84.008 64.9021 84.008ZM64.9021 81.404C64.3821 81.404 63.9141 81.28 63.4981 81.032C63.0901 80.784 62.7661 80.444 62.5261 80.012C62.2861 79.572 62.1661 79.08 62.1661 78.536C62.1661 77.992 62.2861 77.508 62.5261 77.084C62.7661 76.652 63.0901 76.312 63.4981 76.064C63.9141 75.808 64.3821 75.68 64.9021 75.68C65.3501 75.68 65.7461 75.768 66.0901 75.944C66.4341 76.12 66.7061 76.368 66.9061 76.688C67.1141 77 67.2261 77.368 67.2421 77.792V79.304C67.2181 79.72 67.1021 80.088 66.8941 80.408C66.6941 80.72 66.4221 80.964 66.0781 81.14C65.7341 81.316 65.3421 81.404 64.9021 81.404ZM65.1181 80.384C65.4701 80.384 65.7781 80.308 66.0421 80.156C66.3141 80.004 66.5221 79.792 66.6661 79.52C66.8101 79.24 66.8821 78.916 66.8821 78.548C66.8821 78.18 66.8061 77.86 66.6541 77.588C66.5101 77.308 66.3061 77.092 66.0421 76.94C65.7781 76.78 65.4661 76.7 65.1061 76.7C64.7461 76.7 64.4301 76.78 64.1581 76.94C63.8861 77.092 63.6701 77.308 63.5101 77.588C63.3581 77.86 63.2821 78.176 63.2821 78.536C63.2821 78.896 63.3581 79.216 63.5101 79.496C63.6701 79.776 63.8861 79.996 64.1581 80.156C64.4381 80.308 64.7581 80.384 65.1181 80.384ZM74.3954 81.62C73.8674 81.62 73.3954 81.492 72.9794 81.236C72.5634 80.972 72.2314 80.616 71.9834 80.168C71.7434 79.72 71.6234 79.216 71.6234 78.656C71.6234 78.096 71.7434 77.592 71.9834 77.144C72.2314 76.696 72.5634 76.34 72.9794 76.076C73.3954 75.812 73.8674 75.68 74.3954 75.68C74.8194 75.68 75.2034 75.772 75.5474 75.956C75.8914 76.132 76.1674 76.38 76.3754 76.7C76.5914 77.012 76.7114 77.376 76.7354 77.792V79.508C76.7114 79.916 76.5954 80.28 76.3874 80.6C76.1794 80.92 75.9034 81.172 75.5594 81.356C75.2154 81.532 74.8274 81.62 74.3954 81.62ZM74.5754 80.6C74.9354 80.6 75.2474 80.516 75.5114 80.348C75.7834 80.18 75.9954 79.952 76.1474 79.664C76.2994 79.368 76.3754 79.032 76.3754 78.656C76.3754 78.264 76.2954 77.924 76.1354 77.636C75.9834 77.348 75.7714 77.12 75.4994 76.952C75.2354 76.784 74.9234 76.7 74.5634 76.7C74.2034 76.7 73.8874 76.784 73.6154 76.952C73.3434 77.12 73.1274 77.352 72.9674 77.648C72.8154 77.936 72.7394 78.268 72.7394 78.644C72.7394 79.028 72.8154 79.368 72.9674 79.664C73.1274 79.952 73.3434 80.18 73.6154 80.348C73.8954 80.516 74.2154 80.6 74.5754 80.6ZM77.3954 81.5H76.3034V79.964L76.5074 78.572L76.3034 77.192V72.932H77.3954V81.5ZM78.9798 81.5V75.8H80.0598V81.5H78.9798ZM79.5198 74.66C79.3198 74.66 79.1558 74.596 79.0278 74.468C78.8998 74.332 78.8358 74.164 78.8358 73.964C78.8358 73.772 78.8998 73.612 79.0278 73.484C79.1558 73.348 79.3198 73.28 79.5198 73.28C79.7198 73.28 79.8838 73.348 80.0118 73.484C80.1398 73.612 80.2038 73.772 80.2038 73.964C80.2038 74.164 80.1398 74.332 80.0118 74.468C79.8838 74.596 79.7198 74.66 79.5198 74.66ZM84.0634 81.62C83.5354 81.62 83.0634 81.492 82.6474 81.236C82.2314 80.972 81.8994 80.616 81.6514 80.168C81.4114 79.72 81.2914 79.216 81.2914 78.656C81.2914 78.096 81.4114 77.592 81.6514 77.144C81.8994 76.696 82.2314 76.34 82.6474 76.076C83.0634 75.812 83.5354 75.68 84.0634 75.68C84.4874 75.68 84.8714 75.772 85.2154 75.956C85.5594 76.132 85.8354 76.38 86.0434 76.7C86.2594 77.012 86.3794 77.376 86.4034 77.792V79.508C86.3794 79.916 86.2634 80.28 86.0554 80.6C85.8474 80.92 85.5714 81.172 85.2274 81.356C84.8834 81.532 84.4954 81.62 84.0634 81.62ZM84.2434 80.6C84.6034 80.6 84.9154 80.516 85.1794 80.348C85.4514 80.18 85.6634 79.952 85.8154 79.664C85.9674 79.368 86.0434 79.032 86.0434 78.656C86.0434 78.264 85.9634 77.924 85.8034 77.636C85.6514 77.348 85.4394 77.12 85.1674 76.952C84.9034 76.784 84.5914 76.7 84.2314 76.7C83.8714 76.7 83.5554 76.784 83.2834 76.952C83.0114 77.12 82.7954 77.352 82.6354 77.648C82.4834 77.936 82.4074 78.268 82.4074 78.644C82.4074 79.028 82.4834 79.368 82.6354 79.664C82.7954 79.952 83.0114 80.18 83.2834 80.348C83.5634 80.516 83.8834 80.6 84.2434 80.6ZM87.0634 81.5H85.9714V79.964L86.1754 78.572L85.9714 77.192V72.932H87.0634V81.5ZM90.9277 81.62C90.4638 81.62 90.0438 81.516 89.6678 81.308C89.2998 81.092 89.0118 80.796 88.8038 80.42C88.5958 80.044 88.4918 79.608 88.4918 79.112V75.8H89.5718V79.064C89.5718 79.376 89.6238 79.648 89.7278 79.88C89.8398 80.104 89.9998 80.276 90.2078 80.396C90.4158 80.516 90.6598 80.576 90.9398 80.576C91.3638 80.576 91.6958 80.444 91.9358 80.18C92.1758 79.908 92.2958 79.536 92.2958 79.064V75.8H93.3758V79.112C93.3758 79.608 93.2718 80.044 93.0638 80.42C92.8558 80.796 92.5678 81.092 92.1998 81.308C91.8398 81.516 91.4158 81.62 90.9277 81.62ZM98.4713 81.5L95.8073 78.584L98.4473 75.8H99.7553L96.8153 78.872L96.8633 78.248L99.8633 81.5H98.4713ZM94.8232 81.5V72.932H95.9033V81.5H94.8232ZM102.881 81.62C102.417 81.62 101.997 81.516 101.621 81.308C101.253 81.092 100.965 80.796 100.757 80.42C100.549 80.044 100.445 79.608 100.445 79.112V75.8H101.525V79.064C101.525 79.376 101.577 79.648 101.681 79.88C101.793 80.104 101.953 80.276 102.161 80.396C102.369 80.516 102.613 80.576 102.893 80.576C103.317 80.576 103.649 80.444 103.889 80.18C104.129 79.908 104.249 79.536 104.249 79.064V75.8H105.329V79.112C105.329 79.608 105.225 80.044 105.017 80.42C104.809 80.796 104.521 81.092 104.153 81.308C103.793 81.516 103.369 81.62 102.881 81.62ZM110.808 81.5V78.176C110.808 77.744 110.672 77.388 110.4 77.108C110.128 76.828 109.776 76.688 109.344 76.688C109.056 76.688 108.8 76.752 108.576 76.88C108.352 77.008 108.176 77.184 108.048 77.408C107.92 77.632 107.856 77.888 107.856 78.176L107.412 77.924C107.412 77.492 107.508 77.108 107.7 76.772C107.892 76.436 108.16 76.172 108.504 75.98C108.848 75.78 109.236 75.68 109.668 75.68C110.1 75.68 110.48 75.788 110.808 76.004C111.144 76.22 111.408 76.504 111.6 76.856C111.792 77.2 111.888 77.568 111.888 77.96V81.5H110.808ZM106.776 81.5V75.8H107.856V81.5H106.776ZM115.715 84.008C115.131 84.008 114.611 83.9 114.155 83.684C113.707 83.468 113.347 83.164 113.075 82.772L113.771 82.064C114.003 82.36 114.279 82.584 114.599 82.736C114.919 82.896 115.299 82.976 115.739 82.976C116.323 82.976 116.783 82.82 117.119 82.508C117.463 82.204 117.635 81.792 117.635 81.272V79.856L117.827 78.572L117.635 77.3V75.8H118.715V81.272C118.715 81.816 118.587 82.292 118.331 82.7C118.083 83.108 117.731 83.428 117.275 83.66C116.827 83.892 116.307 84.008 115.715 84.008ZM115.715 81.404C115.195 81.404 114.727 81.28 114.311 81.032C113.903 80.784 113.579 80.444 113.339 80.012C113.099 79.572 112.979 79.08 112.979 78.536C112.979 77.992 113.099 77.508 113.339 77.084C113.579 76.652 113.903 76.312 114.311 76.064C114.727 75.808 115.195 75.68 115.715 75.68C116.163 75.68 116.559 75.768 116.903 75.944C117.247 76.12 117.519 76.368 117.719 76.688C117.927 77 118.039 77.368 118.055 77.792V79.304C118.031 79.72 117.915 80.088 117.707 80.408C117.507 80.72 117.235 80.964 116.891 81.14C116.547 81.316 116.155 81.404 115.715 81.404ZM115.931 80.384C116.283 80.384 116.591 80.308 116.855 80.156C117.127 80.004 117.335 79.792 117.479 79.52C117.623 79.24 117.695 78.916 117.695 78.548C117.695 78.18 117.619 77.86 117.467 77.588C117.323 77.308 117.119 77.092 116.855 76.94C116.591 76.78 116.279 76.7 115.919 76.7C115.559 76.7 115.243 76.78 114.971 76.94C114.699 77.092 114.483 77.308 114.323 77.588C114.171 77.86 114.095 78.176 114.095 78.536C114.095 78.896 114.171 79.216 114.323 79.496C114.483 79.776 114.699 79.996 114.971 80.156C115.251 80.308 115.571 80.384 115.931 80.384ZM123.744 78.26V77.276H126.012C126.324 77.276 126.6 77.212 126.84 77.084C127.088 76.956 127.28 76.776 127.416 76.544C127.56 76.312 127.632 76.036 127.632 75.716C127.632 75.396 127.56 75.12 127.416 74.888C127.28 74.656 127.088 74.476 126.84 74.348C126.6 74.22 126.324 74.156 126.012 74.156H123.744V73.172H126.084C126.596 73.172 127.052 73.276 127.452 73.484C127.86 73.692 128.18 73.988 128.412 74.372C128.652 74.748 128.772 75.196 128.772 75.716C128.772 76.228 128.652 76.676 128.412 77.06C128.18 77.436 127.86 77.732 127.452 77.948C127.052 78.156 126.596 78.26 126.084 78.26H123.744ZM122.988 81.5V73.172H124.116V81.5H122.988ZM130.172 81.5V73.172H130.964L131.3 74.48V81.5H130.172ZM135.932 81.5L130.82 74.672L130.964 73.172L136.088 79.988L135.932 81.5ZM135.932 81.5L135.596 80.264V73.172H136.724V81.5H135.932ZM142.459 81.62C141.875 81.62 141.327 81.512 140.815 81.296C140.311 81.072 139.867 80.764 139.483 80.372C139.107 79.98 138.811 79.524 138.595 79.004C138.379 78.484 138.271 77.924 138.271 77.324C138.271 76.724 138.379 76.168 138.595 75.656C138.811 75.136 139.111 74.68 139.495 74.288C139.879 73.896 140.327 73.592 140.839 73.376C141.359 73.16 141.923 73.052 142.531 73.052C143.195 73.052 143.807 73.18 144.367 73.436C144.927 73.692 145.395 74.06 145.771 74.54L144.991 75.32C144.727 74.936 144.379 74.644 143.947 74.444C143.515 74.236 143.043 74.132 142.531 74.132C141.923 74.132 141.383 74.268 140.911 74.54C140.447 74.812 140.083 75.188 139.819 75.668C139.563 76.148 139.435 76.7 139.435 77.324C139.435 77.956 139.567 78.512 139.831 78.992C140.095 79.472 140.451 79.848 140.899 80.12C141.347 80.392 141.859 80.528 142.435 80.528C143.019 80.528 143.523 80.416 143.947 80.192C144.379 79.968 144.711 79.64 144.943 79.208C145.175 78.768 145.291 78.232 145.291 77.6L145.975 78.092H142.375V77.06H146.455V77.228C146.455 78.196 146.283 79.008 145.939 79.664C145.603 80.312 145.131 80.8 144.523 81.128C143.923 81.456 143.235 81.62 142.459 81.62ZM147.336 82.82L148.08 81.392L148.464 81.296C148.424 81.384 148.372 81.456 148.308 81.512C148.252 81.568 148.18 81.596 148.092 81.596C147.924 81.596 147.768 81.528 147.624 81.392C147.488 81.248 147.42 81.072 147.42 80.864C147.42 80.632 147.496 80.44 147.648 80.288C147.8 80.128 147.992 80.048 148.224 80.048C148.432 80.048 148.616 80.128 148.776 80.288C148.936 80.44 149.016 80.632 149.016 80.864C149.016 80.952 148.996 81.06 148.956 81.188C148.924 81.308 148.856 81.464 148.752 81.656L147.96 83.156L147.336 82.82ZM154.465 81.62C153.985 81.62 153.561 81.528 153.193 81.344C152.833 81.152 152.537 80.896 152.305 80.576L153.097 79.844C153.249 80.068 153.437 80.24 153.661 80.36C153.893 80.48 154.149 80.54 154.429 80.54C154.709 80.54 154.957 80.48 155.173 80.36C155.389 80.24 155.557 80.064 155.677 79.832C155.805 79.592 155.869 79.3 155.869 78.956V73.172H156.997V78.896C156.997 79.448 156.885 79.928 156.661 80.336C156.445 80.744 156.145 81.06 155.761 81.284C155.385 81.508 154.953 81.62 154.465 81.62ZM159.627 78.26V77.276H161.895C162.207 77.276 162.483 77.212 162.723 77.084C162.971 76.956 163.163 76.776 163.299 76.544C163.443 76.312 163.515 76.036 163.515 75.716C163.515 75.396 163.443 75.12 163.299 74.888C163.163 74.656 162.971 74.476 162.723 74.348C162.483 74.22 162.207 74.156 161.895 74.156H159.627V73.172H161.967C162.479 73.172 162.935 73.276 163.335 73.484C163.743 73.692 164.063 73.988 164.295 74.372C164.535 74.748 164.655 75.196 164.655 75.716C164.655 76.228 164.535 76.676 164.295 77.06C164.063 77.436 163.743 77.732 163.335 77.948C162.935 78.156 162.479 78.26 161.967 78.26H159.627ZM158.871 81.5V73.172H159.999V81.5H158.871ZM166.054 81.5V73.172H167.182V81.5H166.054ZM166.822 81.5V80.468H171.598V81.5H166.822ZM166.822 77.732V76.748H171.202V77.732H166.822ZM166.822 74.204V73.172H171.538V74.204H166.822ZM176.725 81.62C176.141 81.62 175.593 81.512 175.081 81.296C174.577 81.072 174.133 80.764 173.749 80.372C173.373 79.98 173.077 79.524 172.861 79.004C172.645 78.484 172.537 77.924 172.537 77.324C172.537 76.724 172.645 76.168 172.861 75.656C173.077 75.136 173.377 74.68 173.761 74.288C174.145 73.896 174.593 73.592 175.105 73.376C175.625 73.16 176.189 73.052 176.797 73.052C177.461 73.052 178.073 73.18 178.633 73.436C179.193 73.692 179.661 74.06 180.037 74.54L179.257 75.32C178.993 74.936 178.645 74.644 178.213 74.444C177.781 74.236 177.309 74.132 176.797 74.132C176.189 74.132 175.649 74.268 175.177 74.54C174.713 74.812 174.349 75.188 174.085 75.668C173.829 76.148 173.701 76.7 173.701 77.324C173.701 77.956 173.833 78.512 174.097 78.992C174.361 79.472 174.717 79.848 175.165 80.12C175.613 80.392 176.125 80.528 176.701 80.528C177.285 80.528 177.789 80.416 178.213 80.192C178.645 79.968 178.977 79.64 179.209 79.208C179.441 78.768 179.557 78.232 179.557 77.6L180.241 78.092H176.641V77.06H180.721V77.228C180.721 78.196 180.549 79.008 180.205 79.664C179.869 80.312 179.397 80.8 178.789 81.128C178.189 81.456 177.501 81.62 176.725 81.62Z" fill="#AEAEAE"/>
</svg>
