<svg width="91" height="76" viewBox="0 0 91 76" fill="none" xmlns="http://www.w3.org/2000/svg">
<path d="M49.2383 10.9545C49.2383 10.822 49.2008 10.7131 49.1258 10.6278L44.7258 5.62784C44.6508 5.54261 44.5549 5.5 44.4383 5.5C44.3216 5.5 44.2258 5.54261 44.1508 5.62784L39.7633 10.6136C39.6799 10.7273 39.6383 10.8409 39.6383 10.9545C39.6383 11.0871 39.6758 11.196 39.7508 11.2813C39.8258 11.3665 39.9216 11.4091 40.0383 11.4091H42.8383V16.4091C42.8383 16.5322 42.8779 16.6387 42.957 16.7287C43.0362 16.8187 43.1299 16.8636 43.2383 16.8636H45.6383C45.7466 16.8636 45.8404 16.8187 45.9195 16.7287C45.9987 16.6387 46.0383 16.5322 46.0383 16.4091V11.4091H48.8383C48.9466 11.4091 49.0404 11.3641 49.1195 11.2741C49.1987 11.1842 49.2383 11.0777 49.2383 10.9545ZM57.2383 15.0455C57.2383 16.5511 56.7695 17.8366 55.832 18.902C54.8945 19.9673 53.7633 20.5 52.4383 20.5H38.8383C37.2966 20.5 35.9779 19.8774 34.882 18.6321C33.7862 17.3868 33.2383 15.8883 33.2383 14.1364C33.2383 12.9053 33.5299 11.7689 34.1133 10.7273C34.6966 9.68561 35.4799 8.90436 36.4633 8.38352C36.4466 8.09943 36.4383 7.89583 36.4383 7.77273C36.4383 5.76515 37.0633 4.05114 38.3133 2.63068C39.5633 1.21023 41.0716 0.5 42.8383 0.5C44.1383 0.5 45.3279 0.911932 46.407 1.7358C47.4862 2.55966 48.2716 3.65341 48.7633 5.01705C49.3549 4.42992 50.0466 4.13636 50.8383 4.13636C51.7216 4.13636 52.4758 4.49148 53.1008 5.2017C53.7258 5.91193 54.0383 6.76894 54.0383 7.77273C54.0383 8.49242 53.8674 9.14583 53.5258 9.73295C54.6091 10.0265 55.4987 10.6681 56.1945 11.6577C56.8904 12.6473 57.2383 13.7765 57.2383 15.0455Z" fill="#524FA0"/>
<path d="M14.1242 35.474C14.4788 35.53 14.8008 35.6747 15.0902 35.908C15.3888 36.1413 15.6222 36.4307 15.7902 36.776C15.9675 37.1213 16.0562 37.49 16.0562 37.882C16.0562 38.3767 15.9302 38.8247 15.6782 39.226C15.4262 39.618 15.0575 39.9307 14.5722 40.164C14.0962 40.388 13.5315 40.5 12.8782 40.5H9.23816V30.742H12.7382C13.4008 30.742 13.9655 30.854 14.4322 31.078C14.8988 31.2927 15.2488 31.5867 15.4822 31.96C15.7155 32.3333 15.8322 32.7533 15.8322 33.22C15.8322 33.7987 15.6735 34.2793 15.3562 34.662C15.0482 35.0353 14.6375 35.306 14.1242 35.474ZM10.5122 34.956H12.6542C13.2515 34.956 13.7135 34.816 14.0402 34.536C14.3668 34.256 14.5302 33.8687 14.5302 33.374C14.5302 32.8793 14.3668 32.492 14.0402 32.212C13.7135 31.932 13.2422 31.792 12.6262 31.792H10.5122V34.956ZM12.7662 39.45C13.4008 39.45 13.8955 39.3007 14.2502 39.002C14.6048 38.7033 14.7822 38.288 14.7822 37.756C14.7822 37.2147 14.5955 36.79 14.2222 36.482C13.8488 36.1647 13.3495 36.006 12.7242 36.006H10.5122V39.45H12.7662ZM19.0981 34.074C19.3221 33.6353 19.6394 33.2947 20.0501 33.052C20.4701 32.8093 20.9788 32.688 21.5761 32.688V34.004H21.2401C19.8121 34.004 19.0981 34.7787 19.0981 36.328V40.5H17.8241V32.828H19.0981V34.074ZM26.3928 40.626C25.6741 40.626 25.0208 40.4627 24.4328 40.136C23.8541 39.8093 23.3968 39.3473 23.0608 38.75C22.7341 38.1433 22.5708 37.4433 22.5708 36.65C22.5708 35.866 22.7388 35.1753 23.0748 34.578C23.4201 33.9713 23.8868 33.5093 24.4748 33.192C25.0628 32.8653 25.7208 32.702 26.4488 32.702C27.1768 32.702 27.8348 32.8653 28.4228 33.192C29.0108 33.5093 29.4728 33.9667 29.8088 34.564C30.1541 35.1613 30.3268 35.8567 30.3268 36.65C30.3268 37.4433 30.1494 38.1433 29.7948 38.75C29.4494 39.3473 28.9781 39.8093 28.3808 40.136C27.7834 40.4627 27.1208 40.626 26.3928 40.626ZM26.3928 39.506C26.8501 39.506 27.2794 39.3987 27.6808 39.184C28.0821 38.9693 28.4041 38.6473 28.6468 38.218C28.8988 37.7887 29.0248 37.266 29.0248 36.65C29.0248 36.034 28.9034 35.5113 28.6608 35.082C28.4181 34.6527 28.1008 34.3353 27.7088 34.13C27.3168 33.9153 26.8921 33.808 26.4348 33.808C25.9681 33.808 25.5388 33.9153 25.1468 34.13C24.7641 34.3353 24.4561 34.6527 24.2228 35.082C23.9894 35.5113 23.8728 36.034 23.8728 36.65C23.8728 37.2753 23.9848 37.8027 24.2088 38.232C24.4421 38.6613 24.7501 38.9833 25.1328 39.198C25.5154 39.4033 25.9354 39.506 26.3928 39.506ZM42.2218 32.828L39.8278 40.5H38.5118L36.6638 34.41L34.8158 40.5H33.4998L31.0918 32.828H32.3938L34.1578 39.268L36.0618 32.828H37.3638L39.2258 39.282L40.9618 32.828H42.2218ZM46.2022 40.626C45.6142 40.626 45.0869 40.528 44.6202 40.332C44.1535 40.1267 43.7849 39.8467 43.5142 39.492C43.2435 39.128 43.0942 38.7127 43.0662 38.246H44.3822C44.4195 38.6287 44.5969 38.9413 44.9142 39.184C45.2409 39.4267 45.6655 39.548 46.1882 39.548C46.6735 39.548 47.0562 39.4407 47.3362 39.226C47.6162 39.0113 47.7562 38.7407 47.7562 38.414C47.7562 38.078 47.6069 37.8307 47.3082 37.672C47.0095 37.504 46.5475 37.3407 45.9222 37.182C45.3529 37.0327 44.8862 36.8833 44.5222 36.734C44.1675 36.5753 43.8595 36.3467 43.5982 36.048C43.3462 35.74 43.2202 35.3387 43.2202 34.844C43.2202 34.452 43.3369 34.0927 43.5702 33.766C43.8035 33.4393 44.1349 33.1827 44.5642 32.996C44.9935 32.8 45.4835 32.702 46.0342 32.702C46.8835 32.702 47.5695 32.9167 48.0922 33.346C48.6149 33.7753 48.8949 34.3633 48.9322 35.11H47.6582C47.6302 34.7087 47.4669 34.3867 47.1682 34.144C46.8789 33.9013 46.4869 33.78 45.9922 33.78C45.5349 33.78 45.1709 33.878 44.9002 34.074C44.6295 34.27 44.4942 34.5267 44.4942 34.844C44.4942 35.096 44.5735 35.306 44.7322 35.474C44.9002 35.6327 45.1055 35.7633 45.3482 35.866C45.6002 35.9593 45.9455 36.0667 46.3842 36.188C46.9349 36.3373 47.3829 36.4867 47.7282 36.636C48.0735 36.776 48.3675 36.9907 48.6102 37.28C48.8622 37.5693 48.9929 37.9473 49.0022 38.414C49.0022 38.834 48.8855 39.212 48.6522 39.548C48.4189 39.884 48.0875 40.15 47.6582 40.346C47.2382 40.5327 46.7529 40.626 46.2022 40.626ZM57.8007 36.37C57.8007 36.6127 57.7867 36.8693 57.7587 37.14H51.6267C51.6733 37.896 51.93 38.4887 52.3967 38.918C52.8727 39.338 53.4467 39.548 54.1187 39.548C54.6693 39.548 55.1267 39.422 55.4907 39.17C55.864 38.9087 56.1253 38.5633 56.2747 38.134H57.6467C57.4413 38.8713 57.0307 39.4733 56.4147 39.94C55.7987 40.3973 55.0333 40.626 54.1187 40.626C53.3907 40.626 52.7373 40.4627 52.1587 40.136C51.5893 39.8093 51.1413 39.3473 50.8147 38.75C50.488 38.1433 50.3247 37.4433 50.3247 36.65C50.3247 35.8567 50.4833 35.1613 50.8007 34.564C51.118 33.9667 51.5613 33.5093 52.1307 33.192C52.7093 32.8653 53.372 32.702 54.1187 32.702C54.8467 32.702 55.4907 32.8607 56.0507 33.178C56.6107 33.4953 57.04 33.934 57.3387 34.494C57.6467 35.0447 57.8007 35.67 57.8007 36.37ZM56.4847 36.104C56.4847 35.6187 56.3773 35.2033 56.1627 34.858C55.948 34.5033 55.654 34.2373 55.2807 34.06C54.9167 33.8733 54.5107 33.78 54.0627 33.78C53.4187 33.78 52.868 33.9853 52.4107 34.396C51.9627 34.8067 51.706 35.376 51.6407 36.104H56.4847ZM66.3367 33.878H64.7267V40.5H63.4527V33.878H62.4587V32.828H63.4527V32.282C63.4527 31.4233 63.6721 30.798 64.1107 30.406C64.5587 30.0047 65.2727 29.804 66.2527 29.804V30.868C65.6927 30.868 65.2961 30.98 65.0627 31.204C64.8387 31.4187 64.7267 31.778 64.7267 32.282V32.828H66.3367V33.878ZM68.4801 31.582C68.2375 31.582 68.0321 31.498 67.8641 31.33C67.6961 31.162 67.6121 30.9567 67.6121 30.714C67.6121 30.4713 67.6961 30.266 67.8641 30.098C68.0321 29.93 68.2375 29.846 68.4801 29.846C68.7135 29.846 68.9095 29.93 69.0681 30.098C69.2361 30.266 69.3201 30.4713 69.3201 30.714C69.3201 30.9567 69.2361 31.162 69.0681 31.33C68.9095 31.498 68.7135 31.582 68.4801 31.582ZM69.0961 32.828V40.5H67.8221V32.828H69.0961ZM72.5415 30.14V40.5H71.2675V30.14H72.5415ZM81.7128 36.37C81.7128 36.6127 81.6988 36.8693 81.6708 37.14H75.5388C75.5854 37.896 75.8421 38.4887 76.3088 38.918C76.7848 39.338 77.3588 39.548 78.0308 39.548C78.5814 39.548 79.0388 39.422 79.4028 39.17C79.7761 38.9087 80.0374 38.5633 80.1868 38.134H81.5588C81.3534 38.8713 80.9428 39.4733 80.3268 39.94C79.7108 40.3973 78.9454 40.626 78.0308 40.626C77.3028 40.626 76.6494 40.4627 76.0708 40.136C75.5014 39.8093 75.0534 39.3473 74.7268 38.75C74.4001 38.1433 74.2368 37.4433 74.2368 36.65C74.2368 35.8567 74.3954 35.1613 74.7128 34.564C75.0301 33.9667 75.4734 33.5093 76.0428 33.192C76.6214 32.8653 77.2841 32.702 78.0308 32.702C78.7588 32.702 79.4028 32.8607 79.9628 33.178C80.5228 33.4953 80.9521 33.934 81.2508 34.494C81.5588 35.0447 81.7128 35.67 81.7128 36.37ZM80.3968 36.104C80.3968 35.6187 80.2894 35.2033 80.0748 34.858C79.8601 34.5033 79.5661 34.2373 79.1928 34.06C78.8288 33.8733 78.4228 33.78 77.9748 33.78C77.3308 33.78 76.7801 33.9853 76.3228 34.396C75.8748 34.8067 75.6181 35.376 75.5528 36.104H80.3968Z" fill="#524FA0"/>
<path d="M11.7617 54.908V55.372H9.29766V57.46H11.3777V57.924H9.29766V60.5H8.73766V54.908H11.7617ZM14.595 60.564C14.1843 60.564 13.8136 60.4733 13.483 60.292C13.1576 60.1053 12.899 59.844 12.707 59.508C12.5203 59.1667 12.427 58.7693 12.427 58.316C12.427 57.8627 12.523 57.468 12.715 57.132C12.907 56.7907 13.1683 56.5293 13.499 56.348C13.8296 56.1613 14.2003 56.068 14.611 56.068C15.0216 56.068 15.3923 56.1613 15.723 56.348C16.059 56.5293 16.3203 56.7907 16.507 57.132C16.699 57.468 16.795 57.8627 16.795 58.316C16.795 58.764 16.699 59.1587 16.507 59.5C16.315 59.8413 16.051 60.1053 15.715 60.292C15.379 60.4733 15.0056 60.564 14.595 60.564ZM14.595 60.076C14.883 60.076 15.1496 60.012 15.395 59.884C15.6403 59.7507 15.8376 59.5533 15.987 59.292C16.1416 59.0253 16.219 58.7 16.219 58.316C16.219 57.932 16.1443 57.6093 15.995 57.348C15.8456 57.0813 15.6483 56.884 15.403 56.756C15.1576 56.6227 14.891 56.556 14.603 56.556C14.315 56.556 14.0483 56.6227 13.803 56.756C13.5576 56.884 13.3603 57.0813 13.211 57.348C13.067 57.6093 12.995 57.932 12.995 58.316C12.995 58.7 13.067 59.0253 13.211 59.292C13.3603 59.5533 13.555 59.7507 13.795 59.884C14.0403 60.012 14.307 60.076 14.595 60.076ZM18.3758 56.908C18.4984 56.636 18.6851 56.4253 18.9358 56.276C19.1918 56.1267 19.5038 56.052 19.8718 56.052V56.636H19.7198C19.3144 56.636 18.9891 56.7453 18.7438 56.964C18.4984 57.1827 18.3758 57.548 18.3758 58.06V60.5H17.8158V56.132H18.3758V56.908ZM25.9142 56.052C26.4262 56.052 26.8422 56.2147 27.1622 56.54C27.4876 56.86 27.6502 57.3267 27.6502 57.94V60.5H27.0982V58.004C27.0982 57.5293 26.9836 57.1667 26.7542 56.916C26.5249 56.6653 26.2129 56.54 25.8182 56.54C25.4076 56.54 25.0796 56.676 24.8342 56.948C24.5889 57.22 24.4662 57.6147 24.4662 58.132V60.5H23.9142V58.004C23.9142 57.5293 23.7996 57.1667 23.5702 56.916C23.3409 56.6653 23.0262 56.54 22.6262 56.54C22.2156 56.54 21.8876 56.676 21.6422 56.948C21.3969 57.22 21.2742 57.6147 21.2742 58.132V60.5H20.7142V56.132H21.2742V56.884C21.4129 56.612 21.6102 56.4067 21.8662 56.268C22.1222 56.124 22.4076 56.052 22.7222 56.052C23.1009 56.052 23.4316 56.1427 23.7142 56.324C24.0022 56.5053 24.2102 56.772 24.3382 57.124C24.4556 56.7773 24.6556 56.5133 24.9382 56.332C25.2262 56.1453 25.5516 56.052 25.9142 56.052ZM28.6379 58.308C28.6379 57.86 28.7259 57.468 28.9019 57.132C29.0832 56.7907 29.3312 56.5293 29.6459 56.348C29.9659 56.1613 30.3259 56.068 30.7259 56.068C31.1419 56.068 31.4992 56.164 31.7979 56.356C32.1019 56.548 32.3206 56.7933 32.4539 57.092V56.132H33.0139V60.5H32.4539V59.532C32.3152 59.8307 32.0939 60.0787 31.7899 60.276C31.4912 60.468 31.1339 60.564 30.7179 60.564C30.3232 60.564 29.9659 60.4707 29.6459 60.284C29.3312 60.0973 29.0832 59.8333 28.9019 59.492C28.7259 59.1507 28.6379 58.756 28.6379 58.308ZM32.4539 58.316C32.4539 57.964 32.3819 57.6547 32.2379 57.388C32.0939 57.1213 31.8966 56.916 31.6459 56.772C31.4006 56.628 31.1286 56.556 30.8299 56.556C30.5206 56.556 30.2432 56.6253 29.9979 56.764C29.7526 56.9027 29.5579 57.1053 29.4139 57.372C29.2752 57.6333 29.2059 57.9453 29.2059 58.308C29.2059 58.6653 29.2752 58.98 29.4139 59.252C29.5579 59.5187 29.7526 59.724 29.9979 59.868C30.2432 60.0067 30.5206 60.076 30.8299 60.076C31.1286 60.076 31.4006 60.004 31.6459 59.86C31.8966 59.716 32.0939 59.5107 32.2379 59.244C32.3819 58.9773 32.4539 58.668 32.4539 58.316ZM35.0203 56.604V59.316C35.0203 59.5827 35.071 59.7667 35.1723 59.868C35.2737 59.9693 35.4523 60.02 35.7083 60.02H36.2203V60.5H35.6203C35.2257 60.5 34.9323 60.4093 34.7403 60.228C34.5483 60.0413 34.4523 59.7373 34.4523 59.316V56.604H33.8443V56.132H34.4523V55.036H35.0203V56.132H36.2203V56.604H35.0203ZM39.4352 60.54C39.3179 60.54 39.2192 60.5 39.1392 60.42C39.0646 60.34 39.0272 60.2413 39.0272 60.124C39.0272 60.0067 39.0646 59.9107 39.1392 59.836C39.2192 59.756 39.3179 59.716 39.4352 59.716C39.5472 59.716 39.6406 59.756 39.7152 59.836C39.7952 59.9107 39.8352 60.0067 39.8352 60.124C39.8352 60.2413 39.7952 60.34 39.7152 60.42C39.6406 60.5 39.5472 60.54 39.4352 60.54ZM39.4352 57.06C39.3179 57.06 39.2192 57.02 39.1392 56.94C39.0646 56.86 39.0272 56.7613 39.0272 56.644C39.0272 56.5267 39.0646 56.4307 39.1392 56.356C39.2192 56.276 39.3179 56.236 39.4352 56.236C39.5472 56.236 39.6406 56.276 39.7152 56.356C39.7952 56.4307 39.8352 56.5267 39.8352 56.644C39.8352 56.7613 39.7952 56.86 39.7152 56.94C39.6406 57.02 39.5472 57.06 39.4352 57.06ZM45.5951 54.908V59.14C45.5951 59.5667 45.4644 59.9107 45.2031 60.172C44.9418 60.428 44.5924 60.556 44.1551 60.556C43.7018 60.556 43.3391 60.42 43.0671 60.148C42.8004 59.8707 42.6671 59.4973 42.6671 59.028H43.2351C43.2404 59.332 43.3151 59.58 43.4591 59.772C43.6084 59.964 43.8404 60.06 44.1551 60.06C44.4538 60.06 44.6751 59.972 44.8191 59.796C44.9631 59.62 45.0351 59.4013 45.0351 59.14V54.908H45.5951ZM50.5793 56.516C50.5793 56.996 50.4219 57.3827 50.1073 57.676C49.7926 57.9693 49.3206 58.116 48.6913 58.116H47.5633V60.5H47.0033V54.908H48.6913C49.3153 54.908 49.7846 55.0547 50.0993 55.348C50.4193 55.6413 50.5793 56.0307 50.5793 56.516ZM48.6913 57.636C49.5659 57.636 50.0033 57.2627 50.0033 56.516C50.0033 56.1427 49.8993 55.86 49.6913 55.668C49.4833 55.476 49.1499 55.38 48.6913 55.38H47.5633V57.636H48.6913ZM52.0789 55.364V57.452H54.1989V57.916H52.0789V60.036H54.4389V60.5H51.5189V54.9H54.4389V55.364H52.0789ZM59.9423 56.54C59.7823 56.172 59.537 55.884 59.2063 55.676C58.881 55.4627 58.497 55.356 58.0543 55.356C57.6383 55.356 57.265 55.452 56.9343 55.644C56.6037 55.836 56.3423 56.1107 56.1503 56.468C55.9583 56.82 55.8623 57.2307 55.8623 57.7C55.8623 58.1693 55.9583 58.5827 56.1503 58.94C56.3423 59.2973 56.6037 59.572 56.9343 59.764C57.265 59.956 57.6383 60.052 58.0543 60.052C58.4437 60.052 58.793 59.9693 59.1023 59.804C59.417 59.6333 59.6677 59.3933 59.8543 59.084C60.0463 58.7693 60.1557 58.404 60.1823 57.988H57.8303V57.532H60.7743V57.94C60.7477 58.4307 60.6143 58.876 60.3743 59.276C60.1343 59.6707 59.8117 59.9827 59.4063 60.212C59.0063 60.4413 58.5557 60.556 58.0543 60.556C57.537 60.556 57.0677 60.436 56.6463 60.196C56.225 59.9507 55.8917 59.612 55.6463 59.18C55.4063 58.7427 55.2863 58.2493 55.2863 57.7C55.2863 57.1507 55.4063 56.66 55.6463 56.228C55.8917 55.7907 56.225 55.452 56.6463 55.212C57.0677 54.9667 57.537 54.844 58.0543 54.844C58.6517 54.844 59.1743 54.9933 59.6223 55.292C60.0703 55.5907 60.3957 56.0067 60.5983 56.54H59.9423ZM62.3122 59.572L61.4802 61.668H61.0962L61.6882 59.572H62.3122ZM68.9543 56.516C68.9543 56.996 68.7969 57.3827 68.4823 57.676C68.1676 57.9693 67.6956 58.116 67.0663 58.116H65.9383V60.5H65.3783V54.908H67.0663C67.6903 54.908 68.1596 55.0547 68.4743 55.348C68.7943 55.6413 68.9543 56.0307 68.9543 56.516ZM67.0663 57.636C67.9409 57.636 68.3783 57.2627 68.3783 56.516C68.3783 56.1427 68.2743 55.86 68.0663 55.668C67.8583 55.476 67.5249 55.38 67.0663 55.38H65.9383V57.636H67.0663ZM74.1099 60.5H73.5499L70.4539 55.796V60.5H69.8939V54.908H70.4539L73.5499 59.604V54.908H74.1099V60.5ZM79.7783 56.54C79.6183 56.172 79.3729 55.884 79.0423 55.676C78.7169 55.4627 78.3329 55.356 77.8903 55.356C77.4743 55.356 77.1009 55.452 76.7703 55.644C76.4396 55.836 76.1783 56.1107 75.9863 56.468C75.7943 56.82 75.6983 57.2307 75.6983 57.7C75.6983 58.1693 75.7943 58.5827 75.9863 58.94C76.1783 59.2973 76.4396 59.572 76.7703 59.764C77.1009 59.956 77.4743 60.052 77.8903 60.052C78.2796 60.052 78.6289 59.9693 78.9383 59.804C79.2529 59.6333 79.5036 59.3933 79.6903 59.084C79.8823 58.7693 79.9916 58.404 80.0183 57.988H77.6663V57.532H80.6103V57.94C80.5836 58.4307 80.4503 58.876 80.2103 59.276C79.9703 59.6707 79.6476 59.9827 79.2423 60.212C78.8423 60.4413 78.3916 60.556 77.8903 60.556C77.3729 60.556 76.9036 60.436 76.4823 60.196C76.0609 59.9507 75.7276 59.612 75.4823 59.18C75.2423 58.7427 75.1223 58.2493 75.1223 57.7C75.1223 57.1507 75.2423 56.66 75.4823 56.228C75.7276 55.7907 76.0609 55.452 76.4823 55.212C76.9036 54.9667 77.3729 54.844 77.8903 54.844C78.4876 54.844 79.0103 54.9933 79.4583 55.292C79.9063 55.5907 80.2316 56.0067 80.4343 56.54H79.7783ZM82.1481 59.572L81.3161 61.668H80.9321L81.5241 59.572H82.1481ZM42.3996 68.516C42.3996 68.996 42.2423 69.3827 41.9276 69.676C41.6129 69.9693 41.1409 70.116 40.5116 70.116H39.3836V72.5H38.8236V66.908H40.5116C41.1356 66.908 41.6049 67.0547 41.9196 67.348C42.2396 67.6413 42.3996 68.0307 42.3996 68.516ZM40.5116 69.636C41.3863 69.636 41.8236 69.2627 41.8236 68.516C41.8236 68.1427 41.7196 67.86 41.5116 67.668C41.3036 67.476 40.9703 67.38 40.5116 67.38H39.3836V69.636H40.5116ZM44.9952 66.908C45.6139 66.908 46.1446 67.02 46.5872 67.244C47.0299 67.468 47.3686 67.7907 47.6032 68.212C47.8379 68.6333 47.9552 69.1347 47.9552 69.716C47.9552 70.292 47.8379 70.7907 47.6032 71.212C47.3686 71.628 47.0299 71.948 46.5872 72.172C46.1446 72.3907 45.6139 72.5 44.9952 72.5H43.3392V66.908H44.9952ZM44.9952 72.036C45.7739 72.036 46.3659 71.8333 46.7712 71.428C47.1819 71.0173 47.3872 70.4467 47.3872 69.716C47.3872 68.98 47.1819 68.4067 46.7712 67.996C46.3659 67.58 45.7739 67.372 44.9952 67.372H43.8992V72.036H44.9952ZM52.0117 66.908V67.372H49.5477V69.46H51.6277V69.924H49.5477V72.5H48.9877V66.908H52.0117Z" fill="#A0A0A0"/>
</svg>
