<svg width="91" height="80" viewBox="0 0 91 80" fill="none" xmlns="http://www.w3.org/2000/svg">
<path d="M43.2383 18.5C43.2383 19.6046 44.1337 20.5 45.2383 20.5C46.3429 20.5 47.2383 19.6046 47.2383 18.5V14.5H51.2383C52.3429 14.5 53.2383 13.6046 53.2383 12.5C53.2383 11.3954 52.3429 10.5 51.2383 10.5H47.2383V6.5C47.2383 5.39543 46.3429 4.5 45.2383 4.5C44.1337 4.5 43.2383 5.39543 43.2383 6.5V10.5L39.2383 10.5C38.1337 10.5 37.2383 11.3954 37.2383 12.5C37.2383 13.6046 38.1337 14.5 39.2383 14.5L43.2383 14.5V18.5Z" fill="#524FA0"/>
<path d="M9.64678 42.33H5.39078L4.60678 44.5H3.26278L6.79078 34.798H8.26078L11.7748 44.5H10.4308L9.64678 42.33ZM9.28278 41.294L7.51878 36.366L5.75478 41.294H9.28278ZM12.8364 40.636C12.8364 39.852 12.995 39.166 13.3124 38.578C13.6297 37.9807 14.0637 37.5187 14.6144 37.192C15.1744 36.8653 15.7997 36.702 16.4904 36.702C17.0877 36.702 17.643 36.842 18.1564 37.122C18.6697 37.3927 19.0617 37.752 19.3324 38.2V34.14H20.6204V44.5H19.3324V43.058C19.0804 43.5153 18.707 43.8933 18.2124 44.192C17.7177 44.4813 17.139 44.626 16.4764 44.626C15.795 44.626 15.1744 44.458 14.6144 44.122C14.0637 43.786 13.6297 43.3147 13.3124 42.708C12.995 42.1013 12.8364 41.4107 12.8364 40.636ZM19.3324 40.65C19.3324 40.0713 19.2157 39.5673 18.9824 39.138C18.749 38.7087 18.4317 38.382 18.0304 38.158C17.6384 37.9247 17.2044 37.808 16.7284 37.808C16.2524 37.808 15.8184 37.92 15.4264 38.144C15.0344 38.368 14.7217 38.6947 14.4884 39.124C14.255 39.5533 14.1384 40.0573 14.1384 40.636C14.1384 41.224 14.255 41.7373 14.4884 42.176C14.7217 42.6053 15.0344 42.9367 15.4264 43.17C15.8184 43.394 16.2524 43.506 16.7284 43.506C17.2044 43.506 17.6384 43.394 18.0304 43.17C18.4317 42.9367 18.749 42.6053 18.9824 42.176C19.2157 41.7373 19.3324 41.2287 19.3324 40.65ZM22.2973 40.636C22.2973 39.852 22.456 39.166 22.7733 38.578C23.0906 37.9807 23.5246 37.5187 24.0753 37.192C24.6353 36.8653 25.2606 36.702 25.9513 36.702C26.5486 36.702 27.104 36.842 27.6173 37.122C28.1306 37.3927 28.5226 37.752 28.7933 38.2V34.14H30.0813V44.5H28.7933V43.058C28.5413 43.5153 28.168 43.8933 27.6733 44.192C27.1786 44.4813 26.6 44.626 25.9373 44.626C25.256 44.626 24.6353 44.458 24.0753 44.122C23.5246 43.786 23.0906 43.3147 22.7733 42.708C22.456 42.1013 22.2973 41.4107 22.2973 40.636ZM28.7933 40.65C28.7933 40.0713 28.6766 39.5673 28.4433 39.138C28.21 38.7087 27.8926 38.382 27.4913 38.158C27.0993 37.9247 26.6653 37.808 26.1893 37.808C25.7133 37.808 25.2793 37.92 24.8873 38.144C24.4953 38.368 24.1826 38.6947 23.9493 39.124C23.716 39.5533 23.5993 40.0573 23.5993 40.636C23.5993 41.224 23.716 41.7373 23.9493 42.176C24.1826 42.6053 24.4953 42.9367 24.8873 43.17C25.2793 43.394 25.7133 43.506 26.1893 43.506C26.6653 43.506 27.0993 43.394 27.4913 43.17C27.8926 42.9367 28.21 42.6053 28.4433 42.176C28.6766 41.7373 28.7933 41.2287 28.7933 40.65ZM37.2407 34.742V44.5H35.9667V34.742H37.2407ZM48.638 36.688C49.2353 36.688 49.7673 36.814 50.234 37.066C50.7007 37.3087 51.0693 37.6773 51.34 38.172C51.6107 38.6667 51.746 39.2687 51.746 39.978V44.5H50.486V40.16C50.486 39.3947 50.2947 38.8113 49.912 38.41C49.5387 37.9993 49.03 37.794 48.386 37.794C47.7233 37.794 47.196 38.0087 46.804 38.438C46.412 38.858 46.216 39.4693 46.216 40.272V44.5H44.956V40.16C44.956 39.3947 44.7647 38.8113 44.382 38.41C44.0087 37.9993 43.5 37.794 42.856 37.794C42.1933 37.794 41.666 38.0087 41.274 38.438C40.882 38.858 40.686 39.4693 40.686 40.272V44.5H39.412V36.828H40.686V37.934C40.938 37.5327 41.274 37.2247 41.694 37.01C42.1233 36.7953 42.5947 36.688 43.108 36.688C43.752 36.688 44.3213 36.8327 44.816 37.122C45.3107 37.4113 45.6793 37.836 45.922 38.396C46.1367 37.8547 46.4913 37.4347 46.986 37.136C47.4807 36.8373 48.0313 36.688 48.638 36.688ZM53.3598 40.636C53.3598 39.852 53.5185 39.166 53.8358 38.578C54.1531 37.9807 54.5871 37.5187 55.1378 37.192C55.6978 36.8653 56.3185 36.702 56.9998 36.702C57.6718 36.702 58.2551 36.8467 58.7498 37.136C59.2445 37.4253 59.6131 37.7893 59.8558 38.228V36.828H61.1438V44.5H59.8558V43.072C59.6038 43.52 59.2258 43.8933 58.7218 44.192C58.2271 44.4813 57.6485 44.626 56.9858 44.626C56.3045 44.626 55.6885 44.458 55.1378 44.122C54.5871 43.786 54.1531 43.3147 53.8358 42.708C53.5185 42.1013 53.3598 41.4107 53.3598 40.636ZM59.8558 40.65C59.8558 40.0713 59.7391 39.5673 59.5058 39.138C59.2725 38.7087 58.9551 38.382 58.5538 38.158C58.1618 37.9247 57.7278 37.808 57.2518 37.808C56.7758 37.808 56.3418 37.92 55.9498 38.144C55.5578 38.368 55.2451 38.6947 55.0118 39.124C54.7785 39.5533 54.6618 40.0573 54.6618 40.636C54.6618 41.224 54.7785 41.7373 55.0118 42.176C55.2451 42.6053 55.5578 42.9367 55.9498 43.17C56.3418 43.394 56.7758 43.506 57.2518 43.506C57.7278 43.506 58.1618 43.394 58.5538 43.17C58.9551 42.9367 59.2725 42.6053 59.5058 42.176C59.7391 41.7373 59.8558 41.2287 59.8558 40.65ZM66.4608 36.702C67.1234 36.702 67.7021 36.8467 68.1968 37.136C68.7008 37.4253 69.0741 37.7893 69.3168 38.228V36.828H70.6048V44.668C70.6048 45.368 70.4554 45.9887 70.1568 46.53C69.8581 47.0807 69.4288 47.51 68.8688 47.818C68.3181 48.126 67.6741 48.28 66.9368 48.28C65.9288 48.28 65.0888 48.042 64.4168 47.566C63.7448 47.09 63.3481 46.4413 63.2268 45.62H64.4868C64.6268 46.0867 64.9161 46.46 65.3548 46.74C65.7934 47.0293 66.3208 47.174 66.9368 47.174C67.6368 47.174 68.2061 46.9547 68.6448 46.516C69.0928 46.0773 69.3168 45.4613 69.3168 44.668V43.058C69.0648 43.506 68.6914 43.8793 68.1968 44.178C67.7021 44.4767 67.1234 44.626 66.4608 44.626C65.7794 44.626 65.1588 44.458 64.5988 44.122C64.0481 43.786 63.6141 43.3147 63.2968 42.708C62.9794 42.1013 62.8208 41.4107 62.8208 40.636C62.8208 39.852 62.9794 39.166 63.2968 38.578C63.6141 37.9807 64.0481 37.5187 64.5988 37.192C65.1588 36.8653 65.7794 36.702 66.4608 36.702ZM69.3168 40.65C69.3168 40.0713 69.2001 39.5673 68.9668 39.138C68.7334 38.7087 68.4161 38.382 68.0148 38.158C67.6228 37.9247 67.1888 37.808 66.7128 37.808C66.2368 37.808 65.8028 37.92 65.4108 38.144C65.0188 38.368 64.7061 38.6947 64.4728 39.124C64.2394 39.5533 64.1228 40.0573 64.1228 40.636C64.1228 41.224 64.2394 41.7373 64.4728 42.176C64.7061 42.6053 65.0188 42.9367 65.4108 43.17C65.8028 43.394 66.2368 43.506 66.7128 43.506C67.1888 43.506 67.6228 43.394 68.0148 43.17C68.4161 42.9367 68.7334 42.6053 68.9668 42.176C69.2001 41.7373 69.3168 41.2287 69.3168 40.65ZM79.7577 40.37C79.7577 40.6127 79.7437 40.8693 79.7157 41.14H73.5837C73.6304 41.896 73.887 42.4887 74.3537 42.918C74.8297 43.338 75.4037 43.548 76.0757 43.548C76.6264 43.548 77.0837 43.422 77.4477 43.17C77.821 42.9087 78.0824 42.5633 78.2317 42.134H79.6037C79.3984 42.8713 78.9877 43.4733 78.3717 43.94C77.7557 44.3973 76.9904 44.626 76.0757 44.626C75.3477 44.626 74.6944 44.4627 74.1157 44.136C73.5464 43.8093 73.0984 43.3473 72.7717 42.75C72.445 42.1433 72.2817 41.4433 72.2817 40.65C72.2817 39.8567 72.4404 39.1613 72.7577 38.564C73.075 37.9667 73.5184 37.5093 74.0877 37.192C74.6664 36.8653 75.329 36.702 76.0757 36.702C76.8037 36.702 77.4477 36.8607 78.0077 37.178C78.5677 37.4953 78.997 37.934 79.2957 38.494C79.6037 39.0447 79.7577 39.67 79.7577 40.37ZM78.4417 40.104C78.4417 39.6187 78.3344 39.2033 78.1197 38.858C77.905 38.5033 77.611 38.2373 77.2377 38.06C76.8737 37.8733 76.4677 37.78 76.0197 37.78C75.3757 37.78 74.825 37.9853 74.3677 38.396C73.9197 38.8067 73.663 39.376 73.5977 40.104H78.4417ZM84.1553 44.626C83.5673 44.626 83.04 44.528 82.5733 44.332C82.1067 44.1267 81.738 43.8467 81.4673 43.492C81.1967 43.128 81.0473 42.7127 81.0193 42.246H82.3353C82.3727 42.6287 82.55 42.9413 82.8673 43.184C83.194 43.4267 83.6187 43.548 84.1413 43.548C84.6267 43.548 85.0093 43.4407 85.2893 43.226C85.5693 43.0113 85.7093 42.7407 85.7093 42.414C85.7093 42.078 85.56 41.8307 85.2613 41.672C84.9627 41.504 84.5007 41.3407 83.8753 41.182C83.306 41.0327 82.8393 40.8833 82.4753 40.734C82.1207 40.5753 81.8127 40.3467 81.5513 40.048C81.2993 39.74 81.1733 39.3387 81.1733 38.844C81.1733 38.452 81.29 38.0927 81.5233 37.766C81.7567 37.4393 82.088 37.1827 82.5173 36.996C82.9467 36.8 83.4367 36.702 83.9873 36.702C84.8367 36.702 85.5227 36.9167 86.0453 37.346C86.568 37.7753 86.848 38.3633 86.8853 39.11H85.6113C85.5833 38.7087 85.42 38.3867 85.1213 38.144C84.832 37.9013 84.44 37.78 83.9453 37.78C83.488 37.78 83.124 37.878 82.8533 38.074C82.5827 38.27 82.4473 38.5267 82.4473 38.844C82.4473 39.096 82.5267 39.306 82.6853 39.474C82.8533 39.6327 83.0587 39.7633 83.3013 39.866C83.5533 39.9593 83.8987 40.0667 84.3373 40.188C84.888 40.3373 85.336 40.4867 85.6813 40.636C86.0267 40.776 86.3207 40.9907 86.5633 41.28C86.8153 41.5693 86.946 41.9473 86.9553 42.414C86.9553 42.834 86.8387 43.212 86.6053 43.548C86.372 43.884 86.0407 44.15 85.6113 44.346C85.1913 44.5327 84.706 44.626 84.1553 44.626Z" fill="#524FA0"/>
<path d="M11.7617 58.908V59.372H9.29766V61.46H11.3777V61.924H9.29766V64.5H8.73766V58.908H11.7617ZM14.595 64.564C14.1843 64.564 13.8136 64.4733 13.483 64.292C13.1576 64.1053 12.899 63.844 12.707 63.508C12.5203 63.1667 12.427 62.7693 12.427 62.316C12.427 61.8627 12.523 61.468 12.715 61.132C12.907 60.7907 13.1683 60.5293 13.499 60.348C13.8296 60.1613 14.2003 60.068 14.611 60.068C15.0216 60.068 15.3923 60.1613 15.723 60.348C16.059 60.5293 16.3203 60.7907 16.507 61.132C16.699 61.468 16.795 61.8627 16.795 62.316C16.795 62.764 16.699 63.1587 16.507 63.5C16.315 63.8413 16.051 64.1053 15.715 64.292C15.379 64.4733 15.0056 64.564 14.595 64.564ZM14.595 64.076C14.883 64.076 15.1496 64.012 15.395 63.884C15.6403 63.7507 15.8376 63.5533 15.987 63.292C16.1416 63.0253 16.219 62.7 16.219 62.316C16.219 61.932 16.1443 61.6093 15.995 61.348C15.8456 61.0813 15.6483 60.884 15.403 60.756C15.1576 60.6227 14.891 60.556 14.603 60.556C14.315 60.556 14.0483 60.6227 13.803 60.756C13.5576 60.884 13.3603 61.0813 13.211 61.348C13.067 61.6093 12.995 61.932 12.995 62.316C12.995 62.7 13.067 63.0253 13.211 63.292C13.3603 63.5533 13.555 63.7507 13.795 63.884C14.0403 64.012 14.307 64.076 14.595 64.076ZM18.3758 60.908C18.4984 60.636 18.6851 60.4253 18.9358 60.276C19.1918 60.1267 19.5038 60.052 19.8718 60.052V60.636H19.7198C19.3144 60.636 18.9891 60.7453 18.7438 60.964C18.4984 61.1827 18.3758 61.548 18.3758 62.06V64.5H17.8158V60.132H18.3758V60.908ZM25.9142 60.052C26.4262 60.052 26.8422 60.2147 27.1622 60.54C27.4876 60.86 27.6502 61.3267 27.6502 61.94V64.5H27.0982V62.004C27.0982 61.5293 26.9836 61.1667 26.7542 60.916C26.5249 60.6653 26.2129 60.54 25.8182 60.54C25.4076 60.54 25.0796 60.676 24.8342 60.948C24.5889 61.22 24.4662 61.6147 24.4662 62.132V64.5H23.9142V62.004C23.9142 61.5293 23.7996 61.1667 23.5702 60.916C23.3409 60.6653 23.0262 60.54 22.6262 60.54C22.2156 60.54 21.8876 60.676 21.6422 60.948C21.3969 61.22 21.2742 61.6147 21.2742 62.132V64.5H20.7142V60.132H21.2742V60.884C21.4129 60.612 21.6102 60.4067 21.8662 60.268C22.1222 60.124 22.4076 60.052 22.7222 60.052C23.1009 60.052 23.4316 60.1427 23.7142 60.324C24.0022 60.5053 24.2102 60.772 24.3382 61.124C24.4556 60.7773 24.6556 60.5133 24.9382 60.332C25.2262 60.1453 25.5516 60.052 25.9142 60.052ZM28.6379 62.308C28.6379 61.86 28.7259 61.468 28.9019 61.132C29.0832 60.7907 29.3312 60.5293 29.6459 60.348C29.9659 60.1613 30.3259 60.068 30.7259 60.068C31.1419 60.068 31.4992 60.164 31.7979 60.356C32.1019 60.548 32.3206 60.7933 32.4539 61.092V60.132H33.0139V64.5H32.4539V63.532C32.3152 63.8307 32.0939 64.0787 31.7899 64.276C31.4912 64.468 31.1339 64.564 30.7179 64.564C30.3232 64.564 29.9659 64.4707 29.6459 64.284C29.3312 64.0973 29.0832 63.8333 28.9019 63.492C28.7259 63.1507 28.6379 62.756 28.6379 62.308ZM32.4539 62.316C32.4539 61.964 32.3819 61.6547 32.2379 61.388C32.0939 61.1213 31.8966 60.916 31.6459 60.772C31.4006 60.628 31.1286 60.556 30.8299 60.556C30.5206 60.556 30.2432 60.6253 29.9979 60.764C29.7526 60.9027 29.5579 61.1053 29.4139 61.372C29.2752 61.6333 29.2059 61.9453 29.2059 62.308C29.2059 62.6653 29.2752 62.98 29.4139 63.252C29.5579 63.5187 29.7526 63.724 29.9979 63.868C30.2432 64.0067 30.5206 64.076 30.8299 64.076C31.1286 64.076 31.4006 64.004 31.6459 63.86C31.8966 63.716 32.0939 63.5107 32.2379 63.244C32.3819 62.9773 32.4539 62.668 32.4539 62.316ZM35.0203 60.604V63.316C35.0203 63.5827 35.071 63.7667 35.1723 63.868C35.2737 63.9693 35.4523 64.02 35.7083 64.02H36.2203V64.5H35.6203C35.2257 64.5 34.9323 64.4093 34.7403 64.228C34.5483 64.0413 34.4523 63.7373 34.4523 63.316V60.604H33.8443V60.132H34.4523V59.036H35.0203V60.132H36.2203V60.604H35.0203ZM39.4352 64.54C39.3179 64.54 39.2192 64.5 39.1392 64.42C39.0646 64.34 39.0272 64.2413 39.0272 64.124C39.0272 64.0067 39.0646 63.9107 39.1392 63.836C39.2192 63.756 39.3179 63.716 39.4352 63.716C39.5472 63.716 39.6406 63.756 39.7152 63.836C39.7952 63.9107 39.8352 64.0067 39.8352 64.124C39.8352 64.2413 39.7952 64.34 39.7152 64.42C39.6406 64.5 39.5472 64.54 39.4352 64.54ZM39.4352 61.06C39.3179 61.06 39.2192 61.02 39.1392 60.94C39.0646 60.86 39.0272 60.7613 39.0272 60.644C39.0272 60.5267 39.0646 60.4307 39.1392 60.356C39.2192 60.276 39.3179 60.236 39.4352 60.236C39.5472 60.236 39.6406 60.276 39.7152 60.356C39.7952 60.4307 39.8352 60.5267 39.8352 60.644C39.8352 60.7613 39.7952 60.86 39.7152 60.94C39.6406 61.02 39.5472 61.06 39.4352 61.06ZM45.5951 58.908V63.14C45.5951 63.5667 45.4644 63.9107 45.2031 64.172C44.9418 64.428 44.5924 64.556 44.1551 64.556C43.7018 64.556 43.3391 64.42 43.0671 64.148C42.8004 63.8707 42.6671 63.4973 42.6671 63.028H43.2351C43.2404 63.332 43.3151 63.58 43.4591 63.772C43.6084 63.964 43.8404 64.06 44.1551 64.06C44.4538 64.06 44.6751 63.972 44.8191 63.796C44.9631 63.62 45.0351 63.4013 45.0351 63.14V58.908H45.5951ZM50.5793 60.516C50.5793 60.996 50.4219 61.3827 50.1073 61.676C49.7926 61.9693 49.3206 62.116 48.6913 62.116H47.5633V64.5H47.0033V58.908H48.6913C49.3153 58.908 49.7846 59.0547 50.0993 59.348C50.4193 59.6413 50.5793 60.0307 50.5793 60.516ZM48.6913 61.636C49.5659 61.636 50.0033 61.2627 50.0033 60.516C50.0033 60.1427 49.8993 59.86 49.6913 59.668C49.4833 59.476 49.1499 59.38 48.6913 59.38H47.5633V61.636H48.6913ZM52.0789 59.364V61.452H54.1989V61.916H52.0789V64.036H54.4389V64.5H51.5189V58.9H54.4389V59.364H52.0789ZM59.9423 60.54C59.7823 60.172 59.537 59.884 59.2063 59.676C58.881 59.4627 58.497 59.356 58.0543 59.356C57.6383 59.356 57.265 59.452 56.9343 59.644C56.6037 59.836 56.3423 60.1107 56.1503 60.468C55.9583 60.82 55.8623 61.2307 55.8623 61.7C55.8623 62.1693 55.9583 62.5827 56.1503 62.94C56.3423 63.2973 56.6037 63.572 56.9343 63.764C57.265 63.956 57.6383 64.052 58.0543 64.052C58.4437 64.052 58.793 63.9693 59.1023 63.804C59.417 63.6333 59.6677 63.3933 59.8543 63.084C60.0463 62.7693 60.1557 62.404 60.1823 61.988H57.8303V61.532H60.7743V61.94C60.7477 62.4307 60.6143 62.876 60.3743 63.276C60.1343 63.6707 59.8117 63.9827 59.4063 64.212C59.0063 64.4413 58.5557 64.556 58.0543 64.556C57.537 64.556 57.0677 64.436 56.6463 64.196C56.225 63.9507 55.8917 63.612 55.6463 63.18C55.4063 62.7427 55.2863 62.2493 55.2863 61.7C55.2863 61.1507 55.4063 60.66 55.6463 60.228C55.8917 59.7907 56.225 59.452 56.6463 59.212C57.0677 58.9667 57.537 58.844 58.0543 58.844C58.6517 58.844 59.1743 58.9933 59.6223 59.292C60.0703 59.5907 60.3957 60.0067 60.5983 60.54H59.9423ZM62.3122 63.572L61.4802 65.668H61.0962L61.6882 63.572H62.3122ZM68.9543 60.516C68.9543 60.996 68.7969 61.3827 68.4823 61.676C68.1676 61.9693 67.6956 62.116 67.0663 62.116H65.9383V64.5H65.3783V58.908H67.0663C67.6903 58.908 68.1596 59.0547 68.4743 59.348C68.7943 59.6413 68.9543 60.0307 68.9543 60.516ZM67.0663 61.636C67.9409 61.636 68.3783 61.2627 68.3783 60.516C68.3783 60.1427 68.2743 59.86 68.0663 59.668C67.8583 59.476 67.5249 59.38 67.0663 59.38H65.9383V61.636H67.0663ZM74.1099 64.5H73.5499L70.4539 59.796V64.5H69.8939V58.908H70.4539L73.5499 63.604V58.908H74.1099V64.5ZM79.7783 60.54C79.6183 60.172 79.3729 59.884 79.0423 59.676C78.7169 59.4627 78.3329 59.356 77.8903 59.356C77.4743 59.356 77.1009 59.452 76.7703 59.644C76.4396 59.836 76.1783 60.1107 75.9863 60.468C75.7943 60.82 75.6983 61.2307 75.6983 61.7C75.6983 62.1693 75.7943 62.5827 75.9863 62.94C76.1783 63.2973 76.4396 63.572 76.7703 63.764C77.1009 63.956 77.4743 64.052 77.8903 64.052C78.2796 64.052 78.6289 63.9693 78.9383 63.804C79.2529 63.6333 79.5036 63.3933 79.6903 63.084C79.8823 62.7693 79.9916 62.404 80.0183 61.988H77.6663V61.532H80.6103V61.94C80.5836 62.4307 80.4503 62.876 80.2103 63.276C79.9703 63.6707 79.6476 63.9827 79.2423 64.212C78.8423 64.4413 78.3916 64.556 77.8903 64.556C77.3729 64.556 76.9036 64.436 76.4823 64.196C76.0609 63.9507 75.7276 63.612 75.4823 63.18C75.2423 62.7427 75.1223 62.2493 75.1223 61.7C75.1223 61.1507 75.2423 60.66 75.4823 60.228C75.7276 59.7907 76.0609 59.452 76.4823 59.212C76.9036 58.9667 77.3729 58.844 77.8903 58.844C78.4876 58.844 79.0103 58.9933 79.4583 59.292C79.9063 59.5907 80.2316 60.0067 80.4343 60.54H79.7783ZM82.1481 63.572L81.3161 65.668H80.9321L81.5241 63.572H82.1481ZM42.3996 72.516C42.3996 72.996 42.2423 73.3827 41.9276 73.676C41.6129 73.9693 41.1409 74.116 40.5116 74.116H39.3836V76.5H38.8236V70.908H40.5116C41.1356 70.908 41.6049 71.0547 41.9196 71.348C42.2396 71.6413 42.3996 72.0307 42.3996 72.516ZM40.5116 73.636C41.3863 73.636 41.8236 73.2627 41.8236 72.516C41.8236 72.1427 41.7196 71.86 41.5116 71.668C41.3036 71.476 40.9703 71.38 40.5116 71.38H39.3836V73.636H40.5116ZM44.9952 70.908C45.6139 70.908 46.1446 71.02 46.5872 71.244C47.0299 71.468 47.3686 71.7907 47.6032 72.212C47.8379 72.6333 47.9552 73.1347 47.9552 73.716C47.9552 74.292 47.8379 74.7907 47.6032 75.212C47.3686 75.628 47.0299 75.948 46.5872 76.172C46.1446 76.3907 45.6139 76.5 44.9952 76.5H43.3392V70.908H44.9952ZM44.9952 76.036C45.7739 76.036 46.3659 75.8333 46.7712 75.428C47.1819 75.0173 47.3872 74.4467 47.3872 73.716C47.3872 72.98 47.1819 72.4067 46.7712 71.996C46.3659 71.58 45.7739 71.372 44.9952 71.372H43.8992V76.036H44.9952ZM52.0117 70.908V71.372H49.5477V73.46H51.6277V73.924H49.5477V76.5H48.9877V70.908H52.0117Z" fill="#A0A0A0"/>
</svg>
