<svg width="64" height="65" viewBox="0 0 64 65" fill="none" xmlns="http://www.w3.org/2000/svg">
<rect x="1" y="1" width="62" height="63" rx="31" stroke="black" stroke-width="2"/>
<path d="M13.3611 32.44C13.3611 30.36 13.8111 28.51 14.7111 26.89C15.6111 25.25 16.8611 23.98 18.4611 23.08C20.0811 22.16 21.9111 21.7 23.9511 21.7C26.4511 21.7 28.5911 22.36 30.3711 23.68C32.1511 25 33.3411 26.8 33.9411 29.08H28.3011C27.8811 28.2 27.2811 27.53 26.5011 27.07C25.7411 26.61 24.8711 26.38 23.8911 26.38C22.3111 26.38 21.0311 26.93 20.0511 28.03C19.0711 29.13 18.5811 30.6 18.5811 32.44C18.5811 34.28 19.0711 35.75 20.0511 36.85C21.0311 37.95 22.3111 38.5 23.8911 38.5C24.8711 38.5 25.7411 38.27 26.5011 37.81C27.2811 37.35 27.8811 36.68 28.3011 35.8H33.9411C33.3411 38.08 32.1511 39.88 30.3711 41.2C28.5911 42.5 26.4511 43.15 23.9511 43.15C21.9111 43.15 20.0811 42.7 18.4611 41.8C16.8611 40.88 15.6111 39.61 14.7111 37.99C13.8111 36.37 13.3611 34.52 13.3611 32.44ZM50.7927 21.94V26.05H42.2127V30.49H48.6327V34.48H42.2127V43H37.0827V21.94H50.7927Z" fill="black"/>
</svg>