<svg width="63" height="65" viewBox="0 0 63 65" fill="none" xmlns="http://www.w3.org/2000/svg">
<rect x="1" y="1" width="61" height="63" rx="30.5" stroke="black" stroke-width="2"/>
<path d="M22.1484 21.94C24.3684 21.94 26.3084 22.38 27.9684 23.26C29.6284 24.14 30.9084 25.38 31.8084 26.98C32.7284 28.56 33.1884 30.39 33.1884 32.47C33.1884 34.53 32.7284 36.36 31.8084 37.96C30.9084 39.56 29.6184 40.8 27.9384 41.68C26.2784 42.56 24.3484 43 22.1484 43H14.2584V21.94H22.1484ZM21.8184 38.56C23.7584 38.56 25.2684 38.03 26.3484 36.97C27.4284 35.91 27.9684 34.41 27.9684 32.47C27.9684 30.53 27.4284 29.02 26.3484 27.94C25.2684 26.86 23.7584 26.32 21.8184 26.32H19.3884V38.56H21.8184ZM49.7653 21.94V26.05H41.1853V30.49H47.6053V34.48H41.1853V43H36.0553V21.94H49.7653Z" fill="black"/>
</svg>